<?xml version="1.0" encoding="utf-8"?>
<!-- Generator: Adobe Illustrator 24.0.0, SVG Export Plug-In . SVG Version: 6.00 Build 0)  -->
<svg version="1.1" id="Layer_1" xmlns="http://www.w3.org/2000/svg" xmlns:xlink="http://www.w3.org/1999/xlink" x="0px" y="0px"
	 viewBox="0 0 117 50" style="enable-background:new 0 0 117 50;" xml:space="preserve">
<style type="text/css">
	.st0{fill-rule:evenodd;clip-rule:evenodd;fill:#FFFFFF;}
</style>
<g>
	<g transform="translate(-842 -6662)">
		<g>
			<g>
				<path class="st0" d="M869.9,6688.2c6.3,0,11.4,5.2,11.4,11.6c0,6.4-5.4,11.6-11.4,11.6c-6.3,0-11.3-5.2-11.4-11.6
					C858.6,6694.2,863.1,6688.2,869.9,6688.2L869.9,6688.2z M883.1,6699.9c0-6.5,5.3-12.5,13.5-11.6c0.4,0.1,1.4,0.1,4.3,0.8
					l-0.5,2.4c0,0-0.2,0-0.5-0.1c-1.2-4-13.5-4.2-13.5,7.7c0,4.6,2.4,8.4,5.6,9.6c0.3,0.1,5,2.2,9.9-2.8l0.3,0.3
					c-2.3,3.3-5.7,5.3-8.3,5.3C888.2,6711.4,883.1,6706.4,883.1,6699.9z M937.1,6688.6c1.2,0,2.4,0.1,3.5,0.1l0.7,0
					c1.9,0,3.4,0,4.4,0h0.4c0.2,0,0.4,0,0.6,0c1.3,0,4.5,0.4,4.5,4.2c-0.1,4.5-5.2,6.4-5.3,6.3c0.5,0.9,6.7,7.4,8.8,9.4
					c2,1.9,2.7,2.1,3.7,2.2v0.4c-5.8,1.3-8.7-3.3-9.7-4.5c-1-1.3-2.8-3.8-4.4-5.5c-1.3-1.5-2.7-1.2-3.3-1.3l0,0.6
					c0,4.3,0.1,8.6,0.1,9.2c0,0.2,0.1,0.9,1,0.9v0.5c-2.3-0.1-3.4-0.1-5,0v-0.5c0.9,0,1-0.8,1-0.9c0.1-1.1,0.1-4.8,0.1-8.6
					c0-1.2,0-2.4,0-3.5c0-3.2-0.1-6.1-0.1-7.4c0-0.1,0-1-1-1V6688.6z M842,6688.6c1.2,0,2.4,0.1,3.5,0.1l0.7,0c1.9,0,3.4,0,4.4,0
					h0.4c0.2,0,0.4,0,0.6,0c1.3,0,4.5,0.4,4.5,4.2c-0.1,4.5-5.2,6.4-5.3,6.3c0.6,0.9,6.7,7.4,8.8,9.4c2,1.9,2.7,2.1,3.7,2.2v0.4
					c-5.8,1.3-8.7-3.3-9.7-4.5c-1-1.3-2.8-3.8-4.4-5.5c-1.3-1.5-2.7-1.2-3.3-1.3c0,4.4,0.1,9.2,0.2,9.8c0,0.2,0.1,0.9,1,0.9v0.5
					c-2.3-0.1-3.4-0.1-5,0v-0.5c0.9,0,1-0.8,1-0.9c0.1-1.1,0.1-4.8,0.1-8.6c0-1.2,0-2.4,0-3.5c0-3.2-0.1-6.1-0.1-7.4c0-0.1,0-1-1-1
					V6688.6z M934.7,6688.6l-0.4,2.4c0,0-0.1,0-0.4-0.1l-0.1-0.1c0.1-1.6-3.5-1.4-5-1.5c-2.2-0.1-2.2,1.2-2.3,2
					c-0.1,1-0.1,5.7-0.1,6.4c1.8,0.3,6,0.4,7,0.2l-0.1,0.4c-1.2,0.7-4.4,1.1-6.9,1.2c-0.1,0.9,0,7.8,0.1,8.9
					c0.4,1.5,1.4,1.5,2.3,1.5h0l0.3,0c2.4,0,6.4,0,7.4-2.3l0.3,0.1c-0.6,2.2-0.6,3.2-2.6,3.2c-1.4-0.1-6.1-0.1-7.2-0.1
					c-1.1,0-2,0-2.9,0.1l-0.7,0l-0.8,0v-0.5c0.9,0,1-0.8,1-0.9c0.2-2.4,0.2-16.2,0-19.6c0-0.1,0-1-1-1v-0.4c1.4,0,3.1,0.1,4.8,0.1
					h0.6C931.4,6688.7,934.7,6688.6,934.7,6688.6z M920.2,6688.6v0.4c-0.9,0-1,0.9-1,1c-0.1,1.5-0.1,5.1-0.1,8.9l0,1.3v0.9
					c0,3.8,0,7.4,0.1,8.5c0,0.2,0.1,0.9,1,0.9v0.5c-0.9,0-1.7-0.1-2.5,0c-0.8,0-1.7,0-2.5,0v-0.5c0.9,0,1-0.8,1-0.9
					c0.1-1.1,0.1-4.4,0.1-8.1v-1.5l0-1.1c-1.1,0.4-4.7,1.5-8.9,1.3v1.1c0,3.8,0,7.2,0.1,8.3c0,0.2,0.1,0.9,1,0.9v0.5
					c-0.9,0-1.7-0.1-2.5,0c-0.8,0-1.7,0-2.5,0v-0.5c0.9,0,1-0.8,1-0.9c0.1-1.1,0.1-4.4,0.1-8.1v-1.8l0-0.9c0-3.7-0.1-7.3-0.1-8.9
					c0-0.1,0-1-1-1v-0.4c0.8,0,1.7,0.1,2.5,0.1c0.8,0,1.8,0,2.5-0.1v0.4c-0.9,0-1,0.9-1,1c-0.1,1.5-0.1,4.7-0.1,8.2
					c3.3,0.3,5.7,0.3,8.9,0c0-3.5-0.1-6.8-0.1-8.2c0-0.1,0-1-1-1v-0.4c0.8,0,1.7,0.1,2.5,0.1
					C918.5,6688.7,919.4,6688.6,920.2,6688.6z M878,6699.3c-0.7-6.4-3.8-10.3-8.8-9.9c-4.7,0.4-7.7,5.3-7.3,11.1
					c0.4,5.8,4.2,10.3,8.8,9.9C875.1,6710,878.5,6706,878,6699.3z M943.5,6689.4l-0.3,0c-0.5,0-1,0.1-1.3,0.2
					c-0.5,0.2-0.8,0.7-0.8,1.6c0,0.6-0.1,1.6-0.1,2.6l0,0.5c0,1.3,0,2.5,0,3.2v0.6c0,0.1,0,0.2,0,0.3v0.4c0,0.2,0.2,0.2,0.9,0.2
					c0.7,0.1,1.6,0,2.5-0.1c2-0.2,4.1-2.2,3.6-5.3c-0.4-3-2-4.1-3.3-4.2c-0.6-0.1-1-0.1-1.5-0.1L943.5,6689.4z M848.5,6689.4l-0.3,0
					c-0.5,0-1,0.1-1.3,0.2c-0.5,0.2-0.8,0.7-0.8,1.6c-0.1,0.7-0.1,1.7-0.1,2.8l0,0.5c0,0.9,0,1.8,0,2.5l0,0.3v0.8c0,0.1,0,0.2,0,0.3
					v0.4c0,0.2,0.2,0.2,0.9,0.2c0.7,0.1,1.6,0,2.5-0.1c2-0.2,4.1-2.2,3.6-5.3c-0.4-3-2-4.1-3.3-4.2c-0.6-0.1-1-0.1-1.5-0.1
					L848.5,6689.4z M945.8,6662c6.3,0,11.4,5.2,11.4,11.6c0,6.4-5.4,11.6-11.4,11.6c-6.3,0-11.4-5.2-11.4-11.6
					C934.5,6668,939,6662,945.8,6662z M887.7,6662.4c1.1,0,2.1,0.1,3.1,0.1h1.1c2.6,0,4.6-0.1,5.4,0c1.3,0,4.5,0.4,4.5,4.2
					c-0.1,4.5-5.2,6.4-5.3,6.3c0.5,0.9,6.7,7.4,8.8,9.4c2,1.9,2.7,2.1,3.7,2.2v0.4c-5,1.1-8.5-3.4-9.6-4.5c-1.1-1.2-2.9-3.8-4.5-5.5
					c-1.3-1.5-2.7-1.2-3.3-1.3c0,0.1,0,0.2,0,0.4l0,0.7c0,3.6,0.1,7.1,0.1,8.2c-1-0.6-2.3-1.9-3-2.8c0.1-4.9,0-13.7-0.1-16.3
					c0-0.1,0-1-1-1V6662.4z M871.4,6662.4c1.1,0,2.1,0.1,3.1,0.1h1.1c2.6,0,4.6-0.1,5.4,0c1.3,0,4.5,0.4,4.5,4.2
					c-0.1,4.5-5.2,6.4-5.3,6.3c0.5,0.7,5,5.6,7.7,8.3l0.4,0.4c0.3,0.3,0.6,0.6,0.8,0.8c2,1.9,2.7,2.1,3.7,2.2v0.4
					c-5,1.1-8.5-3.4-9.6-4.5c-1.1-1.2-2.9-3.8-4.5-5.5c-1.3-1.5-2.7-1.2-3.3-1.3c0,4.4,0.1,9.2,0.2,9.8c0,0.2,0.1,0.9,1,0.9v0.5
					c-2.3-0.1-3.4-0.1-5,0v-0.5c0.9,0,1-0.8,1-0.9c0.1-1.1,0.1-4.8,0.1-8.6c0-1.2,0-2.4,0-3.5c0-3.2-0.1-6.1-0.1-7.4c0-0.1,0-1-1-1
					L871.4,6662.4z M918.4,6662.4c1.1,0,2.1,0.1,3.1,0.1h1.1c2.6,0,4.6-0.1,5.4,0c1.3,0,4.5,0.4,4.5,4.2c-0.1,4.5-5.2,6.4-5.3,6.3
					c0.5,0.9,6.7,7.4,8.8,9.4c2,1.9,2.7,2.1,3.7,2.2v0.4c-5,1.1-8.5-3.4-9.6-4.5c-1.1-1.2-2.9-3.8-4.5-5.5c-1.3-1.5-2.7-1.2-3.3-1.3
					l0,0.6c0,4.3,0.1,8.6,0.1,9.2c0,0.2,0.1,0.9,1,0.9v0.5c-2.3-0.1-3.4-0.1-5,0v-0.5c0.9,0,1-0.8,1-0.9c0.1-1.1,0.1-4.8,0.1-8.6
					c0-1.2,0-2.4,0-3.5c0-3.2-0.1-6.1-0.1-7.4c0-0.1,0-1-1-1V6662.4z M918.1,6681.6l0.3,0.1c-0.6,2.2-0.6,3.2-2.6,3.3
					c-0.8,0-3.2-0.1-4.5-0.1c-0.7-0.2-1.4-0.5-2.2-1l-0.2-0.1l0.1,0c0.4,0.2,0.9,0.2,1.3,0.2l0.1,0h0l0.3,0
					C913.1,6683.9,917.1,6683.9,918.1,6681.6z M869,6662.4l-0.4,2.4c0,0-0.1,0-0.4-0.1l-0.1-0.1c0.1-1.5-3.5-1.4-5-1.5
					c-2.2-0.1-2.2,1.2-2.3,2c-0.1,1-0.1,5.7-0.1,6.4c1.8,0.3,6,0.4,7,0.2l-0.1,0.4c-1.2,0.7-4.4,1.1-6.9,1.2c0,0.2,0,0.9,0,1.8
					l0,0.6c0,0.5,0,1.1,0,1.7l0,0.7c0,1.9,0.1,3.7,0.1,4.2c0.4,1.5,1.4,1.5,2.3,1.5h0l0.3,0c2.4,0,6.4,0,7.4-2.3l0.3,0.1
					c-0.6,2.2-0.6,3.2-2.6,3.2c-1.4-0.1-6.1-0.1-7.2-0.1c-1.8,0-3,0.1-4.4,0.1v-0.5c0.9,0,1-0.8,1-0.9c0.1-1.2,0.1-5.5,0.1-9.9
					l0-0.9c0-3.7-0.1-7.3-0.1-8.9c0-0.1,0-1-1-1v-0.5c1.3,0,2.9,0.1,4.5,0.1h1.2C865.6,6662.5,868.6,6662.4,869,6662.4L869,6662.4
					L869,6662.4z M842,6662.4c4.5,0.1,10.2,0.2,13.3,0l0,0l-0.4,2.4c0,0-0.1,0-0.3-0.1l-0.1,0l-0.1-0.1c0.1-1.6-4.5-1.4-6.1-1.5
					c-2.2-0.1-2.2,1.2-2.3,2c-0.1,1-0.1,6.4-0.1,7.1c1.6,0.2,6.8,0.2,8.4-0.1l-0.1,0.4c-2,0.9-5,1.4-8.3,1.5c0,0.1,0,0.3,0,0.5v0.4
					c0,2.2,0.2,7.5,0.3,8.4c0,0.2,0.1,0.9,1,0.9v0.5c-2.3-0.1-3.5-0.1-5.1,0v-0.5c0.9,0,1-0.8,1-0.9c0.1-1.1,0.1-4.4,0.1-8.1v-1.8
					c0-4-0.1-8.1-0.1-9.8c0-0.1,0-1-1-1V6662.4z M953.9,6673c-0.7-6.4-3.8-10.3-8.8-9.9c-4.7,0.4-7.7,5.3-7.3,11.1
					c0.4,5.8,4.2,10.3,8.8,9.9C951,6683.8,954.4,6679.8,953.9,6673L953.9,6673z M916.4,6662.4l-0.4,2.4c0,0-0.1,0-0.4-0.1l-0.1-0.1
					c0.1-1.6-3.5-1.4-5.1-1.5c-2.2-0.1-2.2,1.2-2.3,2c0,0.4-0.1,1.5-0.1,2.7l0,0.6c0,1.4,0,2.8,0,3.1c2.3,0.4,5.6,0.4,7,0.2
					l-0.1,0.4c-1.2,0.7-4.4,1.1-6.9,1.2c0,0.2,0,0.9,0,1.8v0.6c0,2.4,0.1,5.8,0.2,6.6c0.1,0.6,0.4,0.9,0.7,1.1l0.1,0.1l-0.3-0.2
					c-1.3-0.9-2.6-2-3.3-2.8l-0.1-0.1c0.1-5,0-14-0.1-16.7c0-0.1,0-1-1-1v-0.5c1,0,2.1,0,3.3,0.1l0.6,0l0.6,0
					C912.3,6662.5,916,6662.4,916.4,6662.4L916.4,6662.4L916.4,6662.4z M924.9,6663.2l-0.3,0c-0.5,0-1,0.1-1.3,0.2
					c-0.5,0.2-0.8,0.7-0.8,1.6c0,0.6-0.1,1.6-0.1,2.6l0,0.5c0,1.1,0,2.2,0,2.9v0.9c0,0.1,0,0.2,0,0.3v0.4c0,0.2,0.2,0.2,0.9,0.2
					c0.7,0.1,1.6,0,2.5-0.1c2-0.2,4.1-2.2,3.6-5.3c-0.4-3-2-4.1-3.3-4.2c-0.6-0.1-1-0.1-1.5-0.1L924.9,6663.2z M877.9,6663.2l-0.3,0
					c-0.5,0-1,0.1-1.3,0.2c-0.5,0.2-0.8,0.7-0.8,1.6c-0.1,0.7-0.1,1.7-0.1,2.8l0,0.8c0,1,0,1.9,0,2.6v0.8c0,0.1,0,0.2,0,0.3v0.4
					c0,0.2,0.2,0.2,0.9,0.2c0.7,0.1,1.6,0,2.5-0.1c2-0.2,4.1-2.2,3.6-5.3c-0.4-3-2-4.1-3.3-4.2c-0.6-0.1-1-0.1-1.5-0.1L877.9,6663.2
					z M894.2,6663.2l-0.3,0c-0.5,0-1,0.1-1.3,0.2c-0.5,0.2-0.8,0.7-0.8,1.6c0,0.6-0.1,1.6-0.1,2.6l0,0.5c0,1.1,0,2.2,0,2.9l0,0.5
					v0.5c0,0.1,0,0.2,0,0.3v0.4c0,0.2,0.2,0.2,0.9,0.2c0.7,0.1,1.6,0,2.5-0.1c2-0.2,4.1-2.2,3.6-5.3c-0.4-3-2-4.1-3.3-4.2
					c-0.6-0.1-1-0.1-1.5-0.1L894.2,6663.2z"/>
			</g>
		</g>
	</g>
</g>
</svg>
