<?xml version="1.0" encoding="utf-8"?>
<!-- Generator: Adobe Illustrator 24.0.3, SVG Export Plug-In . SVG Version: 6.00 Build 0)  -->
<svg version="1.1" id="Layer_1" xmlns="http://www.w3.org/2000/svg" xmlns:xlink="http://www.w3.org/1999/xlink" x="0px" y="0px"
	 viewBox="0 0 502 167" style="enable-background:new 0 0 502 167;" xml:space="preserve">
<style type="text/css">
	.st0{fill:#ED1C24;}
	.st1{fill:#FFFFFF;}
</style>
<g>
	<g>
		<path class="st0" d="M20.4,151.4c9.7-3.7,19.6-5.7,28.1-5.9c20.7-0.5,38.8,9.4,56.8,9.4c8.7,0,22.1-3.6,26-5.6
			c-8.2,8.9-22.5,16.8-40.2,16.5c-15.4-0.2-37.1-7.4-53.9-4.1c5-2.9,11.1-4.7,20-5.7C50.2,150,32.9,149.1,20.4,151.4z M129.2,29.5
			L51.5,80l-1.8,18.5l102.1-26.4L129.2,29.5z M42.9,113.3l-1.1-9l-41.3-4l2.7,13H42.9z M41.4,100.1L40.4,92L8.1,81.2L1.1,96.1
			L41.4,100.1z M152.3,76.2L49.2,102.9l-1.1,10.4h97.6L152.3,76.2z M78.4,140.4c-8,0.1-14.4-4.1-14.5-8.8l-19.3-3.2l-1.3-11H4.2
			l2,9.5h29l12.5,16.5c23.6-1.7,39.6,9.3,55.7,6.7l6.4-12l8.7-0.5l3.1-8.9l-27.8,2C90.2,138.1,85.5,140.3,78.4,140.4z M47.7,117.4
			l-0.9,9.5h96.5l1.7-9.5H47.7z M39.9,87.5l-0.8-6.6L27.8,64.4L10.9,77.8L39.9,87.5z M126.3,26.6L80.6,0.8L55.1,43.8L52,74.7
			L126.3,26.6z"/>
	</g>
	<g>
		<polygon class="st1" points="177.4,61.9 196.7,61.9 196.7,80.9 201.4,80.9 201.4,40.9 196.7,40.9 196.7,57.4 177.4,57.4 
			177.4,40.9 172.8,40.9 172.8,80.9 177.4,80.9 		"/>
		<path class="st1" d="M247.8,60.9c0-5.9-2.1-10.9-6.1-14.9c-4-4-9.2-6.1-15.2-6.1c-3.7,0-7.2,0.9-10.4,2.8
			c-3.2,1.8-5.8,4.4-7.6,7.7c-1.9,3.3-2.8,6.9-2.8,10.7c0,5.7,2.1,10.7,6.1,14.7c4.1,4,9.1,6.1,15,6.1c5.8,0,10.8-2.1,14.9-6.1
			C245.8,71.7,247.8,66.7,247.8,60.9z M243,60.9c0,3.1-0.7,5.9-2.1,8.4c-1.4,2.5-3.4,4.5-5.9,5.9c-2.5,1.5-5.3,2.2-8.3,2.2
			c-4.5,0-8.3-1.6-11.4-4.7c-3.2-3.1-4.7-7.1-4.7-11.6c0-3.1,0.7-5.9,2.1-8.4c1.4-2.5,3.4-4.5,5.9-6c2.5-1.5,5.2-2.2,8.1-2.2
			c2.9,0,5.7,0.7,8.2,2.2c2.6,1.5,4.6,3.5,6,5.9C242.3,55,243,57.8,243,60.9z"/>
		<polygon class="st1" points="257,51.8 282.3,80.8 282.5,80.9 283.9,80.9 283.9,40.9 279.3,40.9 279.3,70.4 253.6,40.9 252.3,40.9 
			252.3,80.9 257,80.9 		"/>
		<path class="st1" d="M330.9,61.7v-0.4h-17.7v4.5h12.4c-0.6,3.3-2.1,6.1-4.8,8.2c-2.7,2.2-6.1,3.3-10,3.3c-3.2,0-6.3-0.8-9-2.2
			c-2.7-1.5-4.9-3.6-6.4-6.2c-1.6-2.6-2.3-5.3-2.3-8.2c0-2.8,0.8-5.5,2.3-8c1.5-2.5,3.6-4.5,6.3-6c4.9-2.6,10.3-3,16.1-0.6
			c2.5,1.1,4.9,2.7,7.1,4.8l0.2,0.3l3.6-3.4l-0.3-0.3c-2.8-2.7-5.7-4.6-8.7-5.9c-3-1.2-6.2-1.8-9.5-1.8c-4.1,0-7.9,0.9-11.2,2.8
			c-3.3,1.8-5.9,4.4-7.8,7.6c-1.9,3.3-2.9,6.8-2.9,10.6c0,5.1,1.7,9.6,5,13.4c4.3,5,10.2,7.6,17.5,7.6c6,0,10.9-1.8,14.6-5.5
			C329,72.8,330.9,67.8,330.9,61.7z"/>
		<polygon class="st1" points="375,80.9 354.3,58.9 373.6,40.9 367.2,40.9 352,55.1 352,40.9 347.3,40.9 347.3,80.9 352,80.9 
			352,63.2 368.8,80.9 		"/>
		<path class="st1" d="M411.2,75.8c4.1-4.1,6.1-9.1,6.1-14.9c0-5.9-2.1-10.9-6.1-14.9c-4-4-9.2-6.1-15.2-6.1
			c-3.7,0-7.2,0.9-10.4,2.8c-3.2,1.8-5.7,4.4-7.6,7.7c-1.9,3.3-2.8,6.9-2.8,10.7c0,5.7,2.1,10.7,6.1,14.7c4.1,4,9.1,6.1,15,6.1
			C402.1,81.9,407.1,79.8,411.2,75.8z M384.7,72.6c-3.2-3.1-4.8-7-4.8-11.6c0-3.1,0.7-5.9,2.2-8.4c1.4-2.5,3.4-4.5,6-6
			c2.5-1.5,5.2-2.2,8.1-2.2c2.9,0,5.7,0.7,8.2,2.2c2.6,1.5,4.6,3.5,6,5.9c1.4,2.4,2.1,5.2,2.1,8.3c0,3.1-0.7,5.9-2.1,8.4
			c-1.4,2.5-3.4,4.5-5.9,5.9c-2.5,1.5-5.3,2.2-8.2,2.2C391.7,77.3,387.9,75.7,384.7,72.6z"/>
		<polygon class="st1" points="426.5,51.8 451.8,80.8 451.9,80.9 453.3,80.9 453.3,40.9 448.7,40.9 448.7,70.4 423.1,40.9 
			421.7,40.9 421.7,80.9 426.5,80.9 		"/>
		<path class="st1" d="M480.3,81.9c6.1,0,11-1.8,14.6-5.5c3.6-3.6,5.5-8.6,5.5-14.7v-0.4h-17.7v4.5h12.5c-0.6,3.3-2.2,6.1-4.8,8.2
			c-2.7,2.2-6.1,3.3-10,3.3c-3.3,0-6.3-0.8-9-2.2c-2.7-1.5-4.9-3.6-6.4-6.2c-1.5-2.6-2.3-5.3-2.3-8.2c0-2.8,0.8-5.5,2.2-8
			c1.5-2.5,3.6-4.5,6.4-6c4.9-2.6,10.3-3,16.1-0.6c2.5,1.1,4.9,2.7,7.1,4.8l0.2,0.3l3.6-3.4l-0.3-0.3c-2.8-2.7-5.8-4.6-8.7-5.9
			c-3-1.2-6.2-1.8-9.5-1.8c-4.2,0-8,0.9-11.3,2.8c-3.3,1.8-5.9,4.4-7.8,7.6c-1.9,3.3-2.8,6.8-2.8,10.6c0,5.1,1.7,9.6,5,13.4
			C467,79.3,472.9,81.9,480.3,81.9z"/>
		<polygon class="st1" points="172.5,98.1 179.5,98.1 179.5,126.5 183.5,126.5 183.5,98.1 190.5,98.1 190.5,94.3 172.5,94.3 		"/>
		<path class="st1" d="M207.4,93.5c-3,0-5.8,0.8-8.4,2.2c-2.6,1.5-4.6,3.6-6.1,6.2c-1.5,2.6-2.2,5.5-2.2,8.6c0,4.6,1.6,8.6,4.9,11.8
			c3.3,3.2,7.3,4.9,12.1,4.9c4.7,0,8.7-1.7,11.9-4.9c3.3-3.3,4.9-7.3,4.9-12c0-4.7-1.6-8.7-4.9-12C216.4,95.2,212.3,93.5,207.4,93.5
			z M220.6,110.4c0,2.4-0.6,4.7-1.7,6.6c-1.1,2-2.7,3.6-4.7,4.7c-2,1.1-4.2,1.7-6.6,1.7c-3.5,0-6.6-1.3-9.1-3.8
			c-2.5-2.5-3.8-5.6-3.8-9.2c0-2.5,0.6-4.7,1.7-6.7c1.1-2,2.7-3.6,4.7-4.8c2-1.2,4.2-1.8,6.4-1.8c2.3,0,4.5,0.6,6.6,1.8
			c2,1.2,3.6,2.7,4.8,4.7C220,105.7,220.6,107.9,220.6,110.4z"/>
		<path class="st1" d="M245.7,113.7c0,2.4-0.1,4.1-0.3,4.8c-0.3,1.1-0.7,2-1.3,2.7c-0.6,0.8-1.4,1.3-2.3,1.7
			c-1.9,0.9-4.1,0.8-6.3-0.2c-1.1-0.5-1.9-1.2-2.5-2c-0.5-0.8-0.9-1.7-1-3c-0.1-0.5-0.1-1.9-0.1-4.1V94.3H228v19.3
			c0,3.2,0.2,5.4,0.6,6.7c0.6,2.1,1.9,3.8,3.8,5c1.9,1.3,4.1,1.9,6.7,1.9c2.4,0,4.5-0.7,6.2-2c1.7-1.3,2.8-2.9,3.4-4.7
			c0.5-1.7,0.8-4.1,0.8-6.9V94.3h-3.9V113.7z"/>
		<path class="st1" d="M270.1,110.8c1.6-0.7,2.8-1.7,3.6-3.1c0.8-1.4,1.2-2.9,1.2-4.7c0-2.1-0.6-3.9-1.8-5.4
			c-1.2-1.5-2.8-2.4-4.8-2.9c-1.3-0.3-3.7-0.4-7.2-0.4h-6.6v32.1h3.9v-14.6h1.2l11.3,14.6h4.8l-11.3-14.6
			C266.8,111.8,268.6,111.5,270.1,110.8z M263.5,108.1l-5-0.1v-10h5.2c2.1,0,3.6,0.2,4.5,0.5c0.9,0.3,1.5,0.9,2.1,1.7
			c0.5,0.8,0.8,1.7,0.8,2.7c0,1-0.3,2-0.8,2.8c-0.5,0.8-1.2,1.4-2.2,1.8C267,107.9,265.5,108.1,263.5,108.1z"/>
		<rect x="280.5" y="94.3" class="st1" width="3.9" height="32.1"/>
		<path class="st1" d="M300.9,108.1c-2.8-2.1-3.7-2.8-4-3.1c-0.7-0.7-1.2-1.4-1.5-2c-0.3-0.6-0.4-1.2-0.4-1.8c0-1,0.4-1.9,1.1-2.6
			c0.7-0.7,1.7-1.1,2.9-1.1c0.9,0,1.7,0.2,2.5,0.7c0.8,0.5,1.8,1.5,3,3l0.2,0.3l3.1-2.4l-0.2-0.3c-1.4-2-2.9-3.4-4.2-4.1
			c-1.3-0.8-2.8-1.1-4.3-1.1c-1.5,0-2.8,0.4-4,1c-1.3,0.7-2.2,1.6-2.9,2.8c-0.7,1.2-1,2.5-1,3.9c0,1.8,0.6,3.5,1.7,5
			c0.7,0.9,2.3,2.3,5,4.4c2.6,1.9,4.3,3.6,5.3,5c0.6,1,1,1.9,1,2.9c0,0.9-0.2,1.7-0.7,2.4c-0.4,0.8-1.1,1.4-2,1.8
			c-0.9,0.5-1.8,0.7-2.8,0.7c-2.3,0-4.4-1.7-6.2-5l-0.2-0.3l-3.3,2l0.1,0.3c1.3,2.4,2.8,4.2,4.4,5.2c1.6,1.1,3.4,1.6,5.4,1.6
			c2.6,0,4.8-0.9,6.6-2.6c1.8-1.7,2.7-3.8,2.7-6.2c0-1.6-0.5-3.3-1.6-4.9C305.5,111.9,303.7,110.1,300.9,108.1z"/>
		<polygon class="st1" points="341.8,94.3 329.3,119.6 316.8,94.3 315.7,94.3 311.1,126.5 314.9,126.5 317.9,104.7 328.6,126.3 
			328.7,126.5 330,126.5 340.6,104.9 343.6,126.5 347.4,126.5 342.8,94.3 		"/>
		<path class="st1" d="M377.3,110.7c-0.8-0.7-1.8-1.3-3.2-1.8c1.1-0.7,1.9-1.5,2.5-2.5c0.7-1.2,1.1-2.6,1.1-4c0-1.6-0.4-3-1.2-4.3
			c-0.8-1.3-1.9-2.2-3.3-2.9c-1.4-0.6-3.4-0.9-5.9-0.9h-6.6v32.1h9c3.2,0,5.8-0.9,7.7-2.7c1.9-1.8,2.9-4,2.9-6.7
			c0-1.3-0.3-2.5-0.8-3.6C378.9,112.4,378.2,111.4,377.3,110.7z M372.8,105.1c-0.6,0.8-1.3,1.4-2.3,1.8c-1,0.4-2.5,0.6-4.7,0.6h-1.4
			v-9.3h3.3c2.1,0,3.6,0.4,4.6,1.1c1,0.7,1.4,1.8,1.4,3.1C373.7,103.4,373.4,104.3,372.8,105.1z M364.5,111.3h1.4
			c2.6,0,4.4,0.1,5.5,0.4c1.5,0.4,2.7,1,3.6,2c0.9,1,1.3,2.1,1.3,3.4c0,1.1-0.3,2-0.9,2.9c-0.6,0.9-1.4,1.5-2.4,2
			c-1,0.4-2.6,0.6-4.9,0.6h-3.5V111.3z"/>
		<path class="st1" d="M411,98.4c-3.3-3.2-7.4-4.9-12.2-4.9c-3,0-5.8,0.8-8.4,2.2c-2.6,1.5-4.6,3.6-6.1,6.2
			c-1.5,2.6-2.2,5.5-2.2,8.6c0,4.6,1.6,8.6,4.9,11.8c3.3,3.2,7.3,4.9,12.1,4.9c4.7,0,8.7-1.7,11.9-4.9c3.3-3.3,4.9-7.3,4.9-12
			C416,105.7,414.3,101.6,411,98.4z M412,110.4c0,2.4-0.6,4.7-1.7,6.6c-1.1,2-2.7,3.6-4.7,4.7c-2,1.1-4.2,1.7-6.6,1.7
			c-3.5,0-6.6-1.3-9.1-3.8c-2.5-2.5-3.8-5.6-3.8-9.2c0-2.4,0.6-4.7,1.7-6.7c1.1-2,2.7-3.6,4.7-4.8c2-1.2,4.2-1.8,6.4-1.8
			c2.3,0,4.5,0.6,6.5,1.8c2,1.2,3.6,2.7,4.8,4.7C411.4,105.7,412,107.9,412,110.4z"/>
		<path class="st1" d="M430.2,94.3L415,126.5h4.3l4.9-10.3h13.1l4.9,10.3h4.2l-15-32.1H430.2z M435.6,112.4H426l4.8-10.1
			L435.6,112.4z"/>
		<path class="st1" d="M464.7,110.8c1.5-0.7,2.8-1.7,3.6-3.1c0.9-1.4,1.3-2.9,1.3-4.7c0-2.1-0.6-3.9-1.8-5.4
			c-1.2-1.5-2.8-2.4-4.8-2.9c-1.2-0.3-3.7-0.4-7.2-0.4h-6.6v32.1h3.9v-14.6h1.2l11.3,14.6h4.8l-11.3-14.6
			C461.5,111.8,463.3,111.5,464.7,110.8z M458.1,108.1l-5.1-0.1v-10h5.2c2.1,0,3.6,0.2,4.5,0.5c0.9,0.3,1.5,0.9,2.1,1.7
			c0.5,0.8,0.8,1.7,0.8,2.7c0,1-0.3,1.9-0.8,2.8c-0.5,0.8-1.2,1.4-2.2,1.8C461.7,107.9,460.2,108.1,458.1,108.1z"/>
		<path class="st1" d="M498,101.2c-1.8-2.7-4.2-4.6-7.3-5.7c-2.2-0.8-5.6-1.1-10.3-1.1h-6.9v32.1h10.4c4,0,7.1-0.6,9.3-1.7
			c2.2-1.2,4-3,5.4-5.4c1.4-2.4,2.1-5.3,2.1-8.5C500.6,107.1,499.7,103.9,498,101.2z M477.1,98.1h1.9c4.4,0,7.7,0.3,9.6,0.9
			c2.5,0.8,4.5,2.2,5.9,4.3c1.4,2.1,2.1,4.6,2.1,7.6c0,2.8-0.7,5.2-2,7.1c-1.3,1.9-3.1,3.3-5.4,4c-1.6,0.5-4.6,0.8-8.9,0.8h-3.3
			V98.1z"/>
	</g>
</g>
</svg>
