<?xml version="1.0" encoding="utf-8"?>
<!-- Generator: Adobe Illustrator 24.0.0, SVG Export Plug-In . SVG Version: 6.00 Build 0)  -->
<svg version="1.1" id="Layer_1" xmlns="http://www.w3.org/2000/svg" xmlns:xlink="http://www.w3.org/1999/xlink" x="0px" y="0px"
	 viewBox="0 0 384 512" style="enable-background:new 0 0 384 512;" xml:space="preserve">
<path d="M352,470c-6.6,0-12.7-2.9-16.9-7.9L192,289.5L48.9,461.2c-4.2,5-10.4,7.9-16.9,7.9c-5.1,0-10.1-1.8-14.1-5.1
	c-4.5-3.8-7.3-9-7.8-14.9c-0.5-5.8,1.2-11.6,5-16.1l148.2-177.9L15.1,78.1c-3.7-4.5-5.5-10.2-5-16.1c0.5-5.8,3.3-11.1,7.8-14.9
	c4-3.3,8.9-5.1,14.1-5.1c6.5,0,12.7,2.9,16.9,7.9L192,221.6L335.1,49.9c4.2-5,10.4-7.9,16.9-7.9c5.2,0,10.1,1.8,14.1,5.1
	c4.5,3.8,7.3,9.1,7.8,14.9c0.5,5.8-1.2,11.6-5,16.1L220.6,256l148.3,177.9c7.8,9.3,6.5,23.2-2.8,31C362.2,468.2,357.2,470,352,470z"
	/>
</svg>
