<?xml version="1.0" encoding="utf-8"?>
<!-- Generator: Adobe Illustrator 25.0.1, SVG Export Plug-In . SVG Version: 6.00 Build 0)  -->
<svg version="1.1" id="레이어_1" xmlns="http://www.w3.org/2000/svg" xmlns:xlink="http://www.w3.org/1999/xlink" x="0px"
	 y="0px" width="66.2px" height="58.7px" viewBox="0 0 66.2 58.7" style="enable-background:new 0 0 66.2 58.7;"
	 xml:space="preserve">
<style type="text/css">
	.st0{fill:#6331EB;}
	.st1{fill:url(#SVGID_1_);}
</style>
<path class="st0" d="M49.7,50.7l-2.3-9.2l-0.8-3.9l-0.2,3.9v15.2h-7l1.7-28.3h7.6l2.9,10.1l0.8,3.5l0.8-3.4l3-10.1h7.4l1.5,28.3H58
	V41.4v-3.8l-0.8,3.8l-2.5,9.4L49.7,50.7L49.7,50.7z M34.4,9.1l0.1,0.2c0.1,0.1,0.2,0.2,0.2,0.4c0.3,0.6,0.7,1.3,1,2
	c0,0,2.7-2.8,5.5-2.4l-0.6-8l-6.3,7.6L34.4,9.1z M36.7,18.7c-0.6-3.3-1.5-6.1-2.8-8.5c-0.1-0.2-0.2-0.3-0.3-0.5l-11,13.2l0,0
	L14.1,33v-2.6c0-6.3,0.6-10.9,1.7-14c1.1-3,2.7-4.5,4.7-4.5c1.8,0,3.2,1.3,4.2,3.8l7.1-8.5c-0.9-1-1.9-1.9-3.1-2.6
	c-2.1-1.4-4.8-2-8-2c-3.3,0-6.1,0.7-8.4,2.2c-2.3,1.4-4.1,3.4-5.5,6c-1.4,2.6-2.4,5.6-3,9c-0.6,3.4-0.9,7.2-0.9,11.2
	c0,3.7,0.3,7.3,0.9,10.6c0.1,0.4,0.2,0.8,0.3,1.3l0,0c0,0,1.1,3.7-1.1,13.2l4.2-5c0,0,0,0,0,0l7.9-9.5c0,0,0,0,0,0l11.4-13.8
	c0.1,0.5,0.1,1,0.1,1.4s0,1,0,1.5c0,6.3-0.5,10.9-1.5,13.8c-1,2.9-2.5,4.4-4.6,4.4c-1.9,0-3.4-1.3-4.5-3.9l-8,9.3
	c1.5-0.6,2.9,1.2,4,1.9c2.2,1.4,4.9,2.2,8.2,2.2c3.3,0,6.1-0.7,8.3-2.1s4-3.3,5.4-5.8c1.4-2.5,2.3-5.5,2.9-9s0.8-7.4,0.8-11.8
	C37.6,25.5,37.3,22,36.7,18.7z"/>
<linearGradient id="SVGID_1_" gradientUnits="userSpaceOnUse" x1="32.2848" y1="740.6321" x2="32.2848" y2="683.7891" gradientTransform="matrix(1 0 0 -1 0 741.2442)">
	<stop  offset="0" style="stop-color:#FFFFFF"/>
	<stop  offset="1" style="stop-color:#00C75A"/>
</linearGradient>
<path class="st1" d="M48,50.1l-2.3-9.2l-0.8-3.9l-0.2,3.9v15.2h-7l1.7-28.3H47l2.9,10.1l0.8,3.5l0.8-3.4l3-10.1h7.4l1.5,28.3h-7.2
	V40.7v-3.8l-0.8,3.8L53,50.1L48,50.1L48,50.1z M32.7,8.5l0.1,0.2c0.1,0.1,0.2,0.2,0.2,0.4c0.3,0.6,0.7,1.3,1,2c0,0,2.7-2.8,5.5-2.4
	l-0.6-8l-6.3,7.6L32.7,8.5z M35,18.1c-0.6-3.3-1.5-6.1-2.8-8.5C32.1,9.4,32,9.2,31.9,9l-11,13.2l0,0l-8.5,10.3v-2.6
	c0-6.3,0.6-10.9,1.7-14c1.1-3,2.7-4.5,4.7-4.5c1.8,0,3.2,1.3,4.2,3.8l7.1-8.5c-0.9-1-1.9-1.9-3.1-2.6c-2.1-1.4-4.8-2-8-2
	c-3.3,0-6.1,0.7-8.4,2.2c-2.3,1.4-4.1,3.4-5.5,6c-1.4,2.6-2.4,5.6-3,9c-0.6,3.4-0.9,7.2-0.9,11.2c0,3.7,0.3,7.3,0.9,10.6
	c0.1,0.4,0.2,0.8,0.3,1.3l0,0c0,0,1.1,3.7-1.1,13.2l4.2-5c0,0,0,0,0,0l7.9-9.5c0,0,0,0,0,0l11.4-13.8c0.1,0.5,0.1,1,0.1,1.4
	s0,1,0,1.5c0,6.3-0.5,10.9-1.5,13.8c-1,2.9-2.5,4.4-4.6,4.4c-1.9,0-3.4-1.3-4.5-3.9l-8,9.3c1.5-0.6,2.9,1.2,4,1.9
	c2.2,1.4,4.9,2.2,8.2,2.2c3.3,0,6.1-0.7,8.3-2.1s4-3.3,5.4-5.8c1.4-2.5,2.3-5.5,2.9-9s0.8-7.4,0.8-11.8C35.9,24.9,35.6,21.3,35,18.1
	z"/>
</svg>
