<svg xmlns="http://www.w3.org/2000/svg" width="646" height="255" viewBox="0 0 646 255">
    <g fill="none" fill-rule="evenodd">
        <g fill="#000">
            <g>
                <g>
                    <g>
                        <g fill-rule="nonzero">
                            <path d="M277.418 149.227c-3.084-1.851-7.657-2.088-10.846-2.7-1.517-.3-4.392-1.727-2.784-3.683 1.1-1.33 2.958-1.587 4.58-1.392 1.579.268 3.06.939 4.302 1.949 1.293 1.083 3.083 1.352 4.637.696.608-.182 1.103-.625 1.35-1.21.248-.584.223-1.248-.07-1.811-.402-.627-.933-1.161-1.559-1.566-.66-.489-1.374-.898-2.13-1.219-5.214-2.255-13.811-2.088-17.744 2.59-1.254 1.402-1.811 3.293-1.518 5.151.293 1.858 1.405 3.486 3.029 4.434 1.454.875 3.076 1.432 4.761 1.636 2.478.348 5.625.397 7.838 1.685 2.214 1.288.989 3.48-.926 4.281-3.752 1.525-6.383-.696-9.279-2.596-1.05-.617-2.305-.785-3.48-.467-.829.188-1.831.592-2.172 1.448-.55 1.392.87 2.861 1.858 3.669 5.374 4.413 15.74 4.81 21.037.132 1.64-1.436 2.504-3.563 2.33-5.736-.175-2.172-1.366-4.134-3.214-5.29zM368.032 138.653c-.45-.709-1.25-1.117-2.088-1.065-.801-.094-1.612-.059-2.402.105-.499.128-.943.413-1.267.814-.87 1.142-.605 3.446-.654 4.776-.126 3.327.445 6.96-.418 10.246-.443 1.518-1.56 2.747-3.028 3.333-1.468.586-3.124.464-4.49-.332-1.782-1.038-2.374-2.827-2.513-4.769-.16-2.283-.153-4.573-.118-6.863.034-1.922.396-4.087-.37-5.91-.654-1.553-2.526-1.525-3.96-1.47-2.089.084-2.945.697-3.195 2.326-.098.626-.084 12.481 0 13.323 1.26 13.491 23.925 13.443 24.726-.348.132-2.144.25-13.233-.223-14.166zM306.189 162.663c.946-.282 1.583-1.165 1.552-2.151.05-.914-.522-1.746-1.392-2.026-1.197-.231-2.416-.327-3.634-.286-1.392-.048-7.88.181-9.16-.96-1.058-.978-1.144-2.62-.196-3.704.905-1.037 2.409-.918 3.662-.995 1.253-.077 2.332-.077 3.48-.258.54-.028 1.042-.28 1.387-.695.345-.415.5-.955.43-1.49.072-1.117-.77-2.084-1.886-2.165-.926-.16-4.748-.188-5.68-.348-1.186-.244-2.03-1.296-2.012-2.506-.112-1.208.674-2.317 1.851-2.61.808-.217 9.37-.356 10.442-.488 1.004-.064 1.779-.909 1.754-1.915.09-1.225-.473-2.178-1.594-2.387-.926-.174-17.215-.167-17.737-.098-1.223.016-2.228.972-2.304 2.193-.104.696-.14 18.489-.049 20.285.09 1.796.877 2.597 2.785 2.785.25.048 17.709-.021 18.3-.181zM373.935 159.913c.063 2.088.835 2.784 2.917 2.965.529.049 14.458 0 15.182-.09 1.245-.162 2.166-1.238 2.134-2.493-.032-1.255-1.008-2.282-2.259-2.38-1.678-.132-6.961-.104-7.894-.25-1.334-.07-2.388-1.157-2.416-2.493-.104-.835-.208-14.862-.375-15.788-.104-.88-.798-1.574-1.678-1.677-1.251-.143-2.515-.143-3.766 0-.99.132-1.74.963-1.768 1.963-.084.828-.195 16.957-.077 20.243zM252.643 96.524c-.11-1.104-1.028-1.95-2.137-1.97-.734-.079-1.475-.067-2.207.035-.987.11-1.77.886-1.886 1.872-.126.697-.286 7.783-.696 8.458-.127.292-.38.51-.687.595-.307.083-.636.024-.894-.163-2.43-2.625-4.722-5.376-6.863-8.242-1.275-1.866-3.457-2.901-5.708-2.708-4.177.097-4.769.57-4.79 4.747-.035 5.284 0 17.327.119 18.05.292 1.86 1.315 2.611 3.362 2.563 1.886-.05 2.86-.745 3.063-2.513.174-1.567.174-7.49.32-8.848-.002-.552.342-1.047.86-1.238.518-.192 1.1-.04 1.458.382.78.696 6.175 7.483 8.186 10.066 1.037 1.37 2.653 2.181 4.372 2.192 3.216.14 4.177-.696 4.24-3.96.076-2.96.027-18.49-.112-19.318zM170.772 94.491c-2.088.035-2.673.794-3.028 2.89-.23 1.392 0 19.435.16 20.27.121.982.87 1.768 1.845 1.936.508.118 11.918.494 15.14-.46 4.616-1.357 8.16-4.914 8.967-9.746.751-4.427-.696-9.272-4.177-12.196-3.752-3.132-8.966-2.784-13.567-2.784-1.782.028-3.565.063-5.34.09zm14.87 14.8c-.738 3.167-3.175 5.806-7.275 5.478-1.775-.139-2.784-.94-2.965-2.68-.181-1.74-.181-8.005-.077-9.467.174-2.346 1.114-3.167 3.425-3.188 5.652-.049 7.922 5.437 6.891 9.857zM413.454 94.491c-2.088.035-2.826.766-3.014 2.89-.181 1.983 0 18.899.146 20.075.081 1.038.83 1.902 1.845 2.13.724.146 1.46.218 2.2.216 5.22.042 11.541.696 16.323-2.046 4.073-2.374 5.987-6.794 5.785-11.41-.23-5.297-3.07-9.745-8.353-11.263-4.824-1.385-9.976-.668-14.932-.592zm4.761 7.038c.157-1.088 1.048-1.921 2.144-2.005 10.985-1.301 10.7 16.345.53 15.238-1.616-.174-2.59-.925-2.785-2.533-.195-1.608-.028-10.087.111-10.7zM475.318 95.835c-4.374-2.315-9.56-2.53-14.11-.585-5.012 1.984-7.825 6.384-7.839 11.925 0 8.548 7.985 13.49 15.9 12.85 5.506-.438 10.678-3.954 12.259-9.39 1.775-5.786-.838-12.014-6.21-14.8zm-2.75 16.192c-1.392 2.241-3.682 3.585-6.773 2.582-3.258-1.058-4.629-4.928-4.469-8.075.146-2.854 1.928-5.952 4.727-6.96 2.078-.627 4.331-.013 5.805 1.58 2.597 2.68 2.639 7.684.71 10.873zM338.315 114.735c-2.952 1.698-6.996.612-9.335-1.678-1.015-.988-2.437-1.44-3.836-1.218-.954.153-2.088.64-2.45 1.608-.446 1.225.633 2.415 1.392 3.244 2.596 2.847 6.829 3.564 10.504 3.557 3.975 0 8.354-.654 11.347-3.446 1.404-1.312 2.192-3.154 2.17-5.075-.02-1.921-.849-3.745-2.281-5.026-2.743-2.373-6.314-2.192-9.69-2.575-1.942-.216-5.708-.696-5.444-3.446.23-2.395 3.48-2.423 5.221-2.228 1.453.157 2.813.794 3.864 1.81 1.392 1.393 4.928 1.782 6.153-.146.989-1.552-1.058-3.355-2.206-4.1-1.515-.9-3.192-1.491-4.936-1.74-3.822-.696-8.319-.425-11.8 1.392-3.306 1.74-5.568 6.335-3.32 9.746 2.437 3.703 8.082 3.661 11.967 4.385 1.176.216 2.617.515 3.522 1.35 1.253 1.156.487 2.785-.752 3.53l-.09.056zM384.885 94.443c-1.6-.293-4.01-.07-4.678 1.705-.752 2.005-.466 4.602-.438 6.704.055 4.246-.21 9.578 2.582 13.094 4.26 5.332 14.173 5.896 19.137 1.239 3.383-3.174 3.376-7.476 3.397-11.758 0-2.888.264-6.021-.147-8.896-.05-.606-.363-1.16-.856-1.517-.762-.483-1.664-.697-2.561-.606-.93-.017-1.827.34-2.493.988-.336.49-.529 1.064-.556 1.657-.411 4.35.654 9.05-.46 13.317-.515 2.347-2.654 3.977-5.054 3.85-2.555-.056-4.28-1.706-4.873-4.135-1.023-4.323.07-8.939-.48-13.31-.16-1.406-1.267-2.103-2.52-2.332zM198.095 119.49c1.935.695 4.072.236 4.95-1.567 1.789-3.683 9.745-4.769 11.597-.585.912 2.088 2.652 2.548 4.344 2.471 4.176-.18 3.515-3.014 2.415-6.084-1.865-5.207-3.968-10.323-5.694-15.579-.26-.939-.707-1.815-1.316-2.576-1.657-1.851-7.135-1.726-8.924-.167-.686.709-1.183 1.577-1.448 2.527-1.48 4.033-2.956 8.066-4.427 12.099-.87 2.408-2.089 4.942-2.632 7.455-.212.864.285 1.743 1.135 2.005zm8.715-11.396c0-1.615.94-3.808 2.36-3.648 1.762.195 2.694 3.682 1.866 4.991-.471.637-1.222 1.005-2.014.987-.792-.018-1.526-.42-1.968-1.077-.186-.39-.27-.822-.244-1.253zM282.57 116.134c.524-.72.9-1.536 1.106-2.402.237-.974.077-1.858-.905-2.332-1.317-.698-2.812-.988-4.295-.835-1.17.167-1.789 1.044-2.367 1.942-2.192 3.446-8.012 3.3-9.989-1.392-1.392-3.237-1.142-7.804 1.636-10.275 1.49-1.277 3.513-1.738 5.409-1.232 1.865.508 2.59 2.499 3.919 3.696 2.088 1.908 7.817.961 6.265-2.728-.495-1.159-1.172-2.23-2.005-3.175-1.4-1.467-3.227-2.456-5.22-2.826-5.11-1.267-11.013-.306-14.933 3.383-3.709 3.61-4.94 9.07-3.14 13.923 1.853 5.046 7.331 7.914 12.427 8.464 3.891.425 9.557-.71 12.091-4.211zM288.298 114.164c0 5.297.328 5.631 5.486 5.638 4.12 0 13.846.035 14.577-.034 1.837-.181 2.784-1.072 2.721-2.45-.062-1.38-.877-2.047-2.652-2.145-2.318-.125-9.091-.118-10.128-.264-1.326-.121-2.33-1.252-2.29-2.583-.118-1.325.782-2.526 2.088-2.784.814-.188 4.629-.272 5.673-.404.535-.03 1.036-.273 1.392-.675.355-.4.536-.927.502-1.462.05-1.111-.78-2.066-1.887-2.172-.828-.132-4.434-.132-5.367-.272-1.33-.116-2.348-1.234-2.339-2.568-.111-1.335.85-2.52 2.179-2.687 1.03-.195 7.588-.202 9.801-.328.594.004 1.16-.246 1.559-.685.398-.44.591-1.029.53-1.619.002-1.1-.85-2.015-1.95-2.088-.73-.111-16.477-.125-17.11-.063-1.733.174-2.45.85-2.666 2.555-.14.71-.126 14.667-.119 17.09zM374.708 99.545c1.098-.166 1.906-1.117 1.893-2.227.114-.634-.038-1.287-.42-1.806-.381-.518-.96-.857-1.598-.937-.822-.14-21.636-.132-22.464 0-1.164.24-2.005 1.254-2.027 2.442-.022 1.188.782 2.232 1.936 2.514 1.817.286 4.991-.431 6.425.975.327.352.566.777.697 1.239.696 2.172.313 4.546.292 6.787v7.755c0 4.26 7.226 5.04 7.615.696.07-.738.042-12.99.077-13.616.167-2.673.989-3.48 3.738-3.648.78-.055 3.32-.083 3.836-.174zM441.34 116.85c.05 1.936.801 2.737 2.646 2.89 1.176.097 2.687.222 3.724-.488 1.197-.821 1.142-2.262 1.163-3.557.048-3.48.09-6.926.083-10.393 0-1.782 0-3.564-.056-5.346 0-1.392.23-3.286-.633-4.462-.863-1.177-2.785-1.156-4.177-1.023-1.246.125-2.27.403-2.673 2.004-.612 2.437-.25 5.374-.23 7.86.028 4.17.035 8.346.154 12.516zM248.85 227.263c0-1.024 0-2.138-1.08-3.077-1.336-1.17-7.622-.515-8.604-.133-.981.383-1.615 1.49-2.019 2.486-.626 1.517-2.457 6.613-2.972 7.532-.696 1.21-1.803 1.253-2.443.076-.557-1.01-2.576-6.578-3.216-8.256-.41-1.254-1.563-2.116-2.882-2.15-2.423-.091-4.873-.112-7.282 0-1.51.076-2.193.814-2.443 2.463-.25 1.65-.112 13.227-.049 19.346 0 2.784.975 3.578 3.71 3.48.919.074 1.824-.256 2.479-.905.478-.715.722-1.562.696-2.422.048-1.295.215-6.961.369-7.658.153-.696 1.037-1.364 1.733-.118.369.64 3.334 8.221 4.093 9.453.662 1.061 1.842 1.686 3.09 1.636 1.008.018 1.968-.423 2.611-1.197.815-1.079 3.704-8.695 3.982-9.28.225-.615.686-1.116 1.281-1.392.599-.16.898.46 1.016.94.293 1.149.244 6 .293 7.24.035.94.042 2.019.654 2.784.613.766 2.444.954 3.968.94 1.525-.014 3.007-.696 2.972-4.065-.034-5.02.042-16.505.042-17.723zM478.235 227.075c0-1.504-.146-2.312-1.183-2.945-1.29-.572-2.754-.602-4.066-.084-.926.46-1.141 1.713-1.197 2.388-.098 1.302-.09 4.74-.153 5.875-.049.878-.307 2.722-1.393 2.722-1.085 0-2.784-2.186-4.726-4.928-2.22-3.168-3.578-5.075-5.277-5.91-1.698-.836-3.57-.655-5.019-.516-1.914.175-2.694.822-2.903 2.715-.127 1.733-.164 3.47-.111 5.207 0 2.715-.049 5.444 0 8.152 0 1.643-.097 3.279 0 4.915.077 1.392.132 3.139 1.392 3.981.759.413 1.635.555 2.485.404.63-.028 1.24-.23 1.762-.585 1.03-.821.89-2.234.953-3.418.07-1.454.077-2.902.09-4.35-.073-1.185.025-2.374.293-3.53.082-.32.306-.587.608-.723.303-.135.65-.125.944.027 1.602.696 2.848 2.743 3.913 4.059 1.865 2.297 3.404 5.193 5.624 7.156 1.232 1.032 2.817 1.547 4.42 1.434.968-.042 2.207-.098 2.883-.905.793-.947.696-2.471.696-3.613-.084-4.017-.035-16.032-.035-17.528zM387.44 225.745c0-1.065-.696-1.963-2.409-2.144-1.712-.181-4.692-.104-4.664 2.137.028 2.242.188 5.193.07 6.836-.063.759 0 2.144-.975 2.248-.974.105-5.861-5.972-8.075-8.917-.67-.856-1.55-1.525-2.554-1.942-.878-.348-3.272-.404-5.284-.146-2.012.257-2.13 1.935-2.207 2.784-.174 2.089-.062 4.274-.07 6.384v11.138c-.017.846.018 1.692.105 2.533.085.712.45 1.36 1.015 1.802.564.441 1.281.64 1.992.551 1.601-.09 2.701-.271 3.133-1.392.215-.713.314-1.455.292-2.2.049-1.009.195-6.41.3-7.358.07-.64.188-1.448.898-1.691.71-.244 1.35.41 1.844.898.76.738 5.18 6.509 7.428 9.112.513.672 1.112 1.273 1.782 1.789 1.068.637 2.3.947 3.543.891 1.678-.035 2.548-.418 2.966-.877.437-.59.654-1.314.612-2.047.16-3.96.3-18.656.258-20.389zM409.368 224.332c-4.233-.954-9.05-.696-13.136-.696-1.022-.086-2.024.323-2.694 1.1-.828 1.218-.466 3.007-.446 4.385.098 5.764-.306 11.521.084 17.27.132 1.86 1.225 2.556 3.021 2.59 6.418.119 14.486 1.295 19.582-3.591 3.465-3.46 4.669-8.586 3.105-13.227-1.692-4.726-5.312-6.884-9.516-7.831zm1.608 14.876c-1.036 3.516-4.67 5.581-8.221 4.67-.898-.236-1.803-.646-2.033-3.535-.161-2.853-.145-5.712.049-8.563.16-2.13 1.162-2.993 3.264-3.07 5.583-.188 8.389 5.883 6.94 10.498zM106.84 224.847c-4.35-1.83-9.494-1.316-14.145-1.197-4.072.104-4.587.536-4.608 4.56 0 5.506-.174 16.24 0 18.098.216 2.089 1.455 2.68 3.383 2.785 5.917.264 12.99.87 18.1-2.743 6.404-4.525 6.195-15.001.16-19.763-.88-.707-1.852-1.293-2.89-1.74zm-.946 14.25c-.452 1.755-1.595 3.252-3.168 4.152-1.574.9-3.444 1.124-5.186.623-1.07-.26-1.817-1.224-1.803-2.325-.062-1.678-.132-8.207-.041-9.78.125-2.13 1.079-2.966 3.223-3.043 3.926-.139 6.676 2.089 7.17 6.008.184 1.45.118 2.922-.195 4.35v.015zM339.777 223.455c-3.243.448-6.236 1.987-8.486 4.364-4.393 4.873-4.219 13.665.835 18.01 2.699 2.26 6.068 3.57 9.586 3.723 6.96.348 13.88-3.613 14.952-10.873.495-3.328.64-7.657-3.884-11.869-4.525-4.211-10.88-3.696-13.003-3.355zm8.624 15.809c-.455 1.94-1.78 3.56-3.592 4.392-1.772.702-3.768.559-5.422-.39-1.606-1.082-2.682-2.79-2.966-4.705-.513-2.628.03-5.351 1.51-7.581 1.72-2.444 6.196-3.237 8.647-.585 1.977 2.11 2.68 5.827 1.823 8.855v.014zM152.624 225.09c-8.047-4.03-18.321-.883-21.015 8.097-1.625 5.04.22 10.55 4.552 13.595 7.303 5.06 19.401 2.972 22.784-5.855 2.31-6.119-.432-12.99-6.32-15.836zm-1.81 15.183c-2.088 4.761-8.84 4.998-10.998.209-1.838-4.086-.543-11.486 4.928-11.834 5.952-.32 8.061 7.038 6.07 11.625zM178.207 223.754c-8.848.111-15.635 7.901-15.433 16.582.118 5.13 2.784 10.358 7.428 12.78 3.236 1.692 6.96 2.012 10.525 1.678 2.05-.117 4.054-.652 5.889-1.573.285-.16 1.016-.564.627-1.281-.39-.717-1.525-.341-1.943-.223-5.395 1.49-11.75 1.47-15.927-2.854-6.265-6.53-4.427-18.795 4.462-21.962 2.82-.945 5.86-1.02 8.723-.216 2.905.81 5.316 2.842 6.606 5.569 1.455 2.784 1.608 6.669-.41 9.23-.294.454-.805.719-1.344.696-.53-.09-.85-.633-1.024-1.141-.828-2.423 0-4.964-.522-7.393-.107-.602-.444-1.139-.94-1.497-.911-.591-2.248-.334-3.285-.383-1.306-.048-2.607-.195-3.892-.438-1.404-.313-2.875-.087-4.12.633-3.934 2.423-4.54 8.228-2.708 12.127.754 1.632 2.158 2.874 3.87 3.425 2.318.696 4.601-.174 6.961.188 3.1.361 6.18-.82 8.242-3.16 2.318-2.5 3.084-6.21 2.861-9.461-.508-7.316-7.824-11.41-14.646-11.326zm2.297 18.301c-.468.782-1.317 1.255-2.228 1.242-.911-.013-1.747-.51-2.192-1.305-.676-1.154-.847-2.536-.474-3.821.341-1.288 1.393-2.52 2.827-2.458 1.193.146 2.177 1.003 2.485 2.165.504 1.381.359 2.916-.397 4.177h-.02zM22.2 235.038c-3.969-1.886-9.489-.417-13.067-3.118-.609-.416-.963-1.115-.94-1.852.39-4.024 7.435-2.207 9.182-.536 1.525 1.462 3.244 1.35 5.02.696 1.475-.53 1.83-1.726 1.002-3.035-1.81-2.861-6.168-3.745-9.287-3.961-3.96-.285-9.05.606-11.917 3.578-4.177 4.358-.508 9.683 4.434 11.047 1.859.516 13.45 1.226 10.442 5.284-1.56 2.088-5.312 1.768-7.407.954-2.555-1.003-4.817-3.766-7.803-2.743-.718.182-1.302.701-1.567 1.392-.835 3.328 4.379 5.367 6.676 6.029 4.287 1.276 8.868 1.154 13.08-.348 3.251-1.274 6.182-4.602 5.715-8.284-.369-2.729-1.726-4.233-3.564-5.103zM507.347 240.329c-1.13-.46-2.366-.585-3.564-.362-1.05.342-1.928 1.072-2.458 2.04-1.844 2.742-6.578 2.784-8.861 0-2.284-2.785-2.277-8.486.097-11.292 1.518-1.553 3.694-2.277 5.84-1.942 2.305.536 3.203 2.402 3.739 3.265.525.885 1.451 1.457 2.478 1.531.738.001 1.474-.085 2.193-.257 2.004-.453 2.617-1.553 1.963-3.48-.771-2.234-2.424-4.053-4.574-5.034-2.18-1.008-4.559-1.517-6.961-1.49-2.705-.07-5.388.514-7.817 1.706-8.354 4.441-8.354 15.315-3.523 20.445 2.722 2.868 6.773 4.086 10.644 4.135 2.634.067 5.25-.454 7.657-1.524 1.662-.874 3.093-2.129 4.177-3.662.752-1.114.975-2.033.738-2.694s-.773-.989-1.768-1.385zM575.692 240.329c-1.13-.46-2.366-.585-3.564-.362-1.049.342-1.928 1.072-2.458 2.04-1.844 2.742-6.578 2.784-8.861 0-2.284-2.785-2.277-8.486.097-11.292 1.518-1.553 3.694-2.277 5.84-1.942 2.305.536 3.203 2.402 3.739 3.265.526.885 1.451 1.457 2.478 1.531.739.001 1.475-.085 2.193-.257 2.005-.453 2.617-1.553 1.963-3.48-.771-2.234-2.424-4.053-4.574-5.034-2.18-1.008-4.559-1.517-6.96-1.49-2.706-.07-5.389.514-7.818 1.706-8.354 4.441-8.354 15.315-3.523 20.445 2.722 2.868 6.774 4.086 10.644 4.135 2.634.067 5.25-.454 7.657-1.524 1.662-.874 3.093-2.129 4.177-3.662.752-1.114.975-2.033.738-2.694s-.766-.989-1.768-1.385zM441.104 227.395c-.53-1.434-1.072-2.785-2.576-3.418-.83-.284-1.709-.393-2.582-.32-.968 0-1.936 0-2.91.062-1.402.058-2.645.92-3.188 2.214-.307.696-2.047 5.416-3.773 10.135-1.782 4.873-3.648 10.018-3.718 10.588-.132 1.114.279 1.998 1.393 2.27 2.318.543 3.8 0 4.949-2.165.584-1.208 1.65-2.113 2.938-2.492 1.694-.195 3.403-.22 5.102-.077 1.615.22 2.972 1.324 3.516 2.861.3.945 1.109 1.638 2.088 1.79 1.404.106 2.814.106 4.218 0 .465-.021.894-.253 1.166-.63.272-.378.355-.86.227-1.306-.314-2.318-2.033-6.265-2.277-6.892-.348-.849-3.912-10.817-4.573-12.62zm-6.662 12.28c-.623.02-1.23-.207-1.685-.634-1.176-1.232-.299-3.954.822-4.977 1.684-1.532 2.944 2.088 3.084 3.257.097.626-.1 1.26-.534 1.721-.434.46-1.057.694-1.687.632zM80.917 223.921c-1.228-.5-2.614-.43-3.787.188-1.141.62-1.28 2.088-1.28 3.237 0 3.94.32 7.107-.147 11.034-.508 4.33-3.063 5.158-5.437 5.158-2.373 0-4.176-1.734-4.789-4.093-.612-2.36-.285-8.423-.223-11.834.063-3.411-.946-3.92-3.752-4.038-2.805-.118-3.828 1.044-3.856 3.223-.056 4.121-.133 8.25.083 12.356.425 7.978 8.486 11.424 15.586 9.997 5.214-1.052 8.834-4.797 9.12-10.192.104-2.004.048-11.416 0-11.917-.05-.501.09-2.625-1.518-3.119zM534.9 244.61c-2.305-.592-9.496-.23-10.443-.341-2.088-.244-3.083-1.24-3-2.938.077-1.552 1.065-2.415 3.028-2.555.933-.062 4.337-.16 5.04-.348.974-.198 1.64-1.1 1.545-2.088.104-.998-.578-1.908-1.566-2.088-.814-.202-4.622-.32-5.666-.446-1.336-.063-2.383-1.17-2.374-2.506-.127-1.33.83-2.52 2.158-2.68 2.313-.235 4.64-.297 6.961-.188 3.056.125 4.748-.627 4.824-2.088.077-1.462-.577-2.548-3.049-2.666-2.47-.119-16.129.076-16.839.243-.86.179-1.517.877-1.643 1.747-.139.829-.18 16.492-.146 19.346 0 3.48.564 4.044 4.072 4.086 4.97.056 14.842.23 16.505-.056 1.664-.285 2.186-1.35 2.18-2.304.03-.993-.628-1.875-1.588-2.13zM52.146 223.775c-1.656-.313-20.946-.16-22.275 0-1.272.132-2.202 1.26-2.089 2.534-.079.586.081 1.18.444 1.646.362.467.897.77 1.484.839 1.63.341 3.307.14 4.943.397 1.225.13 2.195 1.094 2.332 2.318.696 3.947.355 7.97.3 11.945-.05 3.195-.28 5.57 3.542 5.57 2.736 0 3.76-1.031 3.906-3.718.257-4.594-.495-9.481.25-14.013.106-1.107.982-1.983 2.089-2.088 1.072-.14 5.081-.265 5.91-.696.775-.413 1.27-1.21 1.295-2.089.093-1.304-.837-2.459-2.13-2.645zM286.154 244.06c-.828-.125-5.708-.077-7.288-.167-2.012-.118-2.84-.912-3.126-2.896-.111-.73-.062-12.593-.16-14.619-.083-1.747-.835-2.554-2.506-2.694-3.48-.306-5.04.23-5.026 4.177 0 2.854-.042 14.285 0 17.139.077 3.383.731 4.023 4.177 4.072 4.128.056 13.442 0 13.964-.097 1.226-.071 2.176-1.098 2.151-2.326.076-.637-.116-1.278-.53-1.77-.415-.49-1.014-.787-1.656-.82zM310.47 244.13c-.822-.168-5.896-.14-7.58-.237-2.138-.125-2.994-.94-3.161-3.174-.167-2.235 0-9.92-.063-13.61-.049-2.61-.877-3.362-3.439-3.48-2.562-.119-3.592.564-3.968 2.179-.376 1.615-.23 16.992-.132 20.257.063 2.046.905 2.784 2.959 2.951.417.042 14.562.042 15.182-.055 1.204-.107 2.119-1.13 2.088-2.34.146-1.203-.688-2.305-1.886-2.491zM210.075 228.251c-.021-.651-.089-1.3-.202-1.942-.57-2.973-3.786-3.168-6.174-2.297-1.462.529-2.562 1.677-3.996 2.297-.997.313-1.965.709-2.896 1.183-.975.693-1.383 1.943-1.002 3.077.327.96.773 1.316 2.088 1.33h3.007c1.358 0 1.539 1.824 1.595 2.394.185 3.278.155 6.563-.09 9.837-.078.977.033 1.96.326 2.895.87 2.353 4.685 3.022 6.412 1.198.467-.554.739-1.246.772-1.97.286-3.008.084-6.043.077-9.05 0-1.893.055-3.78.076-5.666-.007-1.08.042-2.186.007-3.286zM262.187 227.123c-.063-2.742-.863-3.48-3.724-3.48s-3.516 1.01-3.732 2.506c-.215 1.496-.174 18.057-.076 19.63.14 2.444.905 3.202 3.3 3.293 3.18.111 4.308-.564 4.274-3.898-.035-2.924.034-14.988-.042-18.05zM323.508 225.634c-.41-1.267-1.183-1.977-2.896-2.047-1.573-.07-3.48-.07-4.176 1.538-.697 1.608-.335 17.403-.3 20.884 0 2.144.822 2.875 2.868 3.007 3.425.223 4.803-.222 4.755-4.385-.063-5.486.007-18.183-.25-18.997zM126.332 225.752c-.09-1.149-1.197-2.088-3.745-2.151-2.548-.063-3.606 1.093-3.697 2.784-.09 1.692 0 18.1.063 19.854.077 1.998.898 2.784 3.077 2.784 3.334.063 4.344-.557 4.42-4.058.056-2.812.021-17.57-.118-19.213zM540.009 245.264c-.383 3.272 2.513 3.794 4.225 3.892 1.54.055 2.908-.976 3.279-2.472.243-1.97-.188-4.385-2.304-4.782-2.548-.473-4.887.62-5.2 3.362zM556.458 76.733c1.566-.195 2.22-.8 2.388-2.339.104-1.002 0-27.754 0-40.124 0-.41-.063-2.088.473-2.088s31.785 37.298 35.029 41.328c1.664 2.315 4.429 3.576 7.267 3.314 4.226-.195 13.978 0 14.619-.084 2.053-.153 2.75-.828 2.924-2.84.055-.696 0-69.542-.112-70.308-.101-1.075-.95-1.927-2.026-2.033-.94-.146-15.85-.118-16.783.042-.96.116-1.715.877-1.824 1.838-.118.898-.042 34.221-.035 35.126 0 1.768.07 3.355-.5 3.355-.286 0-2.18-2.088-2.59-2.513-.8-.8-18.225-22.338-26.216-32.23-1.03-1.28-2.089-2.54-3.119-3.815-.92-1.166-2.303-1.873-3.787-1.935-.738-.049-13.65-.14-19.366-.111-4.33 0-4.873.584-4.873 4.768 0 21.837 0 67.12.049 67.928.16 2.011.821 2.603 2.972 2.784.272.007 14.988 0 15.51-.063zM447.787 68.046c8.645 6.92 20.5 10.219 31.652 10.288 13.923.091 30.63-5.367 38.753-17.34 7.316-10.804 8.744-25.617 3.53-37.59-5.73-13.15-19.492-20.926-33.254-22.777-14.229-1.915-30.873.494-41.663 10.936-8.785 8.513-13.045 21.3-11.583 33.413 1.01 9.038 5.52 17.32 12.565 23.07zm14.723-40.688c2.436-5.402 6.731-9.614 13.052-10.804 6.724-1.267 13.797.376 18.329 5.757 7.81 9.279 7.866 26.355-1.03 34.98-8.43 8.165-23.669 6.007-29.419-4.177-4.051-7.17-4.531-17.758-.932-25.756zM323.084 75.097c.124.864.848 1.514 1.719 1.546 1.149.111 38.809.16 56.476.16h1.274c3.85-.056 4.288-.473 4.316-4.253 0-2.311 0-8.145-.07-8.744-.187-1.719-.737-2.262-2.59-2.464-.946-.104-33.636-.174-34.889-.32-1.084-.062-1.958-.91-2.053-1.991-.132-.995-.286-54.799-.446-55.787-.118-.855-.8-1.522-1.657-1.622-1.037-.167-18.906-.278-19.637-.174-1.873.264-2.402.745-2.617 2.471-.126.996-.007 69.995.174 71.178zM310.066 76.699c1.08-.04 1.976-.846 2.13-1.915.105-.487.132-10.553.098-10.852-.202-1.706-.8-2.353-2.527-2.569-.94-.118-33.741-.195-34.897-.306-1.194-.04-2.172-.962-2.283-2.151-.16-1.093-.146-36.303-.125-52.794 0-3.648.09-4.817-5.166-4.803-4.65 0-15.662.041-16.49.167-1.706.264-2.34.919-2.514 2.61-.09.898-.062 24.24-.062 35.001 0 10.762 0 33.797.034 34.695.16 2.207.843 2.854 3.091 3 .53.035 57.876.014 58.711-.083zM401.592 76.796c5.29 0 17.145 0 17.772-.097 1.075-.031 1.964-.847 2.088-1.915.153-.988.147-46.877.133-68.811.011-.805-.026-1.609-.112-2.409-.092-1.078-.953-1.93-2.032-2.012-1.045-.146-18.921-.132-19.958 0-1.087.07-1.947.945-1.998 2.033-.084.898-.132 57.848-.111 69.118.034 3.606.529 4.072 4.218 4.093zM210.688 76.796h15.871c.633.012 1.265-.018 1.894-.09 1.28-.181 1.872-.697 2.053-1.943.181-1.246.237-63.966.21-68.79 0-4.093-.613-4.636-5.02-4.657-4.761-.028-9.523-.028-14.284 0-4.358 0-4.963.612-4.963 4.72 0 11.068-.042 55.522 0 66.688.006 3.494.633 4.051 4.239 4.072zM67.914 74.422c-.012.679-.352 1.31-.912 1.692-.672.405-1.444.612-2.228.599-3.578.132-7.184-.063-10.769-.042h-4.441c-1.142 0-2.583.153-3.634-.411-1.24-.661-1.135-2.436-1.149-3.634-.097-12.641-.055-25.29-.055-37.938v-12.74c-5.618 4.129-13.046 5.528-19.888 5.437-.452.04-.9-.115-1.23-.426-.33-.312-.51-.75-.497-1.203-.257-3.81-.257-7.633 0-11.444-.011-.58.13-1.155.41-1.663.634-.947 1.964-1.017 3.106-1.052 5.61-.146 12-1.566 16.15-5.617 1.218-1.19 1.858-2.91 3.25-3.94 1.198-.891 3.592-.696 5.34-.696h13.337c2.395 0 3.39.82 3.377 3.243v2.785c0 20.027-.084 40.055-.084 60.082-.042 2.304.132 4.685-.083 6.968zM188.649 74.694c0 1.114-.898 1.81-2.089 1.914-.842.07-11.834.063-16.498.098-4.664.034-5.29-.174-5.27-4.873.056-11.354-.222-44.74-.222-44.74-.07-1.462-.188-1.295-.794.216 0 0-18.196 46.208-18.746 47.399-.495 1.194-1.674 1.96-2.966 1.928h-11.736c-1.18.033-2.27-.63-2.785-1.692-.431-.8-18.906-47.733-18.906-47.733-.48-1.204-.634-1.503-.697.112 0 0-.215 8.402-.215 10.212 0 11.138.055 35.272 0 36.198-.272 3.376-4.1 3.021-6.579 3.021h-7.922c-1.538 0-3.153.126-4.684 0-.889-.013-1.709-.48-2.172-1.239-.182-.479-.253-.993-.21-1.503.084-8.646 0-17.299-.062-25.945-.028-4.385-.049-8.771-.062-13.157 0-10.212-.056-20.556-.042-30.817 0-2.137.167-2.687 1.907-2.743h31.688c3.48.126 4.176.53 5.318 3.669 3.87 10.525 13.922 37.785 13.922 37.785.265.752.251.92.578 0l14.904-39.4c.745-1.907 1.016-2.054 3.07-2.054h29.39c1.768 0 1.935.397 1.935 1.86 0 1.461-.055 70.377-.055 71.484zM216.542 194.65c-.611-.76-.993-1.677-1.1-2.646-.16-2.986 2.91-5.068.46-8.047-3.147-3.829-9.133-4.253-13.665-3.48-3.822.695-9.808 3.215-7.852 8.144.5 1.28 1.58 2.471 1.336 3.829-.508 2.784-3.717 3.557-3.188 6.96.738 4.797 6.571 6.649 10.72 6.962 3.85.285 8.64 0 11.834-2.339 2.172-1.594 3.878-4.42 2.834-7.142-.374-.797-.836-1.549-1.379-2.242zm-13.588-9.287c1.618-.84 3.55-.815 5.144.07 1.075.584 1.592 1.842 1.24 3.014-.44 1.392-2.089 2.088-3.481 2.207-1.455.11-3.39-.474-4.045-1.908-.574-1.252-.074-2.735 1.142-3.383zm6.265 15.635c-1.921 1.392-5.471 1.211-7.247 0-.925-.562-1.491-1.566-1.491-2.649s.566-2.087 1.491-2.649c1.762-1.204 4.525-1.162 6.426-.327 2.36.996 3.042 3.968.807 5.625h.014zM380.862 205.279c5.415 2.457 13.456 1.545 16.985-3.675 2.15-3.07 1.653-7.265-1.156-9.746-2.631-2.27-6.536-2.736-9.857-2.165-1.225.209-3.376 1.295-4.51.376-1.504-1.218.208-3.042 1.225-3.898 1.615-1.351 3.418-2.02 5.534-1.434 1.288.355 2.339 1.197 3.53 1.768 1.124.472 2.377.545 3.55.208 1.489-.334 1.962-1.656 1.064-2.91-1.468-2.088-4.176-2.986-6.592-3.41-4.281-.792-8.696.301-12.112 3-6.892 5.687-5.994 18.106 2.339 21.886zm2.45-9.871c2.046-2.339 6.613-2.179 8.096.752.72 1.45.421 3.2-.738 4.33-1.601 1.594-4.462 1.803-6.411.786-2.667-1.385-2.486-4.114-.947-5.868zM474.838 189.776c-2.051-.367-4.155-.322-6.189.133-1.016.209-2.84.912-3.794.313-.953-.599-.563-1.685-.201-2.43 1.051-2.107 3.285-3.358 5.631-3.153 2.785.167 4.636 2.729 7.511 2.249.898-.154 2.089-.376 2.277-1.428.299-1.44-1.26-2.784-2.34-3.41-4.949-3.029-12.453-2.527-16.901 1.287-3.62 3.098-4.998 8.11-4.379 12.746.27 2.26 1.175 4.396 2.61 6.16 1.576 1.792 3.644 3.08 5.946 3.704 4.517 1.302 9.898.8 13.56-2.339 3.153-2.7 3.857-7.922 1.072-11.138-1.25-1.415-2.944-2.364-4.803-2.694zm-2.583 11.305c-2.088 1.233-5.5 1.052-6.961-1.05-1.615-2.263-.32-5.159 2.207-5.953 2.889-.905 7.121.536 6.682 4.177-.142 1.2-.862 2.255-1.928 2.826zM448.838 190.633c-1.839-.894-3.852-1.37-5.896-1.393-1.991 0-3.92.516-5.904.522-.892-.03-1.595-.77-1.58-1.663-.115-.988.482-1.92 1.427-2.228 1.281-.41 7.031-.369 8.549-.34 1.886.04 5.569.312 5.569-2.493 0-1.706-.64-2.088-2.172-2.262-1.532-.174-12.53-.272-14.855-.16-1.81.09-3.147.793-3.39 2.735-.307 2.416-.55 4.873-.634 7.268-.042 1.19.167 2.464 1.232 3.167 2.847 1.873 6.397-.23 9.446-.153 2.931.07 5.57 2.687 4.24 5.66-1.156 2.54-4.42 3.285-6.899 2.478-1.733-.564-2.687-2.221-4.114-3.23-2.165-1.539-5.986-.453-4.873 2.75.696 1.948 2.597 3.264 4.435 4.023 3.891 1.608 8.492 1.545 12.53.438 3.077-.856 6.105-3.23 7.107-6.39 1.1-3.62-.988-7.093-4.218-8.73zM313.95 191.315c-2.062-1.358-4.493-2.046-6.96-1.97-1.245.007-2.488.076-3.725.209-.954.097-2.283.515-3.14-.105-1.392-1.016-.522-3.327.968-3.69.723-.157 1.46-.231 2.2-.222 2.394 0 4.79.146 7.177.035 1.824-.084 4.469 0 4.525-2.45.111-.944-.479-1.829-1.393-2.089-1.578-.392-3.205-.556-4.83-.487-1.769 0-10.06-.07-12.385.397-1.629.327-1.977 2.262-2.144 3.64-.305 2.382-.412 4.785-.32 7.184.07.979.704 1.827 1.622 2.172 1.998.975 3.822.439 5.847 0 3.029-.696 8.068-.327 7.839 3.94-.153 2.89-3.342 4.428-5.924 4.177-1.543-.148-2.978-.853-4.038-1.984-.458-.596-.965-1.153-1.517-1.664-1.266-.912-2.974-.912-4.24 0-1.204.877-.884 2.555-.153 3.627.821 1.23 1.949 2.223 3.272 2.882 4.128 2.088 9.432 1.991 13.741.613 2.257-.664 4.221-2.076 5.57-4.003 2.297-3.25 1.204-7.922-1.992-10.212zM361.983 203.518c.022-.538-.172-1.062-.54-1.455-.368-.393-.878-.62-1.416-.634-1.219-.132-2.45-.07-3.676-.118-.877-.042-4.365 0-3.682-1.684.554-.604 1.173-1.145 1.844-1.615 2.34-1.734 4.957-3.537 6.314-6.196 2.388-4.664-1.114-9.217-5.457-10.81-3.813-1.427-8.033-1.297-11.75.361-2.61 1.19-4.47 3.583-4.978 6.405-.355 2.088.759 4.49 2.951 4.963.877.214 1.802.074 2.576-.39.654-.508.634-1.483.57-2.214-.308-1.67.55-3.338 2.09-4.058 2.178-1.17 5.22-.696 6.473 1.594 1.942 3.53-1.044 6.606-3.759 8.562-1.638 1.134-3.345 2.166-5.11 3.091-1.392.745-2.923 1.316-4.12 2.374-1.198 1.058-1.998 3.64.362 4.121.814.16 18.475.202 19.31.084.592-.02 1.149-.291 1.53-.745s.551-1.05.468-1.636zM237.51 198.116c3.48-2.701 8.353-5.45 7.413-10.769-.905-5.02-6.439-6.961-10.936-7.107-3.655-.119-7.734.835-10.212 3.717-1.445 1.63-2.024 3.852-1.56 5.98.363 1.468 2.089 3.035 3.634 3.007 2.68-.049 1.977-3.035 2.667-4.824 1.872-4.873 9.954-2.423 8.353 2.735-.696 2.318-2.506 4.1-4.42 5.5-2.36 1.72-5.026 3.097-7.54 4.594-.666.35-1.27.806-1.788 1.35-.524.56-.74 1.34-.578 2.089.306 1.051 1.538 1.58 2.548 1.608 1.559.035 3.125 0 4.691 0h9.503c1.698 0 8.012.16 5.84-3.418-1.323-2.172-5.847-1.392-7.957-1.691-.8-.119-1.475-.606-.94-1.448.347-.513.78-.96 1.281-1.323zM425.817 185.648c.306-1.12.627-2.575 0-3.654-.947-1.657-3.48-1.392-5.06-1.392H407.53c-2.367 0-4.873-.168-5.381 2.7-.292 1.713-.53 4.581.745 6.001 1.496 1.67 4.573.815 5.193-1.26.55-1.81 1.998-2.534 3.773-2.492 1.502-.058 3.007-.019 4.504.118.478.058.889.37 1.073.816.185.445.115.956-.182 1.335-.758 1.016-1.572 1.99-2.437 2.917-2.993 3.334-6.14 8.354-6.084 13.024-.051.887.532 1.686 1.392 1.908 1.685.515 4.414.814 5.883-.362 1.301-1.051 1.225-3.202 1.496-4.692.583-2.949 1.74-5.754 3.404-8.256.815-1.25 1.707-2.448 2.673-3.585.857-.905 1.9-1.88 2.235-3.126zM333.866 202.112c.05-2.959.09-14.083.077-16.707 0-1.149.056-2.785-.73-3.71-1.059-1.274-3.579-1.26-5.02-.87-1.09.405-2.123.953-3.07 1.628-1.118.648-2.281 1.216-3.48 1.699-.54.165-1.035.45-1.448.835-.367.434-.567.984-.564 1.552-.06.6.115 1.198.487 1.671.537.506 1.263.76 1.998.696 1.12 0 2.729-.473 3.662.397.47.59.696 1.337.633 2.088.09 2.959 0 10.797.118 11.744.23 2.088.961 2.784 3.035 2.882 3.342.153 4.247-.62 4.302-3.905zM178.903 184.368c-.153-.6-.445-1.038-.982-1.03-.925 0-.793 1.635-.814 2.199-.07 1.866.244 4.539-1.288 5.931-1.093.954-5.165.982-5.715 1.03-.404.042-1.19.063-1.295.564-.104.501.397.696.78.759 1.768.376 3.787-.14 5.464.626 2.785 1.274 1.831 5.25 2.138 7.658.055.452.153.926.814.926.661 0 .766-.766.835-1.295.272-2.089-.396-5.228 1.393-6.801 1.002-.877 2.415-.898 3.675-.933.87 0 2.172.125 2.973-.286.215-.108.342-.336.322-.576-.02-.24-.183-.445-.413-.516-2.569-.815-6.14.765-7.414-2.548-.696-1.859.007-3.836-.473-5.708zM272.99 198.227c.927-.738 1.999-1.392 2.381-1.67 2.924-2.089 5.639-5.381 4.943-9.21-1.573-8.702-15.913-9.05-20.974-3.627-1.74 1.873-2.736 5.075-1.225 7.386.695 1.085 1.893 1.743 3.18 1.747 2.09-.055 1.95-1.76 2.256-3.306.376-1.922 1.393-3.537 3.44-4.03 3.222-.78 6.264 2.088 5.276 5.338-.822 2.639-3.014 4.588-5.263 6.085-2.026 1.343-4.177 2.47-6.265 3.738-.838.44-1.603 1.006-2.27 1.677-.57.584-.747 1.445-.456 2.207.292.761 1 1.283 1.814 1.337.735.082 1.475.112 2.214.09 5.297 0 10.998.64 16.254 0 3.48-.432 3.035-4.33-.23-4.608-1.789-.16-3.612 0-5.388-.376-2.102-.41-1.065-1.678.314-2.778zM645.798 227.249c0-1.017 0-2.13-1.079-3.07-1.336-1.17-7.622-.515-8.61-.133-.99.383-1.609 1.49-2.013 2.479-.626 1.524-2.464 6.62-2.972 7.532-.696 1.218-1.803 1.26-2.443.083-.557-1.016-2.576-6.578-3.217-8.256-.405-1.257-1.561-2.12-2.882-2.15-2.422-.091-4.872-.12-7.288 0-1.504.076-2.186.807-2.436 2.456-.25 1.65-.119 13.227-.049 19.353 0 .94.084 2.088.814 2.784.731.696 2.409.822 3.481.696.838-.08 1.6-.52 2.088-1.204.564-.884.467-2.088.516-3.077.097-2.179-.147-4.553.334-6.69.174-.772 1.079-1.35 1.775-.139.369.648 3.334 8.228 4.093 9.46.668 1.053 1.844 1.673 3.09 1.63 1.009.024 1.972-.418 2.611-1.198.808-1.072 3.704-8.688 3.982-9.272.223-.618.684-1.12 1.28-1.393.6-.16.899.46 1.017.933.62 2.472.237 5.263.313 7.79-.011.607.107 1.21.349 1.768.696 1.469 2.854 1.441 4.253 1.392 1.524 0 3.007-.696 2.965-4.058-.048-5.005.028-16.498.028-17.716zM592.023 223.295c-4.415.659-8.23 3.428-10.226 7.42-1.845 3.85-1.935 8.632.292 12.35 2.423 4.044 7.31 6.223 11.89 6.453 6.905.34 13.874-3.586 14.953-10.88.494-3.321.64-7.658-3.885-11.835-3.334-3.119-8.409-4.274-13.024-3.508zm8.562 15.906c-.828 3.042-3.084 5.402-6.773 4.803-2.833-.452-4.574-2.784-5.13-5.485-.506-2.625.037-5.344 1.51-7.574 1.726-2.443 6.202-3.237 8.653-.585 1.977 2.144 2.562 5.827 1.74 8.841zM331.994 138.702c-7.657-3.822-19.123-.898-21.294 8.103-.432 1.85-.51 3.766-.23 5.645.39 3.308 2.215 6.276 4.991 8.117 5.416 3.752 14.208 3.64 19.338-.696 6.76-5.799 4.908-17.32-2.805-21.169zm-1.852 15.315c-1.01 2.264-3.25 3.73-5.729 3.752-6.098 0-7.337-8.047-4.873-12.294 1.037-1.988 3.143-3.184 5.381-3.056 5.353.39 7.045 7.4 5.221 11.612v-.014z" transform="translate(-394 -810) translate(0 530) translate(394 280)"/>
                            <path d="M67.914 74.422c-.012.679-.352 1.31-.912 1.692-.672.405-1.444.612-2.228.599-3.578.132-7.184-.063-10.769-.042h-4.441c-1.142 0-2.583.153-3.634-.411-1.24-.661-1.135-2.436-1.149-3.634-.097-12.641-.055-25.29-.055-37.938v-12.74c-5.618 4.129-13.046 5.528-19.888 5.437-.452.04-.9-.115-1.23-.426-.33-.312-.51-.75-.497-1.203-.257-3.81-.257-7.633 0-11.444-.011-.58.13-1.155.41-1.663.634-.947 1.964-1.017 3.106-1.052 5.61-.146 12-1.566 16.15-5.617 1.218-1.19 1.858-2.91 3.25-3.94 1.198-.891 3.592-.696 5.34-.696h13.337c2.395 0 3.39.82 3.377 3.243v2.785c0 19.08-.181 38.161-.077 57.242-.02 3.25.216 6.578-.09 9.808zM188.649 74.694c0 1.114-.898 1.81-2.089 1.914-.842.07-11.834.063-16.498.098-4.664.034-5.29-.174-5.27-4.873.056-11.354-.222-44.74-.222-44.74-.07-1.462-.188-1.295-.794.216 0 0-18.196 46.208-18.746 47.399-.495 1.194-1.674 1.96-2.966 1.928h-11.736c-1.18.033-2.27-.63-2.785-1.692-.431-.8-18.906-47.733-18.906-47.733-.48-1.204-.634-1.503-.697.112 0 0-.215 8.402-.215 10.212 0 11.138.055 35.272 0 36.198-.272 3.376-4.1 3.021-6.579 3.021h-7.922c-1.538 0-3.153.126-4.684 0-.889-.013-1.709-.48-2.172-1.239-.182-.479-.253-.993-.21-1.503.224-23.3-.201-46.64-.166-69.919 0-2.137.167-2.687 1.907-2.743h31.688c3.48.126 4.176.53 5.318 3.669 3.87 10.525 13.922 37.785 13.922 37.785.265.752.251.92.578 0l14.904-39.4c.745-1.907 1.016-2.054 3.07-2.054h29.39c1.768 0 1.935.397 1.935 1.86 0 1.461-.055 70.377-.055 71.484z" transform="translate(-394 -810) translate(0 530) translate(394 280)"/>
                        </g>
                    </g>
                </g>
            </g>
        </g>
    </g>
</svg>
