<svg xmlns="http://www.w3.org/2000/svg" width="1920" height="1080" style="width:100%;height:100%;transform:translate3d(0,0,0)">
  <defs>
    <clipPath id="a">
      <path d="M0 0h1920v1080H0z"/>
    </clipPath>
    <clipPath id="w">
      <path d="M0 0h20v20H0z"/>
    </clipPath>
    <clipPath id="v">
      <path d="M0 0h20v20H0z"/>
    </clipPath>
    <clipPath id="u">
      <path d="M0 0h1920v1080H0z"/>
    </clipPath>
    <clipPath id="t">
      <path d="M0 0h1920v1080H0z"/>
    </clipPath>
    <clipPath id="s">
      <path d="M0 0h1920v1080H0z"/>
    </clipPath>
    <clipPath id="l">
      <path d="M0 0h1920v1080H0z"/>
    </clipPath>
    <clipPath id="q">
      <path d="M0 0h1920v1080H0z"/>
    </clipPath>
    <clipPath id="r">
      <path d="M0 0h1920v1080H0z"/>
    </clipPath>
    <clipPath id="o">
      <path d="M0 0h1920v1080H0z"/>
    </clipPath>
    <clipPath id="p">
      <path d="M0 0h1920v1080H0z"/>
    </clipPath>
    <clipPath id="m">
      <path d="M0 0h1920v1080H0z"/>
    </clipPath>
    <clipPath id="n">
      <path d="M0 0h1920v1080H0z"/>
    </clipPath>
    <clipPath id="k">
      <path d="M0 0h1920v1080H0z"/>
    </clipPath>
    <clipPath id="h">
      <path d="M0 0h1920v1080H0z"/>
    </clipPath>
    <clipPath id="j">
      <path d="M0 0h1920v1080H0z"/>
    </clipPath>
    <clipPath id="i">
      <path d="M0 0h1920v1080H0z"/>
    </clipPath>
    <clipPath id="e">
      <path d="M0 0h1920v1080H0z"/>
    </clipPath>
    <clipPath id="g">
      <path d="M0 0h1920v1080H0z"/>
    </clipPath>
    <clipPath id="f">
      <path d="M0 0h1920v1080H0z"/>
    </clipPath>
    <clipPath id="d">
      <path d="M0 0h1920v1080H0z"/>
    </clipPath>
    <clipPath id="c">
      <path d="M0 0h1920v1080H0z"/>
    </clipPath>
    <clipPath id="b">
      <path d="M0 0h1920v1080H0z"/>
    </clipPath>
  </defs>
  <g clip-path="url(#a)">
    <g clip-path="url(#b)" transform="rotate(60 1556.891 848.37)" opacity=".5" style="display:block">
      <path fill="#36B8FF" d="M0-10c5.522 0 10 4.477 10 10 0 5.522-4.478 10-10 10-5.523 0-10-4.478-10-10 0-5.523 4.477-10 10-10z" transform="translate(1531.822 849.045)" opacity="1" style="display:block"/>
      <path fill="#36B8FF" d="M0-10c5.522 0 10 4.477 10 10 0 5.522-4.478 10-10 10-5.523 0-10-4.478-10-10 0-5.523 4.477-10 10-10z" transform="translate(1550.729 849.045)" opacity="1" style="display:block"/>
      <path fill="#36B8FF" d="M-9.912-6.251c.887.55 6.506 1.52 9.913 1.53 3.287.009 8.734-.893 9.59-1.392.37-.216 3.138-.66 3.138-.66l.068 12.513s-2.617.498-2.97.287C8.96 5.512 1.161 4.615.081 4.615c-.763 0-9.287 1.382-10.28 1.741-.916.326-2.254-.492-2.254-.492l-.07-12.795s2.292.482 2.61.68z" transform="matrix(.75607 0 0 1.37208 1541.126 849.136)" opacity="1" style="display:block"/>
    </g>
    <g clip-path="url(#c)" transform="translate(15.75 -27.25)" opacity=".5" style="display:block">
      <path fill="#36B8FF" d="M0-10c5.522 0 10 4.477 10 10 0 5.522-4.478 10-10 10-5.523 0-10-4.478-10-10 0-5.523 4.477-10 10-10z" transform="translate(1531.822 849.045)" opacity="1" style="display:block"/>
      <path fill="#36B8FF" d="M0-10c5.522 0 10 4.477 10 10 0 5.522-4.478 10-10 10-5.523 0-10-4.478-10-10 0-5.523 4.477-10 10-10z" transform="translate(1550.729 849.045)" opacity="1" style="display:block"/>
      <path fill="#36B8FF" d="M-9.912-6.251c.887.55 6.506 1.52 9.913 1.53 3.287.009 8.734-.893 9.59-1.392.37-.216 3.138-.66 3.138-.66l.068 12.513s-2.617.498-2.97.287C8.96 5.512 1.161 4.615.081 4.615c-.763 0-9.287 1.382-10.28 1.741-.916.326-2.254-.492-2.254-.492l-.07-12.795s2.292.482 2.61.68z" transform="matrix(.75607 0 0 1.37208 1541.126 849.136)" opacity="1" style="display:block"/>
    </g>
    <g clip-path="url(#d)" transform="translate(.25)" opacity=".5" style="display:block">
      <path fill="#36B8FF" d="M0-10c5.522 0 10 4.477 10 10 0 5.522-4.478 10-10 10-5.523 0-10-4.478-10-10 0-5.523 4.477-10 10-10z" transform="translate(1531.822 849.045)" opacity="1" style="display:block"/>
      <path fill="#36B8FF" d="M0-10c5.522 0 10 4.477 10 10 0 5.522-4.478 10-10 10-5.523 0-10-4.478-10-10 0-5.523 4.477-10 10-10z" transform="translate(1550.729 849.045)" opacity="1" style="display:block"/>
      <path fill="#36B8FF" d="M-9.912-6.251c.887.55 6.506 1.52 9.913 1.53 3.287.009 8.734-.893 9.59-1.392.37-.216 3.138-.66 3.138-.66l.068 12.513s-2.617.498-2.97.287C8.96 5.512 1.161 4.615.081 4.615c-.763 0-9.287 1.382-10.28 1.741-.916.326-2.254-.492-2.254-.492l-.07-12.795s2.292.482 2.61.68z" transform="matrix(.75607 0 0 1.37208 1541.126 849.136)" opacity="1" style="display:block"/>
    </g>
    <g clip-path="url(#e)" transform="translate(-36.203)" style="display:block">
      <g clip-path="url(#f)" transform="rotate(-60 1212.403 1419.826)" opacity=".5" style="display:block">
        <path fill="#36B8FF" d="M0-10c5.522 0 10 4.477 10 10 0 5.522-4.478 10-10 10-5.523 0-10-4.478-10-10 0-5.523 4.477-10 10-10z" transform="translate(1537.306 849.045)" opacity="1" style="display:block"/>
        <path fill="#36B8FF" d="M0-10c5.522 0 10 4.477 10 10 0 5.522-4.478 10-10 10-5.523 0-10-4.478-10-10 0-5.523 4.477-10 10-10z" transform="translate(1545.065 849.045)" opacity="1" style="display:block"/>
        <path fill="#36B8FF" d="M-12.788-6.552s8.525-.03 12.789-.012c4.148.018 12.444-.085 12.444-.085l3.939.744.126 11.634-3.705.713L.153 6.367l-13.275.055-2.744-.764-.129-11.226 3.207-.984z" transform="matrix(.4096 0 0 1.52273 1541.126 849.136)" opacity="1" style="display:block"/>
      </g>
      <g clip-path="url(#g)" transform="rotate(60 1234.818 264.998)" opacity=".5" style="display:block">
        <path fill="#36B8FF" d="M0-10c5.522 0 10 4.477 10 10 0 5.522-4.478 10-10 10-5.523 0-10-4.478-10-10 0-5.523 4.477-10 10-10z" transform="translate(1537.306 849.045)" opacity="1" style="display:block"/>
        <path fill="#36B8FF" d="M0-10c5.522 0 10 4.477 10 10 0 5.522-4.478 10-10 10-5.523 0-10-4.478-10-10 0-5.523 4.477-10 10-10z" transform="translate(1545.065 849.045)" opacity="1" style="display:block"/>
        <path fill="#36B8FF" d="M-12.788-6.552s8.525-.03 12.789-.012c4.148.018 12.444-.085 12.444-.085l3.939.744.126 11.634-3.705.713L.153 6.367l-13.275.055-2.744-.764-.129-11.226 3.207-.984z" transform="matrix(.4096 0 0 1.52273 1541.126 849.136)" opacity="1" style="display:block"/>
      </g>
    </g>
    <g clip-path="url(#h)" transform="rotate(180 633.354 548)" style="display:block">
      <g clip-path="url(#i)" transform="rotate(-60 1212.403 1419.826)" opacity=".5" style="display:block">
        <path fill="#36B8FF" d="M0-10c5.522 0 10 4.477 10 10 0 5.522-4.478 10-10 10-5.523 0-10-4.478-10-10 0-5.523 4.477-10 10-10z" transform="translate(1531.822 849.045)" opacity="1" style="display:block"/>
        <path fill="#36B8FF" d="M0-10c5.522 0 10 4.477 10 10 0 5.522-4.478 10-10 10-5.523 0-10-4.478-10-10 0-5.523 4.477-10 10-10z" transform="translate(1550.729 849.045)" opacity="1" style="display:block"/>
        <path fill="#36B8FF" d="M-9.912-6.251c.887.55 6.506 1.52 9.913 1.53 3.287.009 8.734-.893 9.59-1.392.37-.216 3.138-.66 3.138-.66l.068 12.513s-2.617.498-2.97.287C8.96 5.512 1.161 4.615.081 4.615c-.763 0-9.287 1.382-10.28 1.741-.916.326-2.254-.492-2.254-.492l-.07-12.795s2.292.482 2.61.68z" transform="matrix(.75607 0 0 1.37208 1541.126 849.136)" opacity="1" style="display:block"/>
      </g>
      <g clip-path="url(#j)" transform="rotate(60 1234.818 264.998)" opacity=".5" style="display:block">
        <path fill="#36B8FF" d="M0-10c5.522 0 10 4.477 10 10 0 5.522-4.478 10-10 10-5.523 0-10-4.478-10-10 0-5.523 4.477-10 10-10z" transform="translate(1531.822 849.045)" opacity="1" style="display:block"/>
        <path fill="#36B8FF" d="M0-10c5.522 0 10 4.477 10 10 0 5.522-4.478 10-10 10-5.523 0-10-4.478-10-10 0-5.523 4.477-10 10-10z" transform="translate(1550.729 849.045)" opacity="1" style="display:block"/>
        <path fill="#36B8FF" d="M-9.912-6.251c.887.55 6.506 1.52 9.913 1.53 3.287.009 8.734-.893 9.59-1.392.37-.216 3.138-.66 3.138-.66l.068 12.513s-2.617.498-2.97.287C8.96 5.512 1.161 4.615.081 4.615c-.763 0-9.287 1.382-10.28 1.741-.916.326-2.254-.492-2.254-.492l-.07-12.795s2.292.482 2.61.68z" transform="matrix(.75607 0 0 1.37208 1541.126 849.136)" opacity="1" style="display:block"/>
      </g>
    </g>
    <g clip-path="url(#k)" transform="rotate(90 1920.68 646.32)" opacity=".5" style="display:block">
      <path fill="#36B8FF" d="M0-10c5.522 0 10 4.477 10 10 0 5.522-4.478 10-10 10-5.523 0-10-4.478-10-10 0-5.523 4.477-10 10-10z" transform="translate(1531.822 849.045)" opacity="1" style="display:block"/>
      <path fill="#36B8FF" d="M0-10c5.522 0 10 4.477 10 10 0 5.522-4.478 10-10 10-5.523 0-10-4.478-10-10 0-5.523 4.477-10 10-10z" transform="translate(1550.729 849.045)" opacity="1" style="display:block"/>
      <path fill="#36B8FF" d="M-10.09-6.27c.832.516 6.631 1.424 10.091 1.435 3.34.01 8.963-.843 9.766-1.311.347-.202 3.188-.573 3.188-.573l.072 12.458s-2.685.511-3.017.314C9.198 5.57 1.1 4.723.087 4.723c-.717 0-9.534 1.3-10.466 1.637-.86.306-2.284-.508-2.284-.508l-.073-12.699s2.348.392 2.647.577z" transform="matrix(.7678 0 0 1.36693 1541.126 849.136)" opacity="1" style="display:block"/>
    </g>
    <g clip-path="url(#l)" transform="translate(0 17.896)" style="display:block">
      <g clip-path="url(#m)" transform="rotate(90 1912.75 481.75)" opacity=".5" style="display:block">
        <g clip-path="url(#n)" opacity="1" style="display:block">
          <path fill="#36B8FF" d="M0-10c5.522 0 10 4.477 10 10 0 5.522-4.478 10-10 10-5.523 0-10-4.478-10-10 0-5.523 4.477-10 10-10z" transform="translate(1528.324 849.045)" opacity="1" style="display:block"/>
          <path fill="#36B8FF" d="M0-10c5.522 0 10 4.477 10 10 0 5.522-4.478 10-10 10-5.523 0-10-4.478-10-10 0-5.523 4.477-10 10-10z" transform="translate(1554.342 849.045)" opacity="1" style="display:block"/>
          <path fill="#36B8FF" d="M-8.17-6.04C-6.698-5.125-2.839-3.893 0-3.888c2.717.004 6.576-1.19 8-2.02.615-.358 2.608-.81 2.608-.81l.029 13.089s-1.896-.268-2.484-.618C6.714 4.897 2.61 3.839.036 3.843c-2.64.005-7.384 1.712-8.206 2.12-.743.366-2.32.606-2.32.606l.053-13.373s1.737.435 2.266.764z" transform="matrix(1.17317 0 0 1.1889 1541.126 849.136)" opacity="1" style="display:block"/>
        </g>
      </g>
      <g clip-path="url(#o)" transform="rotate(90 1882 512.5)" opacity=".5" style="display:block">
        <g clip-path="url(#p)" opacity="1" style="display:block">
          <path fill="#36B8FF" d="M0-10c5.522 0 10 4.477 10 10 0 5.522-4.478 10-10 10-5.523 0-10-4.478-10-10 0-5.523 4.477-10 10-10z" transform="translate(1528.324 849.045)" opacity="1" style="display:block"/>
          <path fill="#36B8FF" d="M0-10c5.522 0 10 4.477 10 10 0 5.522-4.478 10-10 10-5.523 0-10-4.478-10-10 0-5.523 4.477-10 10-10z" transform="translate(1554.342 849.045)" opacity="1" style="display:block"/>
          <path fill="#36B8FF" d="M-8.17-6.04C-6.698-5.125-2.839-3.893 0-3.888c2.717.004 6.576-1.19 8-2.02.615-.358 2.608-.81 2.608-.81l.029 13.089s-1.896-.268-2.484-.618C6.714 4.897 2.61 3.839.036 3.843c-2.64.005-7.384 1.712-8.206 2.12-.743.366-2.32.606-2.32.606l.053-13.373s1.737.435 2.266.764z" transform="matrix(1.17317 0 0 1.1889 1541.126 849.136)" opacity="1" style="display:block"/>
        </g>
      </g>
      <g clip-path="url(#q)" transform="rotate(90 1897.25 497.25)" opacity=".5" style="display:block">
        <g clip-path="url(#r)" opacity="1" style="display:block">
          <path fill="#36B8FF" d="M0-10c5.522 0 10 4.477 10 10 0 5.522-4.478 10-10 10-5.523 0-10-4.478-10-10 0-5.523 4.477-10 10-10z" transform="translate(1528.324 849.045)" opacity="1" style="display:block"/>
          <path fill="#36B8FF" d="M0-10c5.522 0 10 4.477 10 10 0 5.522-4.478 10-10 10-5.523 0-10-4.478-10-10 0-5.523 4.477-10 10-10z" transform="translate(1554.342 849.045)" opacity="1" style="display:block"/>
          <path fill="#36B8FF" d="M-8.17-6.04C-6.698-5.125-2.839-3.893 0-3.888c2.717.004 6.576-1.19 8-2.02.615-.358 2.608-.81 2.608-.81l.029 13.089s-1.896-.268-2.484-.618C6.714 4.897 2.61 3.839.036 3.843c-2.64.005-7.384 1.712-8.206 2.12-.743.366-2.32.606-2.32.606l.053-13.373s1.737.435 2.266.764z" transform="matrix(1.17317 0 0 1.1889 1541.126 849.136)" opacity="1" style="display:block"/>
        </g>
      </g>
    </g>
    <g clip-path="url(#s)" transform="rotate(-40 431.584 1277.036)" opacity=".5" style="display:block">
      <path fill="#36B8FF" d="M0-10c5.522 0 10 4.477 10 10 0 5.522-4.478 10-10 10-5.523 0-10-4.478-10-10 0-5.523 4.477-10 10-10z" transform="translate(1531.822 849.045)" opacity="1" style="display:block"/>
      <path fill="#36B8FF" d="M0-10c5.522 0 10 4.477 10 10 0 5.522-4.478 10-10 10-5.523 0-10-4.478-10-10 0-5.523 4.477-10 10-10z" transform="translate(1550.729 849.045)" opacity="1" style="display:block"/>
      <path fill="#36B8FF" d="M-10.09-6.27c.832.516 6.631 1.424 10.091 1.435 3.34.01 8.963-.843 9.766-1.311.347-.202 3.188-.573 3.188-.573l.072 12.458s-2.685.511-3.017.314C9.198 5.57 1.1 4.723.087 4.723c-.717 0-9.534 1.3-10.466 1.637-.86.306-2.284-.508-2.284-.508l-.073-12.699s2.348.392 2.647.577z" transform="matrix(.7678 0 0 1.36693 1541.126 849.136)" opacity="1" style="display:block"/>
    </g>
    <g clip-path="url(#t)" transform="translate(-567.5 -205.75)" opacity=".5" style="display:block">
      <path fill="#36B8FF" d="M0-10c5.522 0 10 4.477 10 10 0 5.522-4.478 10-10 10-5.523 0-10-4.478-10-10 0-5.523 4.477-10 10-10z" transform="translate(1531.822 849.045)" opacity="1" style="display:block"/>
      <path fill="#36B8FF" d="M0-10c5.522 0 10 4.477 10 10 0 5.522-4.478 10-10 10-5.523 0-10-4.478-10-10 0-5.523 4.477-10 10-10z" transform="translate(1550.729 849.045)" opacity="1" style="display:block"/>
      <path fill="#36B8FF" d="M-10.09-6.27c.832.516 6.631 1.424 10.091 1.435 3.34.01 8.963-.843 9.766-1.311.347-.202 3.188-.573 3.188-.573l.072 12.458s-2.685.511-3.017.314C9.198 5.57 1.1 4.723.087 4.723c-.717 0-9.534 1.3-10.466 1.637-.86.306-2.284-.508-2.284-.508l-.073-12.699s2.348.392 2.647.577z" transform="matrix(.7678 0 0 1.36693 1541.126 849.136)" opacity="1" style="display:block"/>
    </g>
    <g clip-path="url(#u)" transform="translate(-442.639 131.25)" opacity=".5" style="display:block">
      <path fill="#36B8FF" d="M0-10c5.522 0 10 4.477 10 10 0 5.522-4.478 10-10 10-5.523 0-10-4.478-10-10 0-5.523 4.477-10 10-10z" transform="translate(1531.822 849.045)" opacity="1" style="display:block"/>
      <path fill="#36B8FF" d="M0-10c5.522 0 10 4.477 10 10 0 5.522-4.478 10-10 10-5.523 0-10-4.478-10-10 0-5.523 4.477-10 10-10z" transform="translate(1550.729 849.045)" opacity="1" style="display:block"/>
      <path fill="#36B8FF" d="M-10.09-6.27c.832.516 6.631 1.424 10.091 1.435 3.34.01 8.963-.843 9.766-1.311.347-.202 3.188-.573 3.188-.573l.072 12.458s-2.685.511-3.017.314C9.198 5.57 1.1 4.723.087 4.723c-.717 0-9.534 1.3-10.466 1.637-.86.306-2.284-.508-2.284-.508l-.073-12.699s2.348.392 2.647.577z" transform="matrix(.7678 0 0 1.36693 1541.126 849.136)" opacity="1" style="display:block"/>
    </g>
    <g clip-path="url(#v)" transform="translate(1658 636.377)" opacity=".206" style="display:block">
      <path fill="#36B8FF" d="M0-10c5.522 0 10 4.477 10 10 0 5.522-4.478 10-10 10-5.523 0-10-4.478-10-10 0-5.523 4.477-10 10-10z" transform="translate(10 10)" opacity="1" style="display:block"/>
    </g>
    <g clip-path="url(#w)" transform="translate(960 143.71)" opacity=".206" style="display:block">
      <path fill="#36B8FF" d="M0-10c5.522 0 10 4.477 10 10 0 5.522-4.478 10-10 10-5.523 0-10-4.478-10-10 0-5.523 4.477-10 10-10z" transform="translate(10 10)" opacity="1" style="display:block"/>
    </g>
  </g>
</svg>
