<svg xmlns="http://www.w3.org/2000/svg" width="491" height="311" style="width:100%;height:100%;transform:translate3d(0,0,0)">
  <defs>
    <clipPath id="a">
      <path d="M0 0h491v311H0z"/>
    </clipPath>
    <clipPath id="b">
      <path d="M0 0h491v311H0z"/>
    </clipPath>
  </defs>
  <g clip-path="url(#a)">
    <g style="display:block">
      <path fill="#D11" d="M336.357 291.404c5.7-11.14 17.021-21.197 17.021-39.212 0-18.019-11.32-28.076-17.021-39.215-3.845-11.908-2.954-27.025-15.692-39.763-12.741-12.742-27.857-11.847-39.764-15.696-11.143-5.7-21.196-17.018-39.214-17.018-18.018 0-28.076 11.323-39.218 17.02-11.904 3.848-27.021 2.956-39.757 15.694-12.743 12.742-11.848 27.859-15.697 39.769-5.7 11.135-17.015 21.192-17.015 39.209 0 18.017 11.32 28.075 17.02 39.218 3.844 11.906 2.952 27.019 15.693 39.754 12.737 12.742 27.853 11.847 39.761 15.696 11.141 5.699 21.196 17.018 39.213 17.018 18.018 0 28.071-11.319 39.214-17.018 11.906-3.849 27.023-2.954 39.764-15.694 12.738-12.741 11.845-27.855 15.692-39.762z"/>
      <path stroke="#B81A1A" stroke-width="4" d="M336.357 291.404c5.7-11.14 17.021-21.197 17.021-39.212 0-18.019-11.32-28.076-17.021-39.215-3.845-11.908-2.954-27.025-15.692-39.763-12.741-12.742-27.857-11.847-39.764-15.696-11.143-5.7-21.196-17.018-39.214-17.018-18.018 0-28.076 11.323-39.218 17.02-11.904 3.848-27.021 2.956-39.757 15.694-12.743 12.742-11.848 27.859-15.697 39.769-5.7 11.135-17.015 21.192-17.015 39.209 0 18.017 11.32 28.075 17.02 39.218 3.844 11.906 2.952 27.019 15.693 39.754 12.737 12.742 27.853 11.847 39.761 15.696 11.141 5.699 21.196 17.018 39.213 17.018 18.018 0 28.071-11.319 39.214-17.018 11.906-3.849 27.023-2.954 39.764-15.694 12.738-12.741 11.845-27.855 15.692-39.762z" fill="none"/>
      <g>
        <path fill="#FFDA6E" d="M160.916 260.717c0-47.895 37.039-82.343 80.286-82.343 43.251 0 80.286 34.448 80.286 82.343 0 47.894-37.035 65.263-80.286 65.263-43.247 0-80.286-17.369-80.286-65.263z"/>
      </g>
    </g>
    <g clip-path="url(#b)" transform="translate(0 6.895)" style="display:block">
      <path fill="#FFF69B" d="M3.702-3.048s-2.618-8.92-3.703-8.92-3.703 8.92-3.703 8.92S-10.473-.855-10.473 0s6.769 3.047 6.769 3.047 2.571 8.921 3.703 8.921c1.133 0 3.703-8.921 3.703-8.921S10.473.887 10.473 0c0-.888-6.771-3.048-6.771-3.048z" transform="translate(282.507 115.839) scale(.99662)" style="display:block"/>
      <path fill="#FFF69B" d="M5.289-4.444s-3.74-13.009-5.29-13.009c-1.549 0-5.289 13.009-5.289 13.009S-14.96-1.246-14.96 0c0 1.247 9.67 4.445 9.67 4.445s3.673 13.008 5.289 13.008c1.618 0 5.29-13.008 5.29-13.008S14.96 1.295 14.96 0c0-1.295-9.671-4.444-9.671-4.444z" transform="matrix(1.08338 0 0 1.08338 112.46 121.323)" style="display:block"/>
      <path fill="#FFF69B" d="M5.817-4.825S1.704-18.949-.001-18.949c-1.705 0-5.819 14.124-5.819 14.124S-16.456-1.353-16.456 0c0 1.355 10.636 4.826 10.636 4.826s4.04 14.123 5.819 14.123S5.817 4.826 5.817 4.826 16.456 1.405 16.456 0c0-1.405-10.639-4.825-10.639-4.825z" transform="translate(399.196 234.521) scale(.99662)" style="display:block"/>
      <path fill="#FFF69B" d="M7.052-6.476S2.066-25.432-.001-25.432c-2.066 0-7.052 18.956-7.052 18.956S-19.947-1.816-19.947.001c0 1.816 12.894 6.476 12.894 6.476s4.897 18.955 7.052 18.955c2.157 0 7.053-18.955 7.053-18.955S19.947 1.886 19.947.001c0-1.888-12.895-6.477-12.895-6.477z" transform="matrix(1.08338 0 0 1.08338 307.939 80.433)" style="display:block"/>
      <g style="display:block">
        <path fill="#FDFDFD" d="M485.636 116.008c-1.568-2.565-4.048-4.07-6.801-4.135a8.238 8.238 0 0 0-1.19.06c-3.188.39-5.906.551-8.299.495-7.8-.182-13.603-2.748-19.407-8.584-1.42-1.43-3.316-2.212-5.48-2.262-2.822-.066-5.822 1.19-7.823 3.281-7.899 8.253-26.771 22.715-66.7 31.147 1.066 3.054 1.874 7.08 1.579 12.07 0 0-2.594 13.6 7.055 21.666 1.184.988 2.52 1.767 3.91 2.433 3.435 1.646 12.679 6.754 16.61 15.476 26.655-4.146 65.072-17.943 87.052-61.38 1.59-3.138 1.391-7.17-.506-10.267z"/>
        <path fill="#E73A37" d="M382.48 172.18c-1.389-.667-2.726-1.446-3.91-2.434-9.649-8.067-7.054-21.667-7.054-21.667.294-4.988-.515-9.015-1.581-12.069-3.124.66-6.362 1.287-9.75 1.868-3.616.618-6.693 2.937-8.228 6.203-1.552 3.297-1.372 6.988.497 10.131 4.59 7.728 8.166 13.022 12.692 19.727 1.245 1.843 2.561 3.793 3.992 5.928a20.53 20.53 0 0 0 6.991 6.462 8.192 8.192 0 0 0 2.883 1.343 20.703 20.703 0 0 0 6.814 1.33c.675.015 1.354-.002 2.036-.054 3.406-.254 7.184-.663 11.23-1.293-3.933-8.722-13.176-13.83-16.611-15.476z"/>
        <path stroke="#AF1212" stroke-width="3" d="M485.636 116.007c-1.568-2.565-4.048-4.07-6.801-4.135a8.241 8.241 0 0 0-1.19.06c-3.188.39-5.906.552-8.299.496-7.8-.182-13.603-2.748-19.407-8.584-1.42-1.43-3.316-2.213-5.48-2.263-2.822-.066-5.822 1.19-7.823 3.281-7.899 8.253-26.771 22.715-66.7 31.147-3.125.66-6.363 1.287-9.75 1.868-3.618.618-6.694 2.938-8.23 6.204-1.552 3.297-1.37 6.987.498 10.13 4.59 7.728 8.167 13.022 12.693 19.727 1.245 1.843 2.561 3.793 3.99 5.928a20.527 20.527 0 0 0 6.993 6.463 8.188 8.188 0 0 0 2.882 1.343 20.713 20.713 0 0 0 6.815 1.33c.675.015 1.352-.002 2.035-.054 3.406-.254 7.183-.663 11.228-1.293 26.655-4.146 65.072-17.943 87.052-61.38 1.59-3.138 1.391-7.172-.506-10.268z" fill="none"/>
        <path fill="#333" d="M415.127 150.396c1.932-2.05 2.161-4.796.268-6.89l-6.62-7.32c-1.514-1.67-4.362-.014-3.223 1.246l4.88 5.395c.412.454.238 1.094-.39 1.428-.621.332-1.458.235-1.873-.217l-5.435-6.01c-.728-.59-1.692-.272-2.205.004l-.046.028c-.016.01-.035.015-.051.023-.513.274-1.238.86-.774 1.59l5.435 6.009c.412.454.24 1.093-.385 1.427-.623.336-1.464.238-1.876-.218l-4.88-5.394c-1.14-1.258-4.152.216-2.638 1.89l6.62 7.32c1.912 2.112 5.386 2.896 8.581 2.181l12.794 14.255c.845.933 2.567 1.14 3.845.458 1.28-.685 1.627-1.998.783-2.932l-12.81-14.273zM432.62 141.24c2.767-2.446 3.266-5.947.256-9.274-3.62-4.003-10.9-6.205-15.293-3.856-4.396 2.353-4.244 8.368-.621 12.37 2.898 3.203 7.13 4.113 10.957 3.159l13.755 14.237c.847.934 2.568 1.14 3.846.455 1.28-.684 1.63-1.997.783-2.928L432.62 141.24z"/>
      </g>
      <g style="display:block">
        <path fill="#FDFDFD" d="m284.577 54.781-.576-.46c-3.865-3.062-11.06-8.765-12.508-21.542-.403-3.581-3.565-6.15-7.686-6.246-2.355-.055-4.656.76-6.31 2.235C248.879 36.46 232 49.366 209.57 56.211c-.05 2.6-.25 5.738-.799 8.862a14.224 14.224 0 0 1-.978 3.23c-1.61 3.68-5.562 15.263 3.512 24.489 0 0 6.059 6.869 9.981 15.468 18.867-4.799 52.384-16.777 65.635-43.227 1.762-3.518.8-7.735-2.344-10.252z"/>
        <path fill="#E73A37" d="M207.793 68.302c.453-1.035.782-2.116.978-3.228.549-3.125.75-6.263.8-8.863a108.102 108.102 0 0 1-9.718 2.485c-4.08.842-6.945 4.39-6.808 8.437.301 9.163 1.972 26.472 9.789 39.433 1.46 2.422 4.09 3.908 7.037 3.979a8.816 8.816 0 0 0 1.843-.151c2.34-.442 5.648-1.137 9.572-2.134-3.922-8.6-9.98-15.468-9.98-15.468-9.075-9.226-5.123-20.81-3.513-24.49z"/>
        <path stroke="#9C1714" stroke-width="3" d="m284.577 54.78-.576-.458c-3.865-3.063-11.06-8.766-12.508-21.543-.403-3.581-3.565-6.15-7.686-6.247-2.355-.055-4.656.76-6.31 2.235C248.879 36.46 232 49.365 209.57 56.21a107.63 107.63 0 0 1-9.716 2.485c-4.08.843-6.947 4.39-6.81 8.438.302 9.163 1.974 26.47 9.79 39.432 1.461 2.422 4.092 3.91 7.038 3.98a8.756 8.756 0 0 0 1.843-.151 158.51 158.51 0 0 0 9.571-2.134c18.867-4.799 52.384-16.778 65.635-43.228 1.762-3.518.8-7.735-2.344-10.252z" fill="none"/>
        <path fill="#333" d="M241.994 50.649c-3.215 1.604-3.759 7.036-1.753 11.065 1.611 3.226 4.368 4.564 7.054 4.145l7.163 15.307a1.897 1.897 0 0 0 2.54.858 1.902 1.902 0 0 0 .845-2.549l-7.124-15.23c2.13-1.88 2.833-4.995 1.162-8.344-2.006-4.027-6.671-6.857-9.887-5.252zM235.59 63.066a.927.927 0 0 1-.415 1.243.923.923 0 0 1-1.239-.415l-3.01-6.046c-.43-.615-1.116-.44-1.489-.251-.013.007-.022.01-.032.017l-.039.016c-.376.19-.926.63-.691 1.34l3.013 6.046a.927.927 0 0 1-.416 1.241.927.927 0 0 1-1.24-.415l-2.704-5.427c-.632-1.266-2.82-.288-1.981 1.395l3.668 7.36a5.455 5.455 0 0 0 5.552 2.981l7.19 15.358a1.898 1.898 0 0 0 2.542.858 1.896 1.896 0 0 0 .84-2.546l-7.198-15.38a5.462 5.462 0 0 0 .92-6.185l-3.671-7.361c-.838-1.683-2.936-.522-2.306.744l2.706 5.427z"/>
      </g>
      <g opacity=".4" style="display:block">
        <path fill="#FDFDFD" d="M195.659 23.612c-4.628-3.746-7.372-8.299-8.158-13.534-.597-3.999-3.842-6.966-7.713-7.057a7.786 7.786 0 0 0-1.47.106c-10.3 1.724-30.641 8.897-55.737 36.933 1.938 2.206 4.08 5.45 5.103 9.783 0 0 .54 10.231 15.367 12.935 0 0 4.21.137 13.572 5.405 6.369-9.108 18.813-23.726 36.812-30.772 2.724-1.067 4.618-3.443 5.07-6.356.44-2.862-.622-5.642-2.846-7.443z" opacity="1"/>
        <path fill="#E73A37" d="M127.683 49.843c-1.024-4.333-3.164-7.577-5.103-9.783a217.752 217.752 0 0 0-6.026 7.023 8.13 8.13 0 0 0-1.602 7.138c1.561 6.093 7.534 17.066 29.993 22.095a8.186 8.186 0 0 0 8.73-3.666 95.63 95.63 0 0 1 2.947-4.467c-9.362-5.268-13.572-5.405-13.572-5.405-14.827-2.704-15.367-12.935-15.367-12.935z" opacity="1"/>
        <path stroke="#9C1714" stroke-width="3" d="M195.659 23.611c-4.628-3.746-7.372-8.298-8.158-13.533-.597-3.999-3.842-6.966-7.713-7.057a7.786 7.786 0 0 0-1.47.106c-10.3 1.724-30.641 8.897-55.737 36.933a216.763 216.763 0 0 0-6.027 7.024 8.128 8.128 0 0 0-1.601 7.137c1.561 6.093 7.534 17.067 29.993 22.095a8.182 8.182 0 0 0 8.73-3.666 95.746 95.746 0 0 1 2.947-4.467c6.369-9.108 18.813-23.727 36.812-30.773 2.724-1.067 4.618-3.442 5.07-6.355.44-2.862-.622-5.643-2.846-7.444z" fill="none" opacity="1"/>
        <path fill="#221815" d="M151.311 20.852c-2.199 2.08-1.311 6.59 1.293 9.342 2.085 2.205 4.636 2.61 6.7 1.615l9.579 10.14c.608.644 1.62.675 2.259.07.639-.604.665-1.618.056-2.26l-9.528-10.088c1.257-2.036 1.063-4.718-1.104-7.007-2.603-2.752-7.056-3.891-9.255-1.812zM149.186 32.422a.782.782 0 0 1-.032 1.101.782.782 0 0 1-1.102-.032l-3.906-4.132c-.496-.392-1.006-.083-1.262.158-.009.008-.015.018-.023.025-.008.008-.015.014-.023.024-.258.242-.596.732-.235 1.248l3.909 4.134a.776.776 0 0 1-.03 1.1.782.782 0 0 1-1.1-.03l-3.508-3.71c-.818-.868-2.346.458-1.258 1.608l4.76 5.034a4.596 4.596 0 0 0 5.204 1.041l9.612 10.175c.609.642 1.622.672 2.259.07.64-.605.666-1.617.058-2.257l-9.624-10.19a4.601 4.601 0 0 0-.773-5.209l-4.761-5.032c-1.087-1.151-2.494.298-1.675 1.164l3.51 3.71z" opacity="1"/>
      </g>
      <g style="display:block">
        <path fill="#FDFDFD" d="M107.842 198.284c-4.763-3.286-9.495-7.975-8.477-17.859.195-1.87-.405-3.655-1.733-5.165-1.767-2.006-4.673-3.294-7.584-3.361a9.884 9.884 0 0 0-.624.004c-2.042.08-4.184.093-6.37.042-12.439-.29-31.358-2.775-53.915-12.356-1.379 3.085-3.095 6.241-5.088 8.538 0 0-11.454 15.7-.796 34.13 0 0 4.648 5.908 6.783 15.461 8.621 3.604 19.108 6.403 31.182 6.684 14.61.341 29.55-3.082 44.41-10.172 3.173-1.517 5.41-4.793 5.692-8.347.25-3.128-1.02-5.9-3.48-7.6z"/>
        <path fill="#E73A37" d="M25.338 166.478c1.452-2.048 2.73-4.49 3.801-6.89a181.413 181.413 0 0 1-8.891-4.063 9.757 9.757 0 0 0-4.1-1.012c-5.078-.118-9.43 3.74-9.907 8.781l-2.785 29.503a14.01 14.01 0 0 0 5.211 12.301c4.575 3.654 11.83 8.632 21.372 12.62-2.135-9.553-6.784-15.461-6.784-15.461-5.037-8.71-5.136-16.808-3.839-22.93.988-4.663 3.164-8.961 5.922-12.85z"/>
        <path fill="#221815" d="M66.05 177.984c-3.854-.386-7.475 4.252-7.957 9.077-.389 3.866 1.36 6.674 4.05 7.836l-1.912 17.57a2.046 2.046 0 0 0 1.827 2.242 2.048 2.048 0 0 0 2.235-1.836l1.9-17.478c3.026-.486 5.457-2.922 5.858-6.937.485-4.825-2.144-10.09-6-10.474zM53.073 185.62a.998.998 0 0 1-1.984-.201l.725-7.243c-.037-.808-.76-1.042-1.212-1.087l-.04-.001a.337.337 0 0 1-.045-.004c-.448-.047-1.204.04-1.4.822l-.728 7.246a.996.996 0 0 1-1.982-.2l.65-6.504c.154-1.52-2.406-1.884-2.606.133l-.884 8.82a5.882 5.882 0 0 0 3.35 5.91L45 210.938a2.047 2.047 0 0 0 1.823 2.244 2.047 2.047 0 0 0 2.236-1.837l1.92-17.652a5.886 5.886 0 0 0 4.393-5.108l.882-8.824c.203-2.017-2.377-2.166-2.53-.648l-.651 6.506z"/>
        <path stroke="#9C1714" stroke-width="3" d="M107.841 198.284c-4.763-3.286-9.494-7.975-8.476-17.859.195-1.87-.405-3.655-1.733-5.165-1.767-2.006-4.674-3.294-7.585-3.361a9.852 9.852 0 0 0-.623.004c-2.042.08-4.184.093-6.37.042-12.439-.29-31.359-2.775-53.916-12.356a181.354 181.354 0 0 1-8.89-4.063 9.742 9.742 0 0 0-4.1-1.012c-5.078-.118-9.43 3.74-9.906 8.782l-2.786 29.502a14.005 14.005 0 0 0 5.212 12.3c4.574 3.654 11.83 8.632 21.37 12.62 8.622 3.604 19.107 6.403 31.181 6.684 14.61.341 29.55-3.082 44.41-10.172 3.174-1.517 5.411-4.793 5.693-8.347.25-3.128-1.02-5.9-3.48-7.6z" fill="none"/>
      </g>
    </g>
    <g style="display:block">
      <path fill="#FFF" d="M163.784 322.15c-3.947 2.55-9.28 1.382-11.852-2.597l-39.3-60.816c-2.571-3.979-1.447-9.32 2.5-11.872l32.253-20.843c3.947-2.55 9.28-1.382 11.852 2.597l39.3 60.814c2.572 3.98 1.446 9.324-2.5 11.875l-32.253 20.843z"/>
      <path stroke="#B76B6B" stroke-width="2.2" d="M163.785 322.15c-3.947 2.55-9.28 1.382-11.852-2.597l-39.3-60.816c-2.571-3.979-1.448-9.32 2.5-11.872l32.253-20.843c3.947-2.55 9.28-1.382 11.852 2.597l39.3 60.814c2.572 3.98 1.445 9.324-2.502 11.875l-32.25 20.843z" fill="none"/>
      <path fill="#F33" d="m148.606 231.118-29.33 18.956c-2.65 1.71-3.404 5.296-1.678 7.966l33.093 51.209c1.725 2.67 5.304 3.455 7.952 1.742l29.331-18.955c2.649-1.711 3.404-5.296 1.678-7.966l-33.093-51.208c-1.725-2.671-5.305-3.455-7.953-1.744z"/>
      <path fill="#E1E1E1" d="m180.181 301.964-9.73 6.288a1.502 1.502 0 0 0-.438 2.074c.449.694 1.381.898 2.07.453l9.73-6.289a1.501 1.501 0 0 0 .438-2.071c-.45-.696-1.381-.9-2.07-.455z"/>
    </g>
    <g style="display:block">
      <path d="M9.9-3.16c.18 0 .22.06.22.21v.36H3.26c-1.26 0-1.95.64-1.95 1.63v.17c0 .99.69 1.86 1.95 1.86h9.3c.57 0 .79-.42.79-.79 0-.42-.24-.84-.79-.84H4.6c-.22 0-.31-.12-.31-.26v-.04c0-.14.09-.27.31-.27h8.39v-2.2c0-1.08-.44-1.45-1.67-1.45H2.21c-.5 0-.74.42-.74.8 0 .41.22.82.74.82H9.9zM4.75-5.17c1.99 0 3.72-.91 3.72-2.78v-.52c0-.29-.08-.54-.22-.78.67-.01.98-.44.98-.94 0-.51-.32-.98-1.02-.98H6.16c-.06-.73-.6-1.18-1.41-1.18-.8 0-1.35.44-1.41 1.18H1.3c-.69 0-1.05.47-1.05.98 0 .49.34.93 1 .94-.15.24-.22.49-.22.78v.52c0 1.87 1.73 2.78 3.72 2.78zm5.34.04h2.8v-2.34h.43c.85 0 1.12-.62 1.12-1.2 0-.56-.26-1.2-1.12-1.2h-.43v-.9c0-.9-.67-1.4-1.4-1.4-.75 0-1.4.48-1.4 1.4v5.64zM4.75-7.05c-.58 0-1.15-.3-1.15-.96v-.49c0-.66.57-.96 1.15-.96s1.16.3 1.16.96v.49c0 .66-.58.96-1.16.96zm21.7 8.12c.85 0 1.18-.52 1.18-1.1 0-.56-.32-1.08-1.18-1.08h-7.66c-.31 0-.38-.05-.38-.36v-.96c0-.94-.62-1.39-1.41-1.39-.79 0-1.45.44-1.45 1.39v1.44c0 1.51.42 2.06 2 2.06h8.9zm-7.66-5.45c2.4 0 4.04-1.03 4.04-3.32v-.94c0-2.29-1.64-3.33-4.04-3.33-2.39 0-4.03 1.04-4.03 3.33v.94c0 2.29 1.64 3.32 4.03 3.32zm5.63 2.18h2.85v-8.57c0-.9-.69-1.4-1.43-1.4s-1.42.48-1.42 1.4v8.57zm-5.63-4.26c-.74 0-1.27-.34-1.27-1.13v-1.17c0-.77.53-1.14 1.27-1.14.75 0 1.27.37 1.27 1.14v1.17c0 .79-.52 1.13-1.27 1.13z" style="display:inherit" transform="rotate(-32.872 537.008 -97.67)" fill="#FFF" font-size="14" font-family="Jalnan OTF" font-weight="400" aria-label="할인"/>
    </g>
    <g style="display:block">
      <path d="M8.4.51c.81 0 1.06-.62 1.06-1.17 0-.54-.24-1.19-1.06-1.19H4.07c-.25 0-.36-.08-.36-.41V-4.5h3.78c.8 0 1.12-.58 1.12-1.15 0-.6-.31-1.17-1.12-1.17H3.71v-2.06c0-.33.11-.41.36-.41h3.76c.8 0 1.05-.65 1.05-1.2 0-.54-.24-1.18-1.05-1.18H3.06c-1.83 0-2.17.42-2.17 2.18v7.8c0 1.76.34 2.2 2.17 2.2H8.4zm4.87.56v-11.84c0-.92-.67-1.4-1.41-1.4-.75 0-1.41.48-1.41 1.4V1.07h2.82zm2.37-7.09c-.64-.01-1.03.38-1.08.96-.04.65.38 1.04 1.01 1.13.15.02.33.02.47.02 2.25-.01 4.11-.97 4.8-2.98h1.15v2.58h2.43v-6.66c0-.77-.58-1.2-1.21-1.2-.65 0-1.22.41-1.22 1.2v1.86h-.86v-.9c0-1.16-.4-1.72-1.8-1.72h-3.57c-.72 0-1 .56-1 1.04 0 .5.3 1.09 1 1.09h2.79c.2 0 .29.07.29.27v.45h-3.2c-.72 0-1.01.53-1.01 1.01s.3 1 1.01 1l1.87-.01c.28 0 .56-.06.83-.16-.52.71-1.42 1.05-2.7 1.02zm7.26 3.24c0-.84-.54-1.2-1.27-1.24-.74-.04-1.21.26-1.61 1.14-.56 1.29-2.41 1.79-3.68 1.74-.65-.03-1.17.35-1.21 1.04-.04.72.48 1.23 1.15 1.3 1.72.18 4.21-.55 5.59-1.86 1.52-.19 2.83.52 3.17 1.73h2.89c-.39-2.85-2.85-3.89-5.03-3.81v-.04zm2.13-1.04h2.46v-7.15c0-.77-.6-1.2-1.24-1.2-.65 0-1.22.41-1.22 1.2v7.15z" style="display:inherit" transform="rotate(-32.872 567.261 -106.277)" fill="#FFF" font-size="14" font-family="Jalnan OTF" font-weight="400" aria-label="티켓"/>
    </g>
    <g style="display:block">
      <path fill="#FFF" d="M255.578 257.458c-5.863 0-10.929 3.464-13.404 8.506-2.474-5.042-7.538-8.506-13.402-8.506-8.296 0-15.022 6.921-15.022 15.459 0 8.539 6.726 15.457 15.022 15.457 5.864 0 10.928-3.464 13.402-8.507 2.475 5.043 7.541 8.507 13.404 8.507 8.294 0 15.021-6.918 15.021-15.457 0-8.538-6.727-15.459-15.021-15.459z"/>
      <path fill="#D11" d="M253.644 259.604c0 7.635-5.582 12.813-12.466 12.813-6.887 0-12.468-5.178-12.468-12.813 0-7.635 5.581-18.103 12.468-18.103 6.884 0 12.466 10.468 12.466 18.103z"/>
      <path fill="#221F1F" d="M250.651 262.924c0 2.772-4.018 6.502-8.975 6.502-4.959 0-8.977-3.73-8.977-6.502 0-2.771 4.018-5.466 8.977-5.466 4.957 0 8.975 2.695 8.975 5.466z"/>
    </g>
    <g style="display:block">
      <path fill="#FFDA6E" d="M201.38 309.299c.082 10.646-10.346 18.673-23.841 18.13-13.498-.543-23.99-9.005-22.982-19.28 1.004-10.273 12.186-18.73 24.582-18.564 12.404.174 22.162 9.068 22.241 19.714z"/>
      <path stroke="#DAAA4D" stroke-width="3.5" d="M201.38 309.299c.082 10.646-10.346 18.673-23.841 18.13-13.498-.543-23.99-9.005-22.982-19.28 1.004-10.273 12.186-18.73 24.582-18.564 12.404.174 22.162 9.068 22.241 19.714z" fill="none"/>
    </g>
    <g style="display:block">
      <path fill="#FFDA6E" d="M289.766 309.105c.454 10.638 11.269 18.132 24.722 16.914 13.448-1.218 23.505-10.197 21.985-20.408-1.519-10.208-13.111-18.098-25.483-17.308-12.379.792-21.676 10.167-21.224 20.802z"/>
      <path stroke="#DAAA4D" stroke-width="3.5" d="M289.766 309.105c.454 10.638 11.269 18.132 24.722 16.914 13.448-1.218 23.505-10.197 21.985-20.408-1.519-10.208-13.111-18.098-25.483-17.308-12.379.792-21.676 10.167-21.224 20.802z" fill="none"/>
    </g>
    <path fill="#221F1F" d="M5.984.001A5.982 5.982 0 0 1 .001 5.984 5.983 5.983 0 0 1-5.984.001 5.983 5.983 0 0 1 .001-5.984 5.983 5.983 0 0 1 5.984.001z" transform="translate(205.484 250.234)" style="display:block"/>
    <path fill="#221F1F" d="M5.984.001A5.982 5.982 0 0 1 .001 5.984 5.983 5.983 0 0 1-5.984.001 5.983 5.983 0 0 1 .001-5.984 5.983 5.983 0 0 1 5.984.001z" transform="translate(277.484 250.484)" style="display:block"/>
  </g>
</svg>
