<svg xmlns="http://www.w3.org/2000/svg" width="500" height="500" style="width:100%;height:100%;transform:translate3d(0,0,0)">
  <defs>
    <clipPath id="a">
      <path d="M0 0h500v500H0z"/>
    </clipPath>
  </defs>
  <g clip-path="url(#a)">
    <g style="display:block">
      <path fill="#FDD300" d="m396.839 334.092-2.87-1.463c-1.669-8.438-9.129-18.774-20.826-24.737-11.698-5.963-24.444-5.928-32.245-2.317l-2.878-1.467-3.215 6.308.009.004c-.073.12-.141.254-.21.388-5.04 9.889 4.044 24.61 20.286 32.89 16.241 8.28 33.492 6.983 38.533-2.906.068-.134.137-.268.191-.397l.01.005 3.215-6.308z"/>
      <path stroke="#C28909" stroke-width="2.2" d="m396.839 334.092-2.87-1.463c-1.669-8.438-9.129-18.774-20.826-24.737-11.698-5.963-24.444-5.928-32.245-2.317l-2.878-1.467-3.215 6.308.009.004c-.073.12-.141.254-.21.388-5.04 9.889 4.044 24.61 20.286 32.89 16.241 8.28 33.492 6.983 38.533-2.906.068-.134.137-.268.191-.397l.01.005 3.215-6.308z" fill="none"/>
    </g>
    <path fill="#FDD300" d="M33.009.003c0 11.1-14.78 20.09-33.01 20.09-4.81 0-9.37-.62-13.49-1.75-11.51-3.14-19.52-10.17-19.52-18.34 0-11.1 14.78-20.1 33.01-20.1 18.23 0 33.01 9 33.01 20.1" transform="rotate(27.011 -477.633 925.163)" style="display:block"/>
    <g style="display:block">
      <path fill="#FDD300" d="M397.48 332.834c-5.041 9.89-22.292 11.186-38.534 2.907-4.285-2.185-8.066-4.808-11.223-7.686-8.829-8.025-12.772-17.926-9.062-25.205 5.042-9.889 22.297-11.195 38.538-2.915 16.242 8.28 25.322 23.01 20.28 32.9z"/>
      <path stroke="#C28909" stroke-width="2.2" d="M397.48 332.834c-5.041 9.89-22.292 11.186-38.534 2.907-4.285-2.185-8.066-4.808-11.223-7.686-8.829-8.025-12.772-17.926-9.062-25.205 5.042-9.889 22.297-11.195 38.538-2.915 16.242 8.28 25.322 23.01 20.28 32.9z" fill="none"/>
    </g>
    <g opacity=".5" style="display:block">
      <path stroke-linecap="round" stroke-linejoin="round" stroke="#FFF" stroke-width="3" d="M343.385 305.25c4.028-7.903 17.878-8.913 30.938-2.255" fill="none" opacity="1"/>
    </g>
    <path stroke="#C1890A" stroke-width="1.5" d="M-.001 4.177v-8.35" fill="none" transform="rotate(27.011 -513.31 877.447)" style="display:block"/>
    <path stroke="#C1890A" stroke-width="1.5" d="M-.001 4.031v-8.06" fill="none" transform="rotate(27.011 -520.468 890.923)" style="display:block"/>
    <path stroke="#C1890A" stroke-width="1.5" d="M-.001 4.313v-8.63" fill="none" transform="rotate(27.011 -531.592 949.031)" style="display:block"/>
    <path stroke="#C1890A" stroke-width="1.5" d="M-.001 4.177v-8.35" fill="none" transform="rotate(27.011 -502.113 865.573)" style="display:block"/>
    <g opacity=".43" style="display:block">
      <path fill="#FFF" d="m369.717 319.558-4.704-2.398 2.53-4.962 4.704 2.398c2.236 1.14 2.317 2.764 1.69 3.993-.626 1.23-1.984 2.109-4.22.969zm-11.617 5.696c1.238.631 2.555.45 3.1-.62l2.157-4.232 5.078 2.59c4.98 2.538 8.474.727 9.936-2.142 1.467-2.877.88-6.768-4.1-9.307l-7.02-3.579c-1.488-.758-2.904-.447-3.53.782l-6.95 13.631c-.544 1.07.082 2.241 1.329 2.877z" opacity="1"/>
    </g>
    <path fill="#C1890A" d="M.978-.569h-5.28v-5.57h5.28c2.51 0 3.32 1.41 3.32 2.79 0 1.38-.81 2.78-3.32 2.78zM-6.785 9.782c1.39 0 2.48-.76 2.48-1.96v-4.75h5.7c5.59 0 7.88-3.2 7.88-6.42 0-3.23-2.29-6.43-7.88-6.43h-7.88c-1.67 0-2.79.92-2.79 2.3v15.3c0 1.2 1.09 1.96 2.49 1.96z" transform="rotate(27.011 -479.28 926.019)" style="display:block"/>
    <g style="display:block">
      <path fill="#FDD300" d="m185.518 255.432-3.126 1.805c-8.906-3.565-23.129-2.86-35.824 4.47-12.696 7.33-20.41 19.29-21.784 28.79l-3.118 1.8 3.955 6.85.008-.005c.072.144.157.29.237.43 6.2 10.738 25.51 11.183 43.142 1.003s26.91-27.13 20.71-37.869c-.08-.138-.174-.28-.254-.419l.009-.005-3.955-6.85z"/>
      <path stroke="#C28909" stroke-width="2.2" d="m185.518 255.432-3.126 1.805c-8.906-3.565-23.129-2.86-35.824 4.47-12.696 7.33-20.41 19.29-21.784 28.79l-3.118 1.8 3.955 6.85.008-.005c.072.144.157.29.237.43 6.2 10.738 25.51 11.183 43.142 1.003s26.91-27.13 20.71-37.869c-.08-.138-.174-.28-.254-.419l.009-.005-3.955-6.85z" fill="none"/>
    </g>
    <path fill="#FDD300" d="M36.866-.002c0 12.4-16.51 22.44-36.87 22.44-5.36 0-10.46-.69-15.06-1.95-12.85-3.51-21.8-11.36-21.8-20.49 0-12.39 16.5-22.44 36.86-22.44s36.87 10.05 36.87 22.44" transform="rotate(-30 584.898 -148.885)" style="display:block"/>
    <g style="display:block">
      <path fill="#FDD300" d="M184.73 254.067c6.2 10.74-3.078 27.689-20.71 37.869-4.642 2.68-9.404 4.632-14.018 5.841-12.883 3.386-24.56 1.062-29.124-6.845-6.195-10.73 3.07-27.683 20.702-37.863s36.955-9.732 43.15.998z"/>
      <path stroke="#C28909" stroke-width="2.2" d="M184.73 254.067c6.2 10.74-3.078 27.689-20.71 37.869-4.642 2.68-9.404 4.632-14.018 5.841-12.883 3.386-24.56 1.062-29.124-6.845-6.195-10.73 3.07-27.683 20.702-37.863s36.955-9.732 43.15.998z" fill="none"/>
    </g>
    <g opacity=".5" style="display:block">
      <path stroke-linecap="round" stroke-linejoin="round" stroke="#FFF" stroke-width="3" d="M126.004 287.978c-4.955-8.583 2.522-22.172 16.699-30.357" fill="none" opacity="1"/>
    </g>
    <path stroke="#C1890A" stroke-width="1.5" d="M0 4.66v-9.32" fill="none" transform="rotate(-30 639.436 -123.79)" style="display:block"/>
    <path stroke="#C1890A" stroke-width="1.5" d="M0 4.501v-9" fill="none" transform="rotate(-30 639.295 -139.165)" style="display:block"/>
    <path stroke="#C1890A" stroke-width="1.5" d="M0 4.819v-9.64" fill="none" transform="rotate(-30 621.2 -195.968)" style="display:block"/>
    <path stroke="#C1890A" stroke-width="1.5" d="M0 4.66v-9.32" fill="none" transform="rotate(-30 635.232 -107.892)" style="display:block"/>
    <g opacity=".43" style="display:block">
      <path fill="#FFF" d="m155.418 272.006-5.11 2.95-3.11-5.386 5.11-2.95c2.425-1.4 3.998-.496 4.768.838.775 1.342.767 3.148-1.658 4.548zm-1.734 14.345c1.35-.78 1.974-2.121 1.304-3.282l-2.65-4.59 5.516-3.185c5.404-3.12 5.836-7.491 4.036-10.609-1.8-3.118-5.807-4.938-11.21-1.818l-7.622 4.4c-1.62.935-2.187 2.452-1.417 3.786l8.54 14.791c.67 1.16 2.152 1.287 3.503.507z" opacity="1"/>
    </g>
    <path fill="#C1890A" d="M1.096-.635h-5.9v-6.22h5.9c2.8 0 3.71 1.57 3.71 3.11 0 1.55-.91 3.11-3.71 3.11zm-8.674 11.556c1.56 0 2.77-.85 2.77-2.19v-5.3h6.37c6.24 0 8.8-3.57 8.8-7.17s-2.56-7.18-8.8-7.18h-8.8c-1.87 0-3.12 1.03-3.12 2.57v17.08c0 1.34 1.22 2.19 2.78 2.19z" transform="rotate(-30 585.946 -150.436)" style="display:block"/>
    <g opacity=".535" style="display:block">
      <path fill="#FD0" d="M85.622 318.307s-4.722-17.945-6.672-17.945c-1.96 0-6.682 17.945-6.682 17.945s-12.2 4.41-12.2 6.123c0 1.723 12.2 6.133 12.2 6.133S76.905 348.5 78.95 348.5c2.035 0 6.672-17.936 6.672-17.936s12.2-4.344 12.2-6.133c0-1.78-12.2-6.123-12.2-6.123" opacity="1"/>
    </g>
    <g opacity=".628" style="display:block">
      <path fill="#FD0" d="M54.972 355.083s-2.47-8.442-3.502-8.442c-1.022 0-3.502 8.442-3.502 8.442s-6.407 2.073-6.407 2.887c0 .804 6.407 2.887 6.407 2.887s2.433 8.442 3.502 8.442c1.07 0 3.502-8.442 3.502-8.442s6.408-2.045 6.408-2.887c0-.842-6.408-2.887-6.408-2.887" opacity="1"/>
    </g>
    <g opacity=".358" style="display:block">
      <path fill="#FD0" d="M462.803 306.508s-3.78-12.986-5.343-12.986c-1.573 0-5.353 12.986-5.353 12.986s-9.785 3.2-9.785 4.442 9.785 4.442 9.785 4.442 3.716 12.986 5.353 12.986c1.637 0 5.343-12.986 5.343-12.986s9.786-3.145 9.786-4.442c0-1.297-9.786-4.442-9.786-4.442" opacity="1"/>
    </g>
    <g opacity=".628" style="display:block">
      <path fill="#FD0" d="M238.959 247.379s-3.89-13.364-5.5-13.364c-1.618 0-5.508 13.364-5.508 13.364s-10.07 3.293-10.07 4.571c0 1.278 10.07 4.571 10.07 4.571s3.824 13.364 5.509 13.364c1.684 0 5.499-13.364 5.499-13.364s10.07-3.237 10.07-4.571c0-1.335-10.07-4.571-10.07-4.571" opacity="1"/>
    </g>
    <g opacity=".358" style="display:block">
      <path fill="#FD0" d="M118.825 171.367s-3.44-11.965-4.865-11.965c-1.426 0-4.865 11.965-4.865 11.965s-8.894 2.943-8.894 4.083c0 1.15 8.894 4.093 8.894 4.093s3.375 11.965 4.865 11.965c1.49 0 4.865-11.965 4.865-11.965s8.894-2.897 8.894-4.093c0-1.186-8.894-4.083-8.894-4.083" opacity="1"/>
    </g>
    <g style="display:block">
      <path fill="#FDD300" d="M223.637 114.96c5.717 21.337-6.947 43.272-28.285 48.99a39.84 39.84 0 0 1-16.693.87c-15.083-2.43-28.085-13.44-32.296-29.155-5.718-21.337 6.947-43.272 28.284-48.99 21.337-5.717 43.272 6.947 48.99 28.285z"/>
      <path stroke="#C28909" stroke-width="2.2" d="M223.637 114.96c5.717 21.337-6.947 43.272-28.285 48.99a39.84 39.84 0 0 1-16.693.87c-15.083-2.43-28.085-13.44-32.296-29.155-5.718-21.337 6.947-43.272 28.284-48.99 21.337-5.717 43.272 6.947 48.99 28.285z" fill="none"/>
    </g>
    <g style="display:block">
      <path fill="#FDD300" d="M222.637 112.96c5.717 21.337-6.947 43.272-28.284 48.99a39.84 39.84 0 0 1-16.694.87c-15.083-2.43-28.085-13.44-32.296-29.155-5.718-21.337 6.947-43.273 28.284-48.99 21.337-5.717 43.273 6.947 48.99 28.284z"/>
      <path stroke="#C28909" stroke-width="2.2" d="M222.637 112.96c5.717 21.337-6.947 43.272-28.284 48.99a39.84 39.84 0 0 1-16.694.87c-15.083-2.43-28.085-13.44-32.296-29.155-5.718-21.337 6.947-43.273 28.284-48.99 21.337-5.717 43.273 6.947 48.99 28.284z" fill="none"/>
    </g>
    <g opacity=".5" style="display:block">
      <path stroke-linecap="round" stroke-linejoin="round" stroke="#FFF" stroke-width="3" d="M151.158 132.112c-4.86-18.14 5.902-36.78 24.042-41.641" fill="none" opacity="1"/>
    </g>
    <g opacity=".43" style="display:block">
      <path d="M8.99-20.74h6.85c3.27 0 4.32 2.21 4.32 4.39 0 2.17-1.05 4.39-4.32 4.39H8.99v-8.78zm0 14.5h7.4c7.25 0 10.22-5.04 10.22-10.11 0-5.08-2.97-10.12-10.22-10.12H6.16c-2.17 0-3.62 1.45-3.62 3.63V1.23c0 1.89 1.41 3.08 3.22 3.08 1.82 0 3.23-1.19 3.23-3.08v-7.47z" transform="rotate(-15 602.775 -592.513)" opacity="1" fill="#FFF" style="display:inherit" font-size="36" font-family="Sandoll Gyeokdonggulim" font-weight="400" aria-label="P"/>
    </g>
    <g style="display:block">
      <path d="M8.99-20.74h6.85c3.27 0 4.32 2.21 4.32 4.39 0 2.17-1.05 4.39-4.32 4.39H8.99v-8.78zm0 14.5h7.4c7.25 0 10.22-5.04 10.22-10.11 0-5.08-2.97-10.12-10.22-10.12H6.16c-2.17 0-3.62 1.45-3.62 3.63V1.23c0 1.89 1.41 3.08 3.22 3.08 1.82 0 3.23-1.19 3.23-3.08v-7.47z" transform="rotate(-15 599.477 -588.215)" fill="#C28A0A" style="display:inherit" font-size="36" font-family="Sandoll Gyeokdonggulim" font-weight="400" aria-label="P"/>
    </g>
    <g style="display:block">
      <path fill="#DDAA6B" d="M215.878 182.602s8.117-10.322 8.153-24.822c.025-14.51-7.195-28.004 2.594-30.316 9.79-2.3 9.763 10.815 10.955 22.88 1.193 12.066.1 23.023-5.113 33.316"/>
      <path stroke="#C38D47" stroke-width="2.5" d="M215.878 182.602s8.117-10.322 8.153-24.822c.025-14.51-7.195-28.004 2.594-30.316 9.79-2.3 9.763 10.815 10.955 22.88 1.193 12.066.1 23.023-5.113 33.316" fill="none"/>
    </g>
    <g style="display:block">
      <path fill="#DDAA6B" d="M273.756 164.414s4.827-10.54 11.236-6.01c6.418 4.531-.036 19.515-8.852 19.868"/>
      <path stroke="#C38D47" stroke-width="2.5" d="M273.756 164.414s4.827-10.54 11.236-6.01c6.418 4.531-.036 19.515-8.852 19.868" fill="none"/>
    </g>
    <g style="display:block">
      <path fill="#DDAA6B" d="M274.21 190.285c9.215 4.774 11.948.031 13.96 3.629 2.01 3.608-20.133 18.653-32.372 7.186"/>
      <path stroke="#C38D47" stroke-width="2.5" d="M274.21 190.285c9.215 4.774 11.948.031 13.96 3.629 2.01 3.608-20.133 18.653-32.372 7.186" fill="none"/>
    </g>
    <g style="display:block">
      <path fill="#DDAA6B" d="M250.2 164.334c-17.45 12.96-35.61 26.59-39.31 8.31l-17.08 17.7s.46 1.22 1.53 3.08c-16.55-1.3-30.137-12.661-32.47-23.49-2.37-11-3.59-23.35-12.14-20.75-8.55 2.59-6.97 27.68 11.18 43.71 16.53 14.61 40.13 12.88 44.21 12.45 5.66 4.08 13.6 7.47 24.51 7.72 26.41.59 40.18-8.43 45.73-26.32 7.65-24.68-8.7-35.37-26.16-22.41"/>
      <path stroke="#C38D47" stroke-width="2.5" d="M250.2 164.334c-17.45 12.96-35.61 26.59-39.31 8.31l-17.08 17.7s.46 1.22 1.53 3.08c-16.55-1.3-30.137-12.661-32.47-23.49-2.37-11-3.59-23.35-12.14-20.75-8.55 2.59-6.97 27.68 11.18 43.71 16.53 14.61 40.13 12.88 44.21 12.45 5.66 4.08 13.6 7.47 24.51 7.72 26.41.59 40.18-8.43 45.73-26.32 7.65-24.68-8.7-35.37-26.16-22.41" fill="none"/>
    </g>
    <path fill="#221F1F" d="M-5.84-5.733s-.1-6.29 5.94-5.37c6.04.93 6.81 15.1 4.62 22.3" transform="translate(223.787 146.414)" style="display:block"/>
    <g style="display:block">
      <path fill="#DDAA6B" d="M200.385 194.736s-29.56 6.46-39.76-15.02c-11.75-27.53 9.23-46.41 27.2-49.63 31.03-7.97 64.98 27.46 31.05 56.25"/>
      <path stroke="#C38D47" stroke-width="2.5" d="M200.385 194.736s-29.56 6.46-39.76-15.02c-11.75-27.53 9.23-46.41 27.2-49.63 31.03-7.97 64.98 27.46 31.05 56.25" fill="none"/>
    </g>
    <path fill="#221F1F" d="M-1.583-15.53C.463-17.114 2.967-6.55 5.577.84c2.57 7.86 5.698 9.65 5.46 15.08-1.614 8.942-13.753 2.872-16.365-8.432C-7.844-3.404-7.1-11.259-1.583-15.53z" transform="translate(157.6 172.694)" style="display:block"/>
    <path fill="#FFF" d="M13.52 15.86C33.49-10.83 11.59-31.92-3.02-33.4c-14.61-1.48-15.63 6.73-15.63 6.73-23.03-.78-34.75 17.48-24.11 38.06C-32.13 31.96-5.22 25.33-2.71 26.48c6.13 2.8 15.89 9.37 29.49 6.3 13.59-3.07 23.05-16.12 18.99-26.67-4.08-10.52-12.35-1.72-21.39 3.13-7.5 4.24-10.92 6.61-10.92 6.61" transform="translate(210.16 165.88)" style="display:block"/>
    <g style="display:block">
      <path fill="#DDAA6B" d="M264.93 192.817s5.574-11.022-1.847-14.864c-8.335-4.317-10.9 12.97-10.9 12.97"/>
      <path stroke-linecap="round" stroke-linejoin="round" stroke="#C38D47" stroke-width="3" d="M264.93 192.817s5.574-11.022-1.847-14.864c-8.335-4.317-10.9 12.97-10.9 12.97" fill="none"/>
    </g>
    <path fill="#CA9957" d="M13.367.147c-2.82 8.22-10.84 14.88-17.43 15.4-6.6.51-10.9-5.69-9.91-14.49.99-8.81 8.02-16.61 16.37-16.63 8.36-.02 13.78 7.49 10.97 15.72" transform="translate(178.527 157.607)" style="display:block"/>
    <path fill="#CA9957" d="M-9.853 4.867c5.57 3.75 13.09 5.75 18.78 4.49 6.38-1.73 6.95-7.31 1.28-12.43-5.66-5.12-14.43-8.1-19.98-5.96-5.56 2.15-5.98 9.14-.08 13.9" transform="translate(210.647 142.034)" style="display:block"/>
    <path fill="#FFF" d="M-2.097 2.467s4.22 2.46 8.15.92c1.55-2.55-3.69-8.71-10.13-6.98l-2.25 1.07" transform="translate(202.86 148.847)" style="display:block"/>
    <path fill="#221F1F" d="M3.477-2.267c.8 1.76.62 3.62-2.09 5.02-2.71 1.39-4.19.39-4.99-1.37-.8-1.77.05-2.15 2.76-3.54 2.71-1.4 3.52-1.87 4.32-.11" transform="translate(197.06 146.164)" style="display:block"/>
    <path stroke-linecap="round" stroke-linejoin="round" stroke="#221F1F" stroke-width="3" d="M-.807 6.323s8.46-10.24 6.95-12.15c-1.5-1.92-12.47 2.33-12.47 2.33" fill="none" transform="matrix(.99594 0 0 .99016 180.497 155.117)" style="display:block"/>
    <path stroke-linecap="round" stroke-linejoin="round" stroke="#221F1F" stroke-width="3" d="M5.84 4.38S-4.8 2.49-5.76 1.05c-.96-1.44 7.04-5.43 7.04-5.43" fill="none" transform="matrix(.99669 0 0 .9919 208.195 140.572)" style="display:block"/>
    <path stroke-linecap="round" stroke-linejoin="round" stroke="#221F1F" stroke-width="2" d="M-6.327-2.92s3.67 5.27 6.78 5.74c3.11.48 5.87-.94 5.87-.94" fill="none" transform="translate(203.833 149.82)" style="display:block"/>
    <path stroke-linecap="round" stroke-linejoin="round" stroke="#221F1F" stroke-width="2" d="M2.88-7.3S6.44-.92 2.59 3.66C-1.25 8.23-4.38 7.2-4.38 7.2" fill="none" transform="translate(195.073 153.227)" style="display:block"/>
    <path fill="#D11" d="M-4.41-13.14c1.93 2.01 8.19 2.34 8.19 2.34S10.076-.496 2.706 1.924C-4.674 4.344-8.76-2.72-8.76-2.72c5.24-5.31 4.35-10.42 4.35-10.42" transform="rotate(.095 -126007.786 157578.2)" style="display:block"/>
    <path fill="#EE7B64" d="M6.043-2.573c.41 2.35-1.32.78-2.06 2.26-.5.79-1.23 1.39-2.27 1.71-.36.1-.71.17-1.06.21-3.25 0-4.65.3-6.98-3.13.83-1.31 2.58-3.01 5.96-2.64 0 0 2.36-2.64 5.2-.05.49.44.88 1.01 1.21 1.64" transform="matrix(1 0 0 1 203.926 163.784)" style="display:block"/>
    <path stroke-linecap="round" stroke-linejoin="round" stroke="#221F1F" stroke-width="2" d="M-4.41-13.14c1.93 2.01 8.19 2.34 8.19 2.34S9.84-.25 2.47 2.17C-4.91 4.59-8.76-2.72-8.76-2.72c5.24-5.31 4.35-10.42 4.35-10.42z" fill="none" transform="matrix(1 0 0 1 203.347 162.96)" style="display:block"/>
  </g>
</svg>
