<svg xmlns="http://www.w3.org/2000/svg" width="491" height="311" style="width:100%;height:100%;transform:translate3d(0,0,0)">
  <defs>
    <clipPath id="a">
      <path d="M0 0h491v311H0z"/>
    </clipPath>
    <clipPath id="b">
      <path d="M0 0h491v311H0z"/>
    </clipPath>
  </defs>
  <g clip-path="url(#a)">
    <g clip-path="url(#b)" transform="translate(0 8.938)" style="display:block">
      <g opacity=".5" style="display:block">
        <g opacity="1">
          <path fill="#EA7E48" d="M185.322 138.864c-2.127-.174-4.118-.75-5.75-1.665l-.726-.388c-1.361-.72-2.901-1.534-3.722-3.047l-.119-.218c-.117-.22-.264-.494-.337-.582 0 0-.105-.018-.254-.032-1.757-.165-2.299-.582-3.239-1.935-.968-1.383-1.942-2.253-3.594-3.216-.45-.183-.908-.359-1.352-.827a2.524 2.524 0 0 1-.17-.207 1.482 1.482 0 0 1-.12.017 7.043 7.043 0 0 1-.382.022c-.307 0-.639-.043-.957-.089-.128-.02-.249-.04-.363-.048-2.746-.221-4.202-2.015-5.371-3.92l-.242-.406c-.332-.561-.515-.873-.945-1.185l-.327-.235c-.545-.39-1.162-.83-1.7-1.456a9.276 9.276 0 0 1-.755-1.04c-.23-.35-.428-.656-.663-.861a10.901 10.901 0 0 0-.424-.347c-.487-.386-.99-.783-1.41-1.732-.447-1-.64-2.05-.83-3.068-.205-1.093-.395-2.13-.869-2.815-.677-.986-1.26-1.833-1.195-3.387.055-1.408.723-1.94 1.343-2.329.162-.1.279-.174.412-.312.132-.137.155-.255-.083-1.115-.25-.903-.592-2.136.184-3.435.733-1.224 2.262-3.763 5.29-3.763.168 0 .344.008.525.026.924.085 1.658.417 2.303.709.341.153.68.314 1.057.408l.131.03c.061-.028.128-.056.201-.087.098-.041.206-.115.318-.185.416-.258.988-.611 1.74-.61 1.131.003 3.165 1.141 6.054 3.38.336.104.654.161.897.161a.666.666 0 0 0 .242-.03c.293-.145.611-.417.95-.704.524-.446 1.118-.952 1.912-1.28.851-.346 1.67-.517 2.503-.517.361 0 .72.033 1.09.092.15.024.344.07.55.12.15.035.306.08.432.094.133-.142.451-.306.897-.38.231-.037.453-.054.66-.054.43 0 .78.07 1.058.124.172.032.307.059.405.059 1.256-.33 1.855-.443 3.038-.485.437-.015.854-.27 1.496-.683.691-.447 1.476-.95 2.533-1.13 1.16-.199 2.315-.204 3.431-.211.426-.002.666-.021.916-.04.345-.023.7-.05 1.05-.05.741 0 1.335.108 1.868.339 1.462.624 2.228 1.833 2.903 2.9.332.524.646 1.02.993 1.36.796.792 2.075 1.224 3.427 1.683 2.194.744 4.68 1.588 5.539 4.25.258.797.71 1.662 1.194 2.577.644 1.226 1.312 2.497 1.612 3.825.281 1.258.235 2.46.19 3.623-.053 1.392-.099 2.595.413 3.629 1.133 2.268-1.026 6.64-2.078 7.999-1.105 1.428-2.852 2.096-4.259 2.633-.277.105-.547.21-.803.317-1.28.53-1.915 1.837-2.649 3.354-.764 1.573-1.629 3.358-3.44 4.513-1.577 1.006-3.6 1.307-5.384 1.573l-1.032.159c-1.045.18-2.136.266-3.328.266-.945 0-1.901-.055-2.885-.136z"/>
          <path stroke="#A84420" stroke-width="3" d="M185.322 138.864c-2.127-.174-4.118-.75-5.75-1.665l-.726-.388c-1.361-.72-2.901-1.534-3.722-3.047l-.119-.218c-.117-.22-.264-.494-.337-.582 0 0-.105-.018-.254-.032-1.757-.165-2.299-.582-3.239-1.935-.968-1.383-1.942-2.253-3.594-3.216-.45-.183-.908-.359-1.352-.827a2.524 2.524 0 0 1-.17-.207 1.482 1.482 0 0 1-.12.017 7.043 7.043 0 0 1-.382.022c-.307 0-.639-.043-.957-.089-.128-.02-.249-.04-.363-.048-2.746-.221-4.202-2.015-5.371-3.92l-.242-.406c-.332-.561-.515-.873-.945-1.185l-.327-.235c-.545-.39-1.162-.83-1.7-1.456a9.276 9.276 0 0 1-.755-1.04c-.23-.35-.428-.656-.663-.861a10.901 10.901 0 0 0-.424-.347c-.487-.386-.99-.783-1.41-1.732-.447-1-.64-2.05-.83-3.068-.205-1.093-.395-2.13-.869-2.815-.677-.986-1.26-1.833-1.195-3.387.055-1.408.723-1.94 1.343-2.329.162-.1.279-.174.412-.312.132-.137.155-.255-.083-1.115-.25-.903-.592-2.136.184-3.435.733-1.224 2.262-3.763 5.29-3.763.168 0 .344.008.525.026.924.085 1.658.417 2.303.709.341.153.68.314 1.057.408l.131.03c.061-.028.128-.056.201-.087.098-.041.206-.115.318-.185.416-.258.988-.611 1.74-.61 1.131.003 3.165 1.141 6.054 3.38.336.104.654.161.897.161a.666.666 0 0 0 .242-.03c.293-.145.611-.417.95-.704.524-.446 1.118-.952 1.912-1.28.851-.346 1.67-.517 2.503-.517.361 0 .72.033 1.09.092.15.024.344.07.55.12.15.035.306.08.432.094.133-.142.451-.306.897-.38.231-.037.453-.054.66-.054.43 0 .78.07 1.058.124.172.032.307.059.405.059 1.256-.33 1.855-.443 3.038-.485.437-.015.854-.27 1.496-.683.691-.447 1.476-.95 2.533-1.13 1.16-.199 2.315-.204 3.431-.211.426-.002.666-.021.916-.04.345-.023.7-.05 1.05-.05.741 0 1.335.108 1.868.339 1.462.624 2.228 1.833 2.903 2.9.332.524.646 1.02.993 1.36.796.792 2.075 1.224 3.427 1.683 2.194.744 4.68 1.588 5.539 4.25.258.797.71 1.662 1.194 2.577.644 1.226 1.312 2.497 1.612 3.825.281 1.258.235 2.46.19 3.623-.053 1.392-.099 2.595.413 3.629 1.133 2.268-1.026 6.64-2.078 7.999-1.105 1.428-2.852 2.096-4.259 2.633-.277.105-.547.21-.803.317-1.28.53-1.915 1.837-2.649 3.354-.764 1.573-1.629 3.358-3.44 4.513-1.577 1.006-3.6 1.307-5.384 1.573l-1.032.159c-1.045.18-2.136.266-3.328.266-.945 0-1.901-.055-2.885-.136z" fill="none"/>
        </g>
        <path fill="#D23E0A" d="M193.106 118.816c1.004-.494 2.095-1.723 2.025-3.054-.084-1.673-1.773-1.212-2.848-2.306-2.452-2.505-1.533-9.247 2.012-10.244 1.437-.396 2.676.46 3.992.225 1.322-.238.633-.634 1.379-1.518.552-.655 1.075-.689 1.616-1.224.482-.029.993.04 1.472.196-1.831-.74-3.967-1.206-5.327-2.603-.507-.523-.895-1.194-1.299-1.853-.887-.781-1.687-1.566-2.539-1.695-.784-.117-3.82-.28-4.516.096-1.768.951-.084 2.273-.016 3.503.036.686-.977 2.518-1.791 2.732-1.168.31-3.275-1.319-4.566-.689-.816.395-1.77 2.894-1.175 3.7.586.781 2.762.394 3.79 1.23 1.14.918 1.341 2.097 1.43 3.512.125 1.927.786 4.017.633 5.931 3.303-.706 1.4 6.193 5.728 4.06z" opacity="1"/>
        <path fill="#E4BC88" d="m203.915 101.526.043-.07c-.18-.099-.367-.196-.558-.286.186.106.36.223.515.356z" opacity="1"/>
        <path fill="#D23E0A" d="M160.855 117.63c-.728-1.058-.911-1.672-.68-2.792.135-.656.151-1.695.25-1.641 1.112-.175 2.46.241 3.554.401.105 1.046.538 3.167 1.163 3.991.825 1.076 2.18.81 3.57.997-.094.67-.302 1.273-.336 1.98-.896.202-3.825-.344-2.061 1.391-.958.525-2.29.805-3.31 1.01-.302-2.138-.904-3.541-2.15-5.337zm29.969 20.12c1.862-.324 4.257-.511 5.86-1.555 2.043-1.34 2.663-3.839 3.815-5.806-.142-.14-.172-.27-.398-.307-.29 1.851-1.379 2.064-2.968 2.11-2.125.059-3.08-.566-3.717 1.56-1.765.564-3.797.891-5.7 1.461.692-1.98-1.706-3.124-3.29-3.485-.049-1.398 2.333-2.729 1.612-4.274-.728-1.57-2.48-.473-3.485-.444-1.036.031-2.439-.773-2.95-1.832-.81-1.678.93-3.58-.025-5.211-.728.377-3.501.367-4.29-.092-.892-.517-1.746-2.977-1.123-3.857.522-.74 3.65-.907 4.617-1.196 1.431-.426 2.883-.979 4.4-.764.708-1.134-.473-3.268-1.739-3.408-.955-.111-2.103 1.163-2.915 1.459-5.153 1.872-2.279-4.801-5.514-5.37-1.944-.343-2.786 1.53-3.003 2.914-.296 1.868-.932 1.776-2.886 1.496-2.766-.394-6.342-4.948-2.05-6.149 1.012-.282 1.923.29 2.772-.634.614-.667.41-1.618.717-2.404-.226-.02-.533-.13-.755-.116.666-1.053 1.855-.685 2.938-.986 1.275-.348 2.25-1.417 3.549-1.632.426-.902.216-1.442-.295-1.771a6.11 6.11 0 0 0-.898.293c-1.071.452-1.786 1.499-2.764 1.993-.733.37-1.788.15-2.572-.144 0 0-4.112-3.29-5.315-3.302-.483 0-.964.475-1.468.695-.714.31-.444.356-1.303.138-1.108-.284-1.969-1-3.137-1.113-2.17-.21-3.401 1.443-4.376 3.113-1.001 1.711 1.085 3.453-.298 4.932-.755.811-1.315.543-1.365 1.784-.048 1.162.347 1.715.954 2.618 1.136 1.697.957 4.27 1.823 6.267.371.863.742.979 1.473 1.629.661.593.966 1.395 1.564 2.105.52.616 1.149 1.029 1.779 1.497.809.6 1.076 1.225 1.57 2.056 1.04 1.738 2.163 3.141 4.215 3.307.43.033.964.174 1.392.125.392-.047.72-.45 1.106-.31.579.21.163.628.473.968.35.375.648.364 1.031.592 1.724 1.028 2.9 2.032 4.064 3.739.745 1.094.898 1.219 2.151 1.342 1.168.114 1.324.574 1.885 1.63.739 1.403 2.431 2.113 3.883 2.942 1.535.876 3.323 1.36 5.128 1.515 2.013.168 3.888.222 5.828-.118z" opacity="1"/>
      </g>
      <g opacity=".6" style="display:block">
        <path fill="#EA7E48" d="M385.546 165.978c-2.2-.076-4.086-1.931-4.641-4.615-.003.003-.004.003-.01.003-.068 0-.403-.188-.628-.315a10.14 10.14 0 0 1-.757-.457c-.638-.395-2.074-1.29-2.267-3.152-.041-.428-.175-.88-.3-1.34-.202-.728-.425-1.55-.442-2.392-.015-.796.149-1.508.291-2.133.144-.623.267-1.163.168-1.56-.488-1.952 1.64-4.446 2.08-4.854.868-.809 1.97-1.024 2.776-1.18l.407-.083c.36-.082.672-.502 1.153-1.18.573-.805 1.284-1.807 2.512-2.331.804-.344 1.655-.39 2.303-.39.294 0 1.376.039 1.376.039 1.233.019 2.312.284 3.293.566a8.027 8.027 0 0 1 3.072 1.617c.72.487 1.154 1.167 1.506 1.724.17.266.346.544.48.672.546.442 1.051 1.152 1.5 1.78.182.258.448.632.607.805 2.084.668 3.355 1.825 3.785 3.449 1.897 5.097-.231 11.209-5.002 14.063a3.058 3.058 0 0 1-1.626.465c-1.06 0-1.927-.536-2.623-.972-.085-.05-.172-.103-.255-.155-.284.366-.687.811-1.316 1.048-.907.305-1.713.374-2.494.439-.407.034-.817.066-1.235.142-1 .16-1.973.319-3.033.319-.226 0-.45-.007-.68-.022z" opacity="1"/>
        <path stroke="#A84420" stroke-width="2" d="M385.546 165.978c-2.2-.076-4.086-1.931-4.641-4.615-.003.003-.004.003-.01.003-.068 0-.403-.188-.628-.315a10.14 10.14 0 0 1-.757-.457c-.638-.395-2.074-1.29-2.267-3.152-.041-.428-.175-.88-.3-1.34-.202-.728-.426-1.55-.443-2.392-.015-.796.149-1.508.291-2.133.144-.623.267-1.163.168-1.56-.488-1.952 1.64-4.446 2.08-4.854.868-.809 1.971-1.024 2.777-1.18l.406-.083c.36-.082.673-.502 1.154-1.18.573-.805 1.284-1.807 2.512-2.331.804-.344 1.654-.39 2.302-.39.294 0 1.377.039 1.377.039 1.233.019 2.312.284 3.293.566a8.027 8.027 0 0 1 3.072 1.617c.72.487 1.153 1.167 1.505 1.724.17.266.347.544.481.672.546.442 1.051 1.152 1.5 1.78.182.258.448.632.607.805 2.084.668 3.355 1.825 3.785 3.449 1.897 5.097-.232 11.209-5.003 14.063a3.054 3.054 0 0 1-1.625.465c-1.06 0-1.927-.536-2.623-.972-.085-.05-.173-.103-.256-.155-.284.366-.686.811-1.315 1.048-.907.305-1.713.374-2.494.439-.407.034-.817.066-1.235.142-1 .16-1.974.319-3.034.319-.226 0-.45-.007-.679-.022z" fill="none" opacity="1"/>
        <path fill="#C7481C" d="M383.913 163.01c.687.534 1.767 1.435 2.55.73.66-.563.155-1.717.705-2.485.647-.823 1.533.19 2.295.153.602-.077 1.24-1.157.976-1.401-.953-.897-1.338-1.958-1.441-3.07-.101-1.108.083-2.265.275-3.371-1.604.116.01-3.176-2.286-2.466-.619.33-1.613.89-1.207 1.51.463.722 1.128 1.334 1.29 2.22.146 1.558-.231 3.468-1.907 4.08-1.001.3-1.84-.866-2.536-.476-.54.433-1.322 1.133-2.127.732" opacity="1"/>
        <path fill="#C7481C" d="M401.5 155.752c-.405.469-1.125.156-1.642.024.309-.974.41-1.91.216-2.554-.202-.642-.693-1.01-1.574-.845.364-1.08.974-1.514 1.815-1.271.2-1.19 1.252-.975 2.164-1.104-.295 1.102-.291 1.899-.061 2.99.326 1.015-.39 2.186-.918 2.76zm-16.787-14.264c-.42.547-.784 1.152-1.212 1.67.063.1.066.183.185.227.363-1.056.986-1.06 1.87-.91.655.165 1.299.558 1.71.087 1.04-1.065 2.646-.388 3.86-.714-.024.091-.164.245-.185.339.283 1.363 2.121 2.214.525 3.398-.39.485-.633.952.092 1.218.463.187 1.138.217 1.695.382.552.167.987.47.97 1.204-.047.87-1.262 1.888-.553 2.395.616.481 2.437.04 1.949 1.467-.538 1.61-2.322 1.966-3.834 2.01-.95.01-1.742.854-1.071 1.842.184.349.619.48.957.286.646-.297 1.762-1.639 2.297-.495.347.793-.446 1.641-.101 2.435.37.702 1.218.361 1.565-.222.234-.518.436-1.175.739-1.685.306-.51.715-.882 1.358-.839.893.17 1.339 1.287 1.09 2.2-.335.877-1.158 1.32-1.89 1.807-.731.484-1.37 1.007-1.323 2.052.086.023.11-.066.198-.044-.052.184-.014.388-.233.524-.594.27-1.339.587-1.885 1.043-.546.45-.89 1.037-.687 1.836.403-.275.678-.684.978-1.049.36-.423.913-1.045 1.207-.759 1.041 1.003 2.195 1.94 3.658 1.393 3.332-1.172 4.063-4.888 5.055-7.948.21-.66.416-1.297.638-1.873.431-1.25-.028-2.664-.88-3.8a10.031 10.031 0 0 0-1.17-1.316c-.862-.83-1.862-1.57-2.802-2.245-.625-.48-.974-1.276-1.43-2.004-.06-.116-.462-.04-.522-.159-1.416-2.388-3.378-4.849-6.245-4.962a9.767 9.767 0 0 0-1.62-.207c-1.703-.06-3.956-.437-4.953 1.416z" opacity="1"/>
      </g>
      <g opacity=".7" style="display:block">
        <path fill="#6F4A4A" d="M387.01 119.037c-2.42 3.444-14.33 16.256-32.87 3.297-17.796-12.437-11.298-27.443-8.135-31.951 3.163-4.51 14.648-1.376 25.969 6.534 11.32 7.913 18.196 17.61 15.035 22.12z" opacity="1"/>
        <path stroke-linecap="round" stroke-linejoin="round" stroke="#442323" stroke-width="3" d="M387.01 119.037c-2.42 3.444-14.33 16.256-32.87 3.297-17.796-12.437-11.298-27.443-8.135-31.951 3.163-4.51 14.648-1.377 25.969 6.533 11.32 7.913 18.196 17.611 15.035 22.12z" fill="none" opacity="1"/>
        <path fill="#6F4A4A" d="M423.155 103.206c-5.323 7.614-30.775 36.467-64.347 12.914-32.224-22.609-16.854-55.038-9.893-65.003 6.966-9.965 28.66-5.563 49.159 8.823 20.499 14.382 32.045 33.3 25.08 43.266z" opacity="1"/>
        <path stroke-linecap="round" stroke-linejoin="round" stroke="#442323" stroke-width="3" d="M423.155 103.206c-5.323 7.614-30.775 36.467-64.347 12.914-32.224-22.609-16.854-55.038-9.893-65.003 6.966-9.965 28.66-5.563 49.159 8.823 20.499 14.382 32.045 33.3 25.08 43.266z" fill="none" opacity="1"/>
        <path fill="#6F4A4A" d="M423.313 102.826c-6.906 9.825-28.579 5.37-49.113-8.954-20.529-14.32-32.141-33.089-25.236-42.916 6.908-9.825 28.584-5.371 49.113 8.954 20.53 14.321 32.142 33.09 25.236 42.916z" opacity="1"/>
        <path stroke-linecap="round" stroke-linejoin="round" stroke="#442323" stroke-width="2.171" d="M423.314 102.826c-6.906 9.825-28.579 5.37-49.113-8.953-20.529-14.321-32.141-33.09-25.236-42.917 6.908-9.825 28.584-5.371 49.113 8.954 20.53 14.321 32.142 33.09 25.236 42.916z" fill="none" opacity="1"/>
        <path fill="#FFE185" d="M414.393 106.009c-4.548 6.531-22.527.97-40.613-11.76-18.09-12.727-29.437-27.802-24.885-34.333 4.548-6.529 19.882-7.184 42.651 8.837 22.769 16.025 27.4 30.727 22.847 37.256z" opacity="1"/>
        <path stroke-linecap="round" stroke-linejoin="round" stroke="#B16B4D" stroke-width="1.737" d="M349.134 67.815s13.539-12.197 37.676-1.518M352.343 74.417s12.987-12.73 43.505-1.81M356.493 79.486s22.554-10.948 49.499 2.217" fill="none" opacity="1"/>
        <path stroke-linecap="round" stroke-linejoin="round" stroke="#B16B4D" stroke-width="1.737" d="M367.36 76.242s5.399 7.117 4.954 17.06M376.53 75.246s5.77 13.243 1.901 22.162M384.393 76.487s6.915 12.047 2.514 25.221" fill="none" opacity="1"/>
        <path stroke-linecap="round" stroke-linejoin="round" stroke="#B16B4D" stroke-width="1.737" d="M393.985 77.227s.646 6.235-5.66 13.65M402.168 79.979s.059 8.55-12.897 18.36M392.407 104.558s10.213-3.089 15.79-20.367M400.625 99.465s2.47 2.305 3.25 9.072" fill="none" opacity="1"/>
        <path stroke-linecap="round" stroke-linejoin="round" stroke="#B16B4D" stroke-width="1.737" d="M405.264 92.864s5.362 8.964 5.57 15.65" fill="none" opacity="1"/>
        <path stroke-linecap="round" stroke-linejoin="round" stroke="#442323" stroke-width="3" d="M414.393 106.009c-4.548 6.531-22.527.97-40.613-11.76-18.09-12.727-29.437-27.802-24.885-34.333 4.548-6.529 19.882-7.184 42.651 8.837 22.769 16.025 27.4 30.727 22.847 37.256z" fill="none" opacity="1"/>
        <g opacity="1">
          <path fill="#A1CC44" d="M390.875 73.121c.06 2.531-4.18 3.507-9.428 3.69-5.259.181-9.532-.498-9.595-3.03-.06-2.53 4.18-3.507 9.432-3.69 5.256-.182 9.53.5 9.59 3.03z"/>
          <path stroke-linecap="round" stroke-linejoin="round" stroke="#8BA825" stroke-width="2" d="M390.875 73.121c.06 2.531-4.18 3.507-9.428 3.69-5.259.181-9.532-.498-9.595-3.03-.06-2.53 4.18-3.507 9.432-3.69 5.256-.182 9.53.5 9.59 3.03z" fill="none"/>
        </g>
        <g opacity="1">
          <path fill="#DF523A" d="M398.37 83.038c-.599 2.342-5.015 1.959-10.214.538-5.205-1.422-9.225-3.343-8.632-5.69.6-2.346 5.01-1.96 10.217-.54 5.2 1.424 9.221 3.344 8.628 5.692z"/>
          <path stroke-linecap="round" stroke-linejoin="round" stroke="#9F1C17" stroke-width="2" d="M398.37 83.038c-.599 2.342-5.015 1.959-10.214.538-5.205-1.422-9.225-3.343-8.632-5.69.6-2.346 5.01-1.96 10.217-.54 5.2 1.424 9.221 3.344 8.628 5.692z" fill="none"/>
        </g>
      </g>
      <g style="display:block">
        <path fill="#F4A96C" d="M192.057 74.77c-8.038-1.982-10.034-3.686-10.507-4.526-1.03-1.78-4.36-7.87-3.566-10.836.717-2.658 5.374-6.432 25.78-16.224 15.474-7.422 25.47-10.826 30.563-10.4.408.033.785.09 1.132.17 5.073 1.169 10.684 10.807 10.707 14.355.028 4.424-13.438 17.125-26.049 23.113-9.572 4.549-15.35 6.054-21.316 5.556-1.929-.16-4.007-.534-6.744-1.208z"/>
        <path stroke="#9C4129" stroke-width="3" d="M192.057 74.77c-8.038-1.982-10.034-3.686-10.507-4.526-1.03-1.78-4.36-7.87-3.566-10.836.717-2.658 5.374-6.432 25.78-16.224 15.474-7.422 25.47-10.826 30.563-10.4.408.033.785.09 1.132.17 5.073 1.169 10.684 10.807 10.707 14.355.028 4.424-13.438 17.125-26.049 23.113-9.572 4.549-15.35 6.054-21.316 5.556-1.929-.16-4.007-.534-6.744-1.208z" fill="none"/>
        <path fill="#FFD593" d="M224.81 38.063s-5.402 1.337-20.075 8.308c-14.671 6.974-15.675 8.43-15.675 8.43-3.485 1.826-1.777 6.032 1.175 6.334 4.386.45 7.52-2.147 11.584-.08 2.677 1.36 3.503 2.172 7.467.5 3.047-1.287 4.26-3.265 6.853-5.306 4.538-3.567 12.13-4.04 15.249-9.196 3.127-5.168-1.505-9.103-6.577-8.99z"/>
        <path fill="#C45539" d="M244.778 47.16c.4-1.98-1.067-6.02-4.02-8.824.727 1.881 1.035 3.465.768 5.155-5.938 9.214-10.705 5.49-23.748 16.258-5.318 3.82-10.279 5.341-14.085 6.428-3.337.995-5.743.639-8.145.013-1.363-.248-2.466-1.24-4.346-1.868-1.88-.62-3.658-.45-5.472-.566-2.952-.176-5.428-.777-6.27-4.371l-.219.043c-.157.248-.27.483-.33.699-.702 2.63 3.43 9.795 3.43 9.795s.928 1.7 9.348 3.84c8.881 2.14 14.04 2.087 27.34-4.3 13.41-6.4 25.365-18.863 25.75-22.302z"/>
        <path fill="#FFF" d="M195.42 54.12c-.028-.888-.816-1.708-1.717-1.626-1.947.172-3.285 1.668-4.275 3.265-.485.783-.079 1.878.673 2.291.839.462 1.765.085 2.249-.692.25-.406.535-.756.893-1.118.142-.143.211-.176.43-.314-.197.124.488-.078.146-.05.903-.077 1.632-.8 1.602-1.755zM188.96 59.11l-.158.006c-1.226.052-1.162 2.026.062 1.976l.161-.009c1.226-.047 1.16-2.023-.065-1.973zM225.586 41.093l-.16.005c-1.224.054-1.161 2.028.061 1.977l.16-.009c1.229-.048 1.164-2.023-.06-1.973zM222.393 47.509c-1.846 3.41-5.406 5.478-8.744 7.172-2.47 1.255-1.272 4.436 1.164 3.188 4.483-2.294 8.471-5.158 10.991-9.658 1.347-2.401-2.129-3.069-3.411-.702z"/>
      </g>
      <g style="display:block">
        <path fill="#FFF" d="M457.957 250.493c6.526-4.295 10.765-10.916 9.087-19.81-1.98-10.442-9.285-18.236-13.233-27.752-2.94-7.085-6.285-14.485-14.362-16.767-9.983-2.818-18.287 6.88-22.949 14.307-6.681 10.637-10.321 27.802-4.376 39.343 6.03 11.702 20.772 18.312 33.278 15.71 4.478-.933 8.881-2.612 12.555-5.031z"/>
        <path stroke="#D5C6C6" stroke-width="3" d="M457.957 250.493c6.526-4.295 10.764-10.915 9.086-19.808-1.98-10.443-9.284-18.237-13.232-27.753-2.94-7.085-6.285-14.486-14.362-16.768-9.983-2.818-18.288 6.88-22.95 14.307-6.681 10.637-10.322 27.803-4.376 39.344 6.03 11.702 20.773 18.31 33.28 15.709 4.477-.933 8.88-2.612 12.554-5.031z" fill="none"/>
        <path fill="#FFD769" d="M440.978 213.202c5.468 1.16 9.358 7.722 7.88 14.488-1.477 6.769-7.753 11.18-13.222 10.021-5.472-1.159-8.71-7.586-7.234-14.354 1.473-6.77 7.105-11.314 12.576-10.155z"/>
        <path stroke="#F8BB39" stroke-width="3" d="M440.978 213.202c5.468 1.16 9.358 7.722 7.88 14.488-1.477 6.769-7.753 11.18-13.222 10.021-5.472-1.159-8.71-7.586-7.234-14.354 1.473-6.77 7.105-11.314 12.576-10.155z" fill="none"/>
        <path fill="#FFF" d="M439.871 218.267c.081-.15.182-.297.313-.43.751-.762 2.021-.83 2.87-.144.231.188 2.275 1.926 2.337 4.762.026 1.051-.88 1.906-2.015 1.912-1.138.006-2.081-.841-2.102-1.886-.025-1.17-.897-1.937-.937-1.97-.682-.592-.853-1.51-.466-2.244z"/>
        <g>
          <path fill="#FFF" d="M443.24 230.187a2.46 2.46 0 0 0 1.666-2.762 2.424 2.424 0 0 0-.078-.354l-.002-.007c-.003-.003-.002-.008-.005-.008a2.43 2.43 0 0 0-.175-.403l-.024-.04c-.028-.049-.053-.096-.085-.144-.038-.055-.076-.116-.12-.172a2.156 2.156 0 0 0-.615-.566 2.516 2.516 0 0 0-1.514-.42 2.49 2.49 0 0 0-1.694.801c-.118.175-.242.351-.367.526-.21.403-.3.833-.275 1.287l-.003.043c-.054.75.622 1.788 1.327 2.049.018.004.03.009.04.016.21.072.418.15.628.225.44.09.872.07 1.297-.07z"/>
        </g>
      </g>
      <g style="display:block">
        <path fill="#FFE23D" d="M152.478 28.227c-.693-.77-4.35-1.1-9.315-.119-3.802.752-8.134 2.009-11.2 3.48-9.33 4.476-15.748 12.523-16.6 14.471-.458 1.046-.467 2.18-.113 3.31.338 1.077 1.02 2.153 1.886 3.085.977 1.052 2.177 1.916 3.282 2.415 1.496.674 2.797.623 3.63.134.168-.099.534-.44 1.045-1.097 1.316-1.694 4.754-6.106 12.296-9.96 4.718-2.412 8.665-2.915 11.403-3.271 2.373-.31 3.937-.688 4.741-1.461 1.026-.992 1.495-3.034 1.204-5.332-.275-2.178-1.164-4.442-2.26-5.655z"/>
        <path stroke="#E19F34" stroke-width="3" d="M152.478 28.227c-.693-.77-4.35-1.1-9.315-.119-3.802.752-8.134 2.009-11.2 3.48-9.33 4.476-15.748 12.523-16.6 14.471-.458 1.046-.467 2.18-.113 3.31.338 1.077 1.02 2.153 1.886 3.085.977 1.052 2.177 1.916 3.282 2.415 1.496.674 2.797.623 3.63.134.168-.099.534-.44 1.045-1.097 1.316-1.694 4.754-6.106 12.296-9.96 4.718-2.412 8.665-2.915 11.403-3.271 2.373-.31 3.937-.688 4.741-1.461 1.026-.992 1.495-3.034 1.204-5.332-.275-2.178-1.164-4.442-2.26-5.655z" fill="none"/>
        <path fill="#E8AC34" d="M123.193 53.714c.576-.33 3.787-6.054 13.538-10.908 8.26-4.11 14.268-2.838 15.93-4.398.678-.644.91-1.909.824-3.312-1.15-1.94-5.105-1.461-13.872.856-11.46 3.029-17.79 14.65-17.79 14.65l-.323 3.123c.672.207 1.275.228 1.693-.01z"/>
        <g>
          <path fill="#FFCC3A" d="M124.592 48.09c3.128-6.415 12.073-11.157 12.073-11.157-7.167 2.256-11.378 7.75-13.11 10.165a1.318 1.318 0 0 0-.403-.114c-2.112-.223-6.41-.054-6.41-.054-1.471 3.162 4.158 7.501 6.418 6.903.1-.039.201-.074.293-.112.19-.105.677-.782 1.573-1.8.413-1.258.175-2.805-.434-3.832z"/>
        </g>
      </g>
      <g style="display:block">
        <path fill="#FFE23D" d="M268.03 100.496c-4.5 1.705-8.162 2.17-8.989 1.659-1.356-.835-2.719-2.614-3.46-4.44-.828-2.041-.75-3.962.096-5.058.622-.803 2.08-1.432 4.329-2.136 2.61-.818 6.377-1.986 10.497-4.915 8.558-6.088 16.977-17.961 17.754-19.052 1.019-.943 2.256-1.212 3.793-.935 1.172.21 2.512.712 3.675 1.41 1.059.634 1.963 1.433 2.528 2.292.639.974.874 2.03.622 3.09-.888 3.74-9.134 15.277-20.638 23.051-2.685 1.815-6.652 3.687-10.207 5.034z"/>
        <path stroke="#E19F34" stroke-width="3" d="M268.03 100.496c-4.5 1.705-8.162 2.17-8.989 1.659-1.356-.835-2.719-2.614-3.46-4.44-.828-2.041-.75-3.962.096-5.058.622-.803 2.08-1.432 4.329-2.136 2.61-.818 6.377-1.986 10.497-4.915 8.558-6.088 16.977-17.961 17.754-19.052 1.019-.943 2.256-1.212 3.793-.935 1.172.21 2.512.712 3.675 1.41 1.059.634 1.963 1.433 2.528 2.292.639.974.874 2.03.622 3.09-.888 3.74-9.134 15.277-20.638 23.051-2.685 1.815-6.652 3.687-10.207 5.034z" fill="none"/>
        <path fill="#E8AC34" d="M290.545 64.017c.745-.58-9.265 15.038-18.677 21.514-7.326 5.041-13.686 6.329-15 7.969-.54.676-.487 1.799-.096 2.982 1.57 1.441 5.405.3 13.626-3.301 14.459-6.335 23.53-23.525 24.319-24.822l-2.604-1.255c-.72-.053 3.739 4.047 3.377 4.327"/>
        <path fill="#FFCC3A" d="M289.397 67.535c-.121 1.169.228 4.12 1.053 4.902-2.33 8.75-13.861 16.524-17.472 19.449 10.164-5.084 16.833-14.868 18.71-18.775.144.024.28.038.42.024 2.125-.19 6.307-1.118 6.307-1.118.74-3.018-4.497-6.48-6.585-5.55-.085.05-.395-1.186-.473-1.137-.165.125-1.215-1.09-1.87-.041l.081-.56"/>
      </g>
      <g style="display:block">
        <path stroke="#9C251F" stroke-width="3" d="m74.134 195.187-36.367 22.655c5.479 6.438 29.155 34.215 31.299 35.993 1.036.864 3.02.855 5.396.334 2.63-.577 5.765-1.892 9.065-4.002 3.256-2.082 5.708-4.335 7.323-6.458 1.538-2.021 2.372-3.891 2.106-5.256-.248-1.262-15.364-35.454-18.822-43.266z" fill="none"/>
        <path fill="#B83C34" d="M77.165 205.117c-1.96-4.773-3.335-8.116-3.335-8.116L40.497 219.32s9.018 9.8 14.962 17.244c0 0 17.107-8.116 23.351-27.26M69.308 252.135c1.222 2.076 7.531.93 13.644-3.056 6.112-3.985 9.44-9.005 8.487-11.381-.108-.572-4.116-9.081-7.885-17.876-5.032 9.948-11.845 17.874-22.057 23.443 3.965 4.653 7.137 8.302 7.811 8.87z"/>
        <path fill="#352C2C" d="M73.973 191.943c2.508 4.002-4.182 12.866-14.938 19.802-10.753 6.934-21.503 9.31-24.011 5.312-2.506-4.002 4.18-12.868 14.938-19.803 10.754-6.934 21.504-9.312 24.011-5.311z"/>
        <path stroke-linecap="round" stroke-linejoin="round" stroke="#000" stroke-width="2.171" d="M73.973 191.943c2.508 4.002-4.182 12.866-14.938 19.802-10.753 6.934-21.503 9.31-24.011 5.312-2.506-4.002 4.18-12.868 14.938-19.803 10.754-6.934 21.504-9.312 24.011-5.311z" fill="none"/>
        <path fill="#221C1C" d="M71.104 197.474c1.88 3.035-3.137 9.761-11.203 15.021-8.066 5.263-16.131 7.066-18.008 4.031-1.88-3.035 3.136-9.762 11.2-15.023 8.069-5.26 16.132-7.064 18.011-4.03z"/>
        <path fill="#FFF" d="M59.312 175.947c4.304 2.592 2.062 14.214-5.006 25.959-7.072 11.745-16.291 19.167-20.6 16.577-4.303-2.597-8.208-4.95-8.208-4.95L51.098 171l8.214 4.947z"/>
        <path stroke-linecap="round" stroke-linejoin="round" stroke="#C4C4C4" stroke-width="1.737" d="M59.312 175.947c4.304 2.592 2.062 14.214-5.006 25.959-7.072 11.745-16.291 19.167-20.6 16.577-4.303-2.597-8.208-4.95-8.208-4.95L51.098 171l8.214 4.947z" fill="none"/>
        <path fill="#FFF" d="M51.311 171.52c4.305 2.62 2.066 14.357-5.007 26.22-7.079 11.86-16.306 19.354-20.617 16.736-4.305-2.619-2.063-14.357 5.01-26.22 7.075-11.86 16.303-19.355 20.614-16.735z"/>
        <path stroke-linecap="round" stroke-linejoin="round" stroke="#C4C4C4" stroke-width="1.737" d="M51.311 171.52c4.305 2.62 2.066 14.357-5.007 26.22-7.079 11.86-16.306 19.354-20.617 16.736-4.305-2.619-2.063-14.357 5.01-26.22 7.075-11.86 16.303-19.355 20.614-16.735z" fill="none"/>
        <path fill="#DCDCDC" d="M30.682 205.854c1.4-.255 5.688-4.024 10.196-11.437 4.509-7.412 5.862-12.93 5.44-14.276-1.4.258-5.69 4.028-10.196 11.44-4.506 7.41-5.87 12.928-5.44 14.273zm12.91-9.818c-3.523 5.795-10.563 14.97-14.586 12.57-4.015-2.396.875-12.848 4.4-18.646 3.528-5.797 10.562-14.967 14.583-12.57 4.02 2.398-.87 12.847-4.397 18.646z"/>
        <path fill="#352C2C" d="M39.185 193.643c-1.136 1.333-2.047 2.142-3.367.988l-16.272-14.824a3.19 3.19 0 0 1-1.091-2.285l-.95-10.014c-.073-1.762 1.279-3.25 3.02-3.322 1.74-.074 3.212 1.294 3.285 3.055l.891 8.633 15.235 13.924c1.183 1.029.342 2.095-.435 3.403a3.391 3.391 0 0 1-.316.442zM60.042 193.415c-6.187-10.9.599-52.854 17.141-52.224 17.138.654 5.717 27.85 1.701 35.601 3.405-1.559 8.848 2.639 8.898 6.223.107 7.503-12.067 11.977-17.455 13.805"/>
        <path stroke-linecap="round" stroke-linejoin="round" stroke="#221C1C" stroke-width="1.303" d="M60.042 193.415c-6.187-10.9.599-52.854 17.141-52.224 17.138.654 5.717 27.85 1.701 35.601 3.405-1.559 8.848 2.639 8.898 6.223.107 7.503-12.067 11.977-17.455 13.805" fill="none"/>
        <path fill="#221C1C" d="M82.392 182.98c-1.39-3.379-4.495-1.337-5.987-2.61-1.694-1.453-1.012-4.745-1.197-7.183-.28-5.13.673-9.216 1.386-14.256.277-1.981.952-5.062-.476-6.485-1.469-1.465-3.577 1.047-4.602 2.306-5.725 7.031-9.18 17.955-10.016 27.846.538 9.451 2.622 11.247 6.222 11.4 3.597.153 16.06-7.642 14.67-11.019z"/>
        <path fill="#352C2C" d="M72.543 135c-.77 0-1.545-.2-2.303-.597-2.12-1.115-3.43-3.29-3.692-6.127-.32-3.487 1.06-7.189 3.36-9.001 1.055-.833 2.3-1.274 3.595-1.274.916 0 1.842.228 2.675.658a6.511 6.511 0 0 1 2.166 1.822c1.868 2.428 1.256 7.04-.267 10.148-1.362 2.778-3.377 4.372-5.534 4.372z"/>
        <path fill="#221C1C" d="M74.03 117c-1.629 0-3.187.546-4.507 1.578-2.747 2.144-4.343 6.314-3.966 10.371.306 3.31 1.948 5.968 4.5 7.297.965.5 1.963.755 2.965.755 2.73 0 5.232-1.894 6.864-5.198 1.798-3.633 2.426-8.84.154-11.769a7.965 7.965 0 0 0-2.67-2.221 7.37 7.37 0 0 0-3.34-.812zm0 2.382c.774 0 1.544.188 2.252.55.698.355 1.34.881 1.864 1.557 2.594 3.344-.353 13.133-5.124 13.133-.592 0-1.212-.152-1.854-.486-4.764-2.477-3.885-10.782-.163-13.69a4.874 4.874 0 0 1 3.024-1.064z"/>
        <path fill="#352C2C" d="M94.514 108.002c-.847 0-1.622-.321-2.184-.905-1.16-1.425-1.079-3.625.122-5.08a5.665 5.665 0 0 1 1.05-1.007c.882-.638 1.82-.976 2.786-1.003a6.71 6.71 0 0 1 .198-.005c1.073 0 2.004.413 2.552 1.132.59.868.614 2.007.106 3.18-.411.94-1.086 1.84-1.82 2.423-.777.805-1.796 1.265-2.81 1.265z"/>
        <path fill="#221C1C" d="M96.454 99.002c-.098 0-.196.004-.297.009-1.114.037-2.243.487-3.284 1.335a7.026 7.026 0 0 0-1.217 1.306c-1.464 1.993-1.542 4.929-.176 6.819a3.841 3.841 0 0 0 3.08 1.531c1.284 0 2.553-.62 3.513-1.706.812-.75 1.552-1.862 2-3.015.626-1.617.569-3.234-.154-4.437l-.07-.114c-.749-1.097-1.986-1.728-3.395-1.728zm0 2.383c.63 0 1.18.245 1.498.711.33.553.319 1.401-.027 2.301-.318.816-.876 1.681-1.49 2.204-.546.669-1.237 1.02-1.874 1.02a1.58 1.58 0 0 1-1.224-.57c-.737-1.023-.686-2.804.171-3.97.224-.306.492-.613.801-.866.592-.482 1.262-.803 1.99-.826.052-.002.103-.004.155-.004z"/>
        <path fill="#FFF" d="M62.297 157.735a1.498 1.498 0 0 0-.889-.685 1.484 1.484 0 0 0-.942.06c-.067.02-.134.054-.2.091h-.004a1.33 1.33 0 0 0-.219.159l-.02.018c-.025.02-.049.044-.072.067l-.088.092c-.112.13-.204.278-.254.429a1.496 1.496 0 0 0-.057.944c.103.37.352.693.683.888.121.048.237.098.356.15.265.07.529.07.79 0 .007-.003.019-.003.025-.005.448-.062.974-.589 1.037-1.039a.063.063 0 0 0 .005-.022c.016-.132.037-.263.053-.398a1.488 1.488 0 0 0-.204-.749zM62.23 174.98a1.978 1.978 0 0 0-1.184-.91 1.975 1.975 0 0 0-1.259.075 1.28 1.28 0 0 0-.267.122l-.005.002-.006.003c-.1.06-.197.129-.288.207-.009.008-.016.017-.025.023-.034.031-.066.06-.098.092a2.64 2.64 0 0 0-.113.121v.002a1.645 1.645 0 0 0-.343.572 2.01 2.01 0 0 0-.075 1.254c.138.498.471.926.912 1.185.16.066.316.133.474.2.35.095.704.095 1.054 0l.033-.005c.597-.086 1.299-.785 1.385-1.383 0-.01.005-.023.005-.034.022-.175.05-.35.071-.525a1.962 1.962 0 0 0-.272-1zM77.369 111.491a.984.984 0 0 0-1.222-.417.567.567 0 0 0-.132.062h-.004l-.004.002a.852.852 0 0 0-.142.103l-.014.01-.047.049a.834.834 0 0 0-.229.345.988.988 0 0 0 .419 1.22l.234.1c.177.047.352.047.528 0 .007-.001.012-.001.017-.003.298-.042.65-.39.694-.69l.002-.018c.01-.087.024-.176.036-.263a.985.985 0 0 0-.136-.5zM66.175 161.6a.769.769 0 0 0-1.056-.278l-.002.001h-.004a.88.88 0 0 0-.11.083.063.063 0 0 1-.012.007l-.036.037a1.009 1.009 0 0 0-.046.047v.002a.606.606 0 0 0-.132.224.754.754 0 0 0-.03.487.781.781 0 0 0 .354.464l.188.08a.752.752 0 0 0 .41 0c.004 0 .01 0 .014-.003.232-.032.508-.308.54-.54 0-.007.002-.009.002-.01.006-.072.02-.143.028-.208a.772.772 0 0 0-.108-.393zM70.175 151.602a.767.767 0 0 0-.954-.325c-.036.01-.068.027-.102.045l-.002.002h-.004a.803.803 0 0 0-.124.09l-.034.038a.657.657 0 0 0-.18.273.755.755 0 0 0-.028.488.788.788 0 0 0 .354.463l.186.077a.752.752 0 0 0 .41 0c.006 0 .01 0 .016-.002.232-.033.506-.307.538-.54.002-.005.002-.01.002-.013.01-.07.018-.137.03-.205a.73.73 0 0 0-.108-.391zM66.173 186.6a.77.77 0 0 0-1.056-.277h-.002l-.004.002a.605.605 0 0 0-.11.082l-.012.007c-.012.012-.026.024-.036.037a.658.658 0 0 0-.18.271.793.793 0 0 0-.028.491.785.785 0 0 0 .353.463c.064.025.124.051.188.077a.752.752 0 0 0 .41 0h.014c.232-.034.507-.31.54-.543 0-.006.003-.006.003-.01l.028-.207a.752.752 0 0 0-.108-.393z"/>
      </g>
    </g>
    <path fill="#212121" d="M8.411-36.433s-25.31 13.889-25.31 39.348c0 25.455 19.233 37.576 33.797 32.307" transform="translate(151.398 255.908)" style="display:block"/>
    <path fill="#212121" d="M-8.38-36.171S16.848-22.382 16.848 2.894c0 25.271-19.172 37.306-33.696 32.074" transform="rotate(-.084 176517.106 -231794.825)" style="display:block"/>
    <g style="display:block">
      <path fill="#DDAB6B" d="M339.762 251.667c0 58.157-50.504 65.955-95.629 65.955-45.121 0-95.633-7.798-95.633-65.955 0-58.154 42.819-85.667 95.633-85.667 52.817 0 95.629 27.513 95.629 85.667z"/>
      <path stroke="#C38D46" stroke-width="4" d="M339.762 251.667c0 58.157-50.504 65.955-95.629 65.955-45.121 0-95.633-7.798-95.633-65.955 0-58.154 42.819-85.667 95.633-85.667 52.817 0 95.629 27.513 95.629 85.667z" fill="none"/>
      <path fill="#FFF" d="M330.843 243.735c0 58.216-38.823 67.941-86.714 67.941-47.89 0-86.71-9.725-86.71-67.941 0-58.211 86.71-53.26 86.71-16.798 0-36.462 86.714-41.413 86.714 16.798z"/>
      <path fill="#CA9957" d="M232.529 248.067c-3.515 21.146-24.699 37.816-41.377 37.844-16.787-.125-28.231-13.842-27.76-33.339-.759-20.766 14.453-38.557 34.371-39.003 19.666-.115 37.068 13.405 34.766 34.498zM256.724 248.067c3.512 21.146 24.702 37.816 41.379 37.844 16.785-.125 28.231-13.842 27.757-33.339.762-20.766-14.451-38.557-34.373-39.003-19.664-.115-37.073 13.405-34.763 34.498z"/>
      <path fill="#D11" d="M232.422 275.195s-.859 22.138 11.96 22.138c12.815 0 11.959-22.138 11.959-22.138"/>
      <path stroke-linecap="round" stroke-linejoin="round" stroke="#212121" stroke-width="3" d="M232.422 275.195s-.859 22.138 11.96 22.138c12.815 0 11.959-22.138 11.959-22.138" fill="none"/>
      <path fill="#FFF" d="M223.153 271.178s-.941 9.776 11.057 9.306c11.995-.471 9.717-10.896 9.717-18.636"/>
      <path stroke-linecap="round" stroke-linejoin="round" stroke="#212121" stroke-width="3" d="M223.153 271.178s-.941 9.776 11.057 9.306c11.995-.471 9.717-10.896 9.717-18.636" fill="none"/>
      <g>
        <path fill="#FFF" d="M265.499 271.178s.937 9.776-11.057 9.306c-11.998-.471-9.722-10.896-9.722-18.636"/>
        <path stroke-linecap="round" stroke-linejoin="round" stroke="#212121" stroke-width="3" d="M265.499 271.178s.937 9.776-11.057 9.306c-11.998-.471-9.722-10.896-9.722-18.636" fill="none"/>
      </g>
      <g>
        <path fill="#221F1F" d="M254.536 255.827c0 6.591-4.66 8.281-10.405 8.281-5.745 0-10.407-1.69-10.407-8.281 0-6.587 4.662-6.584 10.407-6.584s10.405-.003 10.405 6.584z"/>
      </g>
    </g>
    <g style="display:block">
      <path fill="#FFF" d="M168.28 321.714c-4.063 2.362-9.335.942-11.717-3.154l-36.386-62.603c-2.38-4.095-1.004-9.379 3.06-11.74l33.2-19.298c4.063-2.361 9.335-.941 11.716 3.155l36.386 62.6c2.38 4.097 1.004 9.38-3.06 11.742l-33.2 19.298z"/>
      <path stroke="#B89261" stroke-width="2.4" d="M168.28 321.714c-4.063 2.362-9.335.942-11.717-3.154l-36.386-62.603c-2.38-4.095-1.005-9.379 3.058-11.74l33.201-19.298c4.064-2.361 9.336-.941 11.717 3.155l36.386 62.6c2.38 4.097 1.003 9.38-3.06 11.742l-33.2 19.298z" fill="none"/>
      <path fill="#FFD300" d="m157.416 230.067-30.193 17.549c-2.726 1.586-3.65 5.13-2.052 7.879l30.64 52.714c1.596 2.748 5.134 3.701 7.86 2.117l30.195-17.55c2.725-1.584 3.649-5.13 2.05-7.879l-30.639-52.714c-1.596-2.748-5.135-3.7-7.86-2.116z"/>
      <path fill="#E1E1E1" d="m185.611 302.324-10.016 5.822a1.503 1.503 0 0 0-.535 2.05 1.502 1.502 0 0 0 2.047.55l10.016-5.822c.709-.412.95-1.335.534-2.049a1.502 1.502 0 0 0-2.046-.55z"/>
    </g>
    <g style="display:block">
      <path d="M7.02.45v-10.84c0-.9-.48-1.3-1.24-1.3-.75 0-1.24.38-1.24 1.3v2.21H3.27v-2.21c0-.9-.48-1.3-1.23-1.3-.76 0-1.28.38-1.28 1.3v8.88C.76-.07 1.14.45 2.65.45h4.37zm3.96.62h2.51v-12.04c0-.77-.62-1.2-1.25-1.2-.65 0-1.26.41-1.26 1.2v3.91h-.69v-3.91c0-.77-.59-1.2-1.22-1.2-.65 0-1.23.41-1.23 1.2V1.07h2.45v-5.82h.69v5.82zM3.64-1.66c-.31 0-.37-.05-.37-.34v-3.96h1.27v4.3h-.9zm22.91 2.73c.58 0 .8-.42.8-.82 0-.42-.24-.86-.8-.86H18.6c-.22 0-.31-.12-.31-.26v-.05c0-.14.09-.26.31-.26h8.39v-2.26c0-1.11-.47-1.48-1.72-1.48h-9.03c-.53 0-.77.42-.77.82 0 .42.22.83.77.83h7.66c.18 0 .22.06.22.22v.37h-6.81c-1.28 0-2 .65-2 1.66v.17c0 1.02.72 1.92 2 1.92h9.24zM16.82-11.8c-1.61 0-1.96.38-1.96 1.87v2.47c0 1.5.35 1.88 1.96 1.88h5.33c.73 0 1-.57 1-1.07 0-.48-.27-1.03-1-1.03H18c-.26 0-.36-.06-.36-.33v-1.35c0-.24.1-.31.36-.31h3.61c.72 0 .99-.57.99-1.05 0-.5-.25-1.08-.99-1.08h-4.79zm7.27 6.43h2.8v-2.12h.43c.85 0 1.12-.62 1.12-1.2 0-.56-.26-1.19-1.12-1.19h-.43v-.89c0-.9-.67-1.4-1.4-1.4-.75 0-1.4.48-1.4 1.4v5.4z" style="display:inherit" transform="rotate(-30.166 578.684 -133.786)" fill="#222" font-size="14" font-family="Jalnan OTF" font-weight="400" aria-label="배달"/>
    </g>
    <g style="display:block">
      <path d="M10.15-1.62c.23 0 .34.13.34.34v2.35h2.85v-2.75c0-1.69-.33-2.17-2.09-2.17H2.52c-.79 0-1.22.45-1.22 1.11 0 .67.43 1.12 1.22 1.12h7.63zM8.84-4.67c.66 0 1.04-.53 1.04-1.04s-.32-.99-1.04-.99h-.48v-1.18c0-.83-.56-1.19-1.34-1.19-.77 0-1.34.36-1.34 1.19v1.18H4.53v-1.18c0-.83-.57-1.19-1.34-1.19-.78 0-1.34.36-1.34 1.19v1.18h-.26c-.72 0-1.04.48-1.04.99s.38 1.04 1.04 1.04h7.25zm1.58.27h2.85v-6.37c0-.9-.69-1.4-1.43-1.4s-1.42.48-1.42 1.4v6.37zM8.36-9.56c.66 0 1.04-.56 1.04-1.1 0-.53-.32-1.1-1.04-1.1H1.78c-.72 0-1.05.57-1.05 1.1 0 .54.38 1.1 1.05 1.1h6.58zm6.4 1.23c0 2.28 1.57 3.2 3.95 3.2 1.99 0 3.43-.66 3.79-2.29h1.96v2.4h2.81v-5.78c0-.89-.69-1.37-1.41-1.37-.74 0-1.4.47-1.4 1.37v1.18h-1.94c-.34-1.66-1.78-2.35-3.81-2.35-2.34 0-3.95.92-3.95 3.2v.44zm12.58 9.4v-4.3c0-.94-.61-1.35-1.4-1.35-.73 0-1.32.34-1.41 1.13h-6.31c-.1-.78-.67-1.13-1.39-1.13-.79 0-1.42.39-1.42 1.35v2.24c0 1.51.42 2.06 2 2.06h9.93zm-9.83-9.98c0-.71.49-1.06 1.2-1.06.7 0 1.2.35 1.2 1.06v.72c0 .72-.5 1.06-1.2 1.06-.71 0-1.2-.34-1.2-1.06v-.72zm1.1 8.11c-.31 0-.38-.05-.38-.36v-.49h6.29v.85h-5.91z" style="display:inherit" transform="rotate(-30.166 611.543 -141.437)" fill="#222" font-size="14" font-family="Jalnan OTF" font-weight="400" aria-label="픽업"/>
    </g>
    <g style="display:block">
      <path fill="#DDAB6B" d="M198.386 305.457c-.907 9.668-9.524 17.528-19.09 17.567-9.57.036-16.564-7.763-15.763-17.43.798-9.665 9.208-17.537 18.884-17.58 9.678-.038 16.874 7.775 15.969 17.443z"/>
      <path stroke="#C38D46" stroke-width="4" d="M198.386 305.457c-.907 9.668-9.524 17.528-19.09 17.567-9.57.036-16.564-7.763-15.763-17.43.798-9.665 9.208-17.537 18.884-17.58 9.678-.038 16.874 7.775 15.969 17.443z" fill="none"/>
    </g>
    <g style="display:block">
      <path fill="#DDAB6B" d="M323.918 306.512c-.935-9.669-9.574-17.505-19.142-17.513-9.571-.007-16.542 7.812-15.709 17.474.826 9.665 9.254 17.513 18.931 17.526 9.684.011 16.855-7.822 15.92-17.487z"/>
      <path stroke="#C38D46" stroke-width="4" d="M323.918 306.512c-.935-9.669-9.574-17.505-19.142-17.513-9.571-.007-16.542 7.812-15.709 17.474.826 9.665 9.254 17.513 18.931 17.526 9.684.011 16.855-7.822 15.92-17.487z" fill="none"/>
    </g>
    <g style="display:block">
      <path fill="#212121" d="M221.458 248.304c1.243 12.266-1.74 22.601-12.849 23.704-11.111 1.097-16.108-8.445-17.347-20.719-1.239-12.265 1.741-22.604 12.849-23.704 11.112-1.096 16.108 8.45 17.347 20.719z"/>
      <path fill="#FFF" d="M213.048 257.704c-.624 2.327-2.55 3.839-4.296 3.37-1.748-.467-2.657-2.739-2.034-5.066.624-2.33 2.547-3.84 4.295-3.371 1.746.468 2.659 2.738 2.035 5.067zM209.012 243.356c0 4.5-2.744 8.158-6.119 8.158-3.383 0-6.12-3.658-6.12-8.158 0-4.504 2.737-8.158 6.12-8.158 3.375 0 6.119 3.654 6.119 8.158z"/>
    </g>
    <g style="display:block">
      <path fill="#212121" d="M299.48 251.223c-1.181 12.271-6.137 21.843-17.269 20.792-11.127-1.051-14.158-11.373-12.969-23.641 1.18-12.274 6.133-21.843 17.264-20.796 11.132 1.051 14.161 11.374 12.974 23.645z"/>
      <path fill="#FFF" d="M291.422 257.67c-.599 2.235-2.448 3.687-4.125 3.237-1.679-.45-2.552-2.63-1.953-4.865.6-2.237 2.445-3.687 4.124-3.238 1.677.45 2.553 2.63 1.954 4.866zM288.133 243.356c0 4.596-2.803 8.332-6.251 8.332-3.452 0-6.249-3.736-6.249-8.332 0-4.6 2.797-8.332 6.249-8.332 3.448 0 6.251 3.732 6.251 8.332z"/>
    </g>
  </g>
</svg>
