<svg xmlns="http://www.w3.org/2000/svg" width="1920" height="1080" style="width:100%;height:100%;transform:translate3d(0,0,0)">
  <defs>
    <clipPath id="a">
      <path d="M0 0h1920v1080H0z"/>
    </clipPath>
  </defs>
  <g clip-path="url(#a)">
    <path fill="#FDDB3D" d="M0-5c2.76 0 5 2.24 5 5S2.76 5 0 5s-5-2.24-5-5 2.24-5 5-5z" transform="matrix(1.4 0 0 1.4 1402.313 971.58)" style="display:block"/>
    <path fill="#FDDB3D" d="M0-9c4.967 0 9 4.033 9 9S4.967 9 0 9s-9-4.033-9-9 4.033-9 9-9z" transform="translate(1607.76 188.896)" style="display:block"/>
    <path fill="#FDDB3D" d="M0-55c30.354 0 55 24.646 55 55S30.354 55 0 55-55 30.354-55 0s24.646-55 55-55z" transform="translate(1718.934 268.288)" style="display:block"/>
    <path fill="#FDDB3D" d="M0-5c2.76 0 5 2.24 5 5S2.76 5 0 5s-5-2.24-5-5 2.24-5 5-5z" transform="translate(1617.337 559.998)" style="display:block"/>
    <path fill="#FDDB3D" d="M0-33c18.213 0 33 14.787 33 33S18.213 33 0 33-33 18.213-33 0s14.787-33 33-33z" transform="translate(1692.81 715.243)" style="display:block"/>
    <path fill="#FDDB3D" d="M0-17.5c9.658 0 17.5 7.842 17.5 17.5 0 9.658-7.842 17.5-17.5 17.5-9.658 0-17.5-7.842-17.5-17.5 0-9.658 7.842-17.5 17.5-17.5z" transform="matrix(.8 0 0 .8 1609.108 805.633)" style="display:block"/>
    <path fill="#FDDB3D" d="M0-17.5c9.658 0 17.5 7.842 17.5 17.5 0 9.658-7.842 17.5-17.5 17.5-9.658 0-17.5-7.842-17.5-17.5 0-9.658 7.842-17.5 17.5-17.5z" transform="matrix(1.2 0 0 1.2 1200.655 993.911)" style="display:block"/>
    <path fill="#FDDB3D" d="M0-9c4.967 0 9 4.033 9 9S4.967 9 0 9s-9-4.033-9-9 4.033-9 9-9z" transform="matrix(1.3 0 0 1.3 929.152 857.07)" style="display:block"/>
    <path fill="#FDDB3D" d="M0-5c2.76 0 5 2.24 5 5S2.76 5 0 5s-5-2.24-5-5 2.24-5 5-5z" transform="matrix(1.2 0 0 1.2 932.26 672.142)" style="display:block"/>
    <path fill="#FDDB3D" d="M0-42.5c23.456 0 42.5 19.044 42.5 42.5S23.456 42.5 0 42.5-42.5 23.456-42.5 0-23.456-42.5 0-42.5z" transform="translate(907.72 537.117)" style="display:block"/>
    <path fill="#FDDB3D" d="M0-17.5c9.658 0 17.5 7.842 17.5 17.5 0 9.658-7.842 17.5-17.5 17.5-9.658 0-17.5-7.842-17.5-17.5 0-9.658 7.842-17.5 17.5-17.5z" transform="matrix(.5 0 0 .5 936.007 280.95)" style="display:block"/>
    <path fill="#FDDB3D" d="M0-20.5c11.314 0 20.5 9.186 20.5 20.5S11.314 20.5 0 20.5-20.5 11.314-20.5 0-11.314-20.5 0-20.5z" transform="translate(1195.23 109.862) scale(1.29268)" style="display:block"/>
    <path fill="#FDDB3D" d="M0-55c30.354 0 55 24.646 55 55S30.354 55 0 55-55 30.354-55 0s24.646-55 55-55z" transform="matrix(.63636 0 0 .63636 445.036 254.916)" style="display:block"/>
    <path fill="#FDDB3D" d="M0-17.5c9.658 0 17.5 7.842 17.5 17.5 0 9.658-7.842 17.5-17.5 17.5-9.658 0-17.5-7.842-17.5-17.5 0-9.658 7.842-17.5 17.5-17.5z" transform="matrix(.3 0 0 .3 1381.606 101.152)" style="display:block"/>
  </g>
</svg>
