<?xml version="1.0" encoding="utf-8"?>
<!-- Generator: Adobe Illustrator 24.0.0, SVG Export Plug-In . SVG Version: 6.00 Build 0)  -->
<svg version="1.1" id="Layer_1" xmlns="http://www.w3.org/2000/svg" xmlns:xlink="http://www.w3.org/1999/xlink" x="0px" y="0px"
	 viewBox="0 0 245.8 22.9" style="enable-background:new 0 0 245.8 22.9;" xml:space="preserve">
<style type="text/css">
	.st0{fill-rule:evenodd;clip-rule:evenodd;fill:url(#SVGID_1_);}
</style>
<linearGradient id="SVGID_1_" gradientUnits="userSpaceOnUse" x1="-532.2564" y1="437.7985" x2="-530.3945" y2="437.4624" gradientTransform="matrix(116.281 0 0 -49.405 61905.8945 21633.1836)">
	<stop  offset="0" style="stop-color:#FFD373"/>
	<stop  offset="0.7109" style="stop-color:#D6AB4D"/>
	<stop  offset="1" style="stop-color:#F6D58F"/>
</linearGradient>
<path class="st0" d="M157.4,0c6.3,0,11.4,5.2,11.4,11.6c0,6.4-5.4,11.6-11.4,11.6c-6.3,0-11.3-5.2-11.4-11.6
	C146.1,6,150.7,0,157.4,0L157.4,0z M170.6,11.7c0-6.5,5.3-12.5,13.5-11.6c0.4,0.1,1.4,0.1,4.3,0.8l-0.5,2.4c0,0-0.2,0-0.5-0.1
	c-1.2-4-13.5-4.2-13.5,7.7c0,4.6,2.4,8.4,5.6,9.6c0.3,0.1,5,2.2,9.9-2.8l0.3,0.3c-2.3,3.3-5.7,5.3-8.4,5.3
	C175.7,23.2,170.6,18.2,170.6,11.7z M224.6,0.4c1.2,0,2.4,0.1,3.5,0.1l0.7,0c1.9,0,3.4,0,4.4,0h0.4c0.2,0,0.4,0,0.6,0
	c1.3,0,4.5,0.4,4.5,4.2c-0.1,4.5-5.2,6.4-5.3,6.3c0.6,0.9,6.7,7.4,8.8,9.4c2,1.9,2.7,2.1,3.7,2.2v0.4c-5.8,1.3-8.7-3.3-9.7-4.5
	c-1-1.3-2.8-3.8-4.4-5.5c-1.3-1.5-2.7-1.2-3.3-1.3l0,0.6c0,4.2,0.1,8.6,0.1,9.2c0,0.2,0.1,0.9,1,0.9v0.5c-2.3-0.1-3.4-0.1-5,0v-0.5
	c0.9,0,1-0.8,1-0.9c0.1-1.1,0.1-4.8,0.1-8.6c0-1.2,0-2.4,0-3.5c0-3.2-0.1-6.1-0.1-7.4c0-0.1,0-1-1-1V0.4z M129.5,0.4
	c1.2,0,2.4,0.1,3.5,0.1l0.7,0c1.9,0,3.4,0,4.4,0h0.4c0.2,0,0.4,0,0.6,0c1.3,0,4.5,0.4,4.5,4.2c-0.1,4.5-5.2,6.4-5.3,6.3
	c0.6,0.9,6.7,7.4,8.8,9.4c2,1.9,2.7,2.1,3.7,2.2v0.4c-5.8,1.3-8.7-3.3-9.7-4.5c-1-1.3-2.8-3.8-4.4-5.5c-1.3-1.5-2.7-1.2-3.3-1.3
	c0,4.4,0.1,9.2,0.2,9.8c0,0.2,0.1,0.9,1,0.9v0.5c-2.3-0.1-3.4-0.1-5,0v-0.5c0.9,0,1-0.8,1-0.9c0.1-1.1,0.1-4.8,0.1-8.6
	c0-1.2,0-2.4,0-3.5c0-3.2-0.1-6.1-0.1-7.4c0-0.1,0-1-1-1V0.4z M222.2,0.4l-0.4,2.4c0,0-0.1,0-0.4-0.1l-0.1-0.1
	c0.1-1.6-3.5-1.4-5-1.5c-2.2-0.1-2.2,1.2-2.3,2c-0.1,1-0.1,5.7-0.1,6.4c1.8,0.3,6,0.4,7,0.2l-0.1,0.4c-1.2,0.7-4.4,1.1-6.9,1.2
	c-0.1,0.9,0,7.8,0.1,8.9c0.4,1.5,1.4,1.5,2.3,1.5h0l0.3,0c2.4,0,6.4,0,7.4-2.3l0.3,0.1c-0.6,2.2-0.6,3.2-2.6,3.2
	c-1.4-0.1-6.1-0.1-7.2-0.1c-1.1,0-2,0-2.9,0.1l-0.7,0l-0.8,0v-0.5c0.9,0,1-0.8,1-0.9c0.2-2.4,0.2-16.2,0-19.6c0-0.1,0-1-1-1V0.4
	c1.4,0,3.1,0.1,4.8,0.1h0.6C218.9,0.5,222.2,0.4,222.2,0.4z M207.7,0.4v0.5c-0.9,0-1,0.9-1,1c-0.1,1.5-0.1,5.1-0.1,8.9l0,1.3v0.9
	c0,3.8,0,7.4,0.1,8.5c0,0.2,0.1,0.9,1,0.9v0.5c-0.9,0-1.7-0.1-2.5,0c-0.8,0-1.7,0-2.5,0v-0.5c0.9,0,1-0.8,1-0.9
	c0.1-1.1,0.1-4.4,0.1-8.1v-1.5l0-1.1c-1.1,0.4-4.7,1.5-8.9,1.3v1.1c0,3.8,0,7.2,0.1,8.3c0,0.2,0.1,0.9,1,0.9v0.5
	c-0.9,0-1.7-0.1-2.5,0c-0.8,0-1.7,0-2.5,0v-0.5c0.9,0,1-0.8,1-0.9c0.1-1.1,0.1-4.4,0.1-8.1v-1.8l0-0.9c0-3.7-0.1-7.3-0.1-8.9
	c0-0.1,0-1-1-1V0.4c0.8,0,1.7,0.1,2.5,0.1c0.8,0,1.8,0,2.5-0.1v0.5c-0.9,0-1,0.9-1,1c-0.1,1.5-0.1,4.7-0.1,8.2
	c3.3,0.3,5.7,0.3,8.9,0c0-3.5-0.1-6.8-0.1-8.2c0-0.1,0-1-1-1V0.4c0.8,0,1.7,0.1,2.5,0.1C206,0.5,206.9,0.4,207.7,0.4z M165.5,11
	c-0.7-6.4-3.8-10.3-8.8-9.9c-4.7,0.4-7.7,5.3-7.3,11.1c0.4,5.8,4.2,10.3,8.8,9.9C162.6,21.8,166,17.8,165.5,11z M231,1.2l-0.3,0
	c-0.5,0-1,0.1-1.3,0.2c-0.5,0.2-0.8,0.7-0.8,1.6c0,0.6-0.1,1.6-0.1,2.6l0,0.5c0,1.3,0,2.5,0,3.2v0.6c0,0.1,0,0.2,0,0.3v0.4
	c0,0.2,0.2,0.2,0.9,0.2c0.7,0.1,1.6,0,2.5-0.1c2-0.2,4.1-2.2,3.6-5.3c-0.4-3-2-4.1-3.3-4.2c-0.6-0.1-1-0.1-1.5-0.1L231,1.2z
	 M136,1.2l-0.3,0c-0.5,0-1,0.1-1.3,0.2c-0.5,0.2-0.8,0.7-0.8,1.6c-0.1,0.7-0.1,1.7-0.1,2.8l0,0.5c0,0.9,0,1.8,0,2.5l0,0.3v0.8
	c0,0.1,0,0.2,0,0.3v0.4c0,0.2,0.2,0.2,0.9,0.2c0.7,0.1,1.6,0,2.5-0.1c2-0.2,4.1-2.2,3.6-5.3c-0.4-3-2-4.1-3.3-4.2
	c-0.6-0.1-1-0.1-1.5-0.1L136,1.2z M104.1,0c6.3,0,11.4,5.2,11.4,11.6c0,6.4-5.4,11.6-11.4,11.6c-6.3,0-11.3-5.2-11.4-11.6
	C92.8,6,97.4,0,104.1,0z M46.1,0.4c1.1,0,2.1,0.1,3.1,0.1h1.1c2.6,0,4.6-0.1,5.4,0c1.3,0,4.5,0.4,4.5,4.2c-0.1,4.5-5.2,6.4-5.3,6.3
	c0.5,0.9,6.7,7.4,8.8,9.4c2,1.9,2.7,2.1,3.7,2.2v0.4c-5,1.1-8.5-3.4-9.6-4.5c-1.1-1.2-2.9-3.8-4.5-5.5c-1.3-1.5-2.7-1.2-3.3-1.3
	c0,0.1,0,0.2,0,0.4l0,0.7c0,3.6,0.1,7.1,0.1,8.2c-1-0.6-2.3-1.9-3-2.8c0.1-4.9,0-13.7-0.1-16.3c0-0.1,0-1-1-1V0.4z M29.8,0.4
	c1.1,0,2.1,0.1,3.1,0.1H34c2.6,0,4.6-0.1,5.4,0c1.3,0,4.5,0.4,4.5,4.2c-0.1,4.5-5.2,6.4-5.3,6.3c0.5,0.7,5,5.6,7.7,8.3l0.4,0.4
	c0.3,0.3,0.6,0.6,0.8,0.8c2,1.9,2.7,2.1,3.7,2.2v0.4c-5,1.1-8.5-3.4-9.6-4.5c-1.1-1.2-2.9-3.8-4.5-5.5c-1.3-1.5-2.7-1.2-3.3-1.3
	c0,4.4,0.1,9.2,0.2,9.8c0,0.2,0.1,0.9,1,0.9v0.5c-2.3-0.1-3.4-0.1-5,0v-0.5c0.9,0,1-0.8,1-0.9c0.1-1.1,0.1-4.8,0.1-8.6
	c0-1.2,0-2.4,0-3.5c0-3.2-0.1-6.1-0.1-7.4c0-0.1,0-1-1-1L29.8,0.4z M76.7,0.4c1.1,0,2.1,0.1,3.1,0.1h1.1c2.6,0,4.6-0.1,5.4,0
	c1.3,0,4.5,0.4,4.5,4.2c-0.1,4.5-5.2,6.4-5.3,6.3c0.6,0.9,6.7,7.4,8.8,9.4c2,1.9,2.7,2.1,3.7,2.2v0.4c-5,1.1-8.5-3.4-9.6-4.5
	c-1.1-1.2-2.9-3.8-4.5-5.5c-1.3-1.5-2.7-1.2-3.3-1.3l0,0.6c0,4.3,0.1,8.6,0.1,9.2c0,0.2,0.1,0.9,1,0.9v0.5c-2.3-0.1-3.4-0.1-5,0
	v-0.5c0.9,0,1-0.8,1-0.9c0.1-1.1,0.1-4.8,0.1-8.6c0-1.2,0-2.4,0-3.5c0-3.2-0.1-6.1-0.1-7.4c0-0.1,0-1-1-1L76.7,0.4z M76.4,19.6
	l0.3,0.1c-0.6,2.2-0.6,3.2-2.6,3.3c-0.8,0-3.2-0.1-4.5-0.1c-0.7-0.2-1.4-0.5-2.2-1l-0.2-0.1l0.1,0c0.4,0.2,0.9,0.2,1.3,0.2l0.1,0h0
	l0.3,0C71.4,21.9,75.4,21.9,76.4,19.6z M27.3,0.4l-0.4,2.4c0,0-0.1,0-0.4-0.1l-0.1-0.1c0.1-1.5-3.5-1.4-5-1.5
	c-2.2-0.1-2.2,1.2-2.3,2c-0.1,1-0.1,5.7-0.1,6.4c1.8,0.3,6,0.4,7,0.2l-0.1,0.4c-1.2,0.7-4.4,1.1-6.9,1.2c0,0.2,0,0.9,0,1.8l0,0.6
	c0,0.5,0,1.1,0,1.7l0,0.7c0,1.9,0.1,3.7,0.1,4.2c0.4,1.5,1.4,1.5,2.3,1.5h0l0.3,0c2.4,0,6.4,0,7.4-2.3l0.3,0.1
	c-0.6,2.2-0.6,3.2-2.6,3.2c-1.4-0.1-6.1-0.1-7.2-0.1c-1.8,0-3,0.1-4.4,0.1v-0.5c0.9,0,1-0.8,1-0.9c0.1-1.2,0.1-5.5,0.1-9.9l0-0.9
	c0-3.7-0.1-7.3-0.1-8.9c0-0.1,0-1-1-1V0.4c1.3,0,2.9,0.1,4.5,0.1h1.2C24,0.5,26.9,0.4,27.3,0.4L27.3,0.4L27.3,0.4z M0.3,0.4
	c4.5,0.1,10.2,0.2,13.3,0l0,0l-0.4,2.4c0,0-0.1,0-0.3,0l-0.1,0l-0.1-0.1c0.1-1.5-4.5-1.4-6.1-1.5c-2.2-0.1-2.2,1.2-2.3,2
	c-0.1,1-0.1,6.4-0.1,7.1c1.6,0.2,6.8,0.2,8.4-0.1l-0.1,0.4c-2,0.9-5,1.4-8.3,1.4c0,0.1,0,0.3,0,0.5V13c0,2.2,0.2,7.5,0.3,8.4
	c0,0.2,0.1,0.9,1,0.9v0.5c-2.3-0.1-3.5-0.1-5.1,0v-0.5c0.9,0,1-0.8,1-0.9c0.1-1.1,0.1-4.4,0.1-8.1v-1.8c0-4-0.1-8.1-0.1-9.8
	c0-0.1,0-1-1-1V0.4z M112.2,11c-0.7-6.4-3.8-10.3-8.8-9.9c-4.7,0.4-7.7,5.3-7.3,11.1c0.4,5.8,4.2,10.3,8.8,9.9
	C109.3,21.8,112.7,17.8,112.2,11L112.2,11z M74.8,0.4l-0.4,2.4c0,0-0.1,0-0.4-0.1l-0.1-0.1c0.1-1.6-3.5-1.4-5.1-1.5
	c-2.2-0.1-2.2,1.2-2.3,2c0,0.4-0.1,1.5-0.1,2.7l0,0.6c0,1.4,0,2.8,0,3.1c2.3,0.4,5.6,0.4,7,0.2l-0.1,0.4c-1.2,0.7-4.4,1.1-6.9,1.2
	c0,0.2,0,0.9,0,1.8v0.6c0,2.4,0.1,5.8,0.2,6.6c0.1,0.6,0.4,0.9,0.7,1.1l0.1,0.1l-0.3-0.2c-1.3-0.9-2.6-2-3.3-2.8l-0.1-0.1
	c0.1-5,0-14-0.1-16.7c0-0.1,0-1-1-1V0.4c1,0,2.1,0.1,3.3,0.1l0.6,0l0.6,0C70.7,0.5,74.4,0.4,74.8,0.4L74.8,0.4L74.8,0.4z M83.2,1.2
	l-0.3,0c-0.5,0-1,0.1-1.3,0.2c-0.5,0.2-0.8,0.7-0.8,1.6c0,0.6-0.1,1.6-0.1,2.6l0,0.5c0,1.1,0,2.2,0,2.9v0.9c0,0.1,0,0.2,0,0.3v0.4
	c0,0.2,0.2,0.2,0.9,0.2c0.7,0.1,1.6,0,2.5-0.1c2-0.2,4.1-2.2,3.6-5.3c-0.4-3-2-4.1-3.3-4.2c-0.6-0.1-1-0.1-1.5-0.1L83.2,1.2z
	 M36.2,1.2l-0.3,0c-0.5,0-1,0.1-1.3,0.2c-0.5,0.2-0.8,0.7-0.8,1.6c-0.1,0.7-0.1,1.7-0.1,2.8l0,0.8c0,1,0,1.9,0,2.6v0.8
	c0,0.1,0,0.2,0,0.3v0.4c0,0.2,0.2,0.2,0.9,0.2c0.7,0.1,1.6,0,2.5-0.1c2-0.2,4.1-2.2,3.6-5.3c-0.4-3-2-4.1-3.3-4.2
	c-0.6-0.1-1-0.1-1.5-0.1L36.2,1.2z M52.5,1.2l-0.3,0c-0.5,0-1,0.1-1.3,0.2c-0.5,0.2-0.8,0.7-0.8,1.6c0,0.6-0.1,1.6-0.1,2.6l0,0.5
	c0,1.1,0,2.2,0,2.9l0,0.5v0.5c0,0.1,0,0.2,0,0.3v0.4c0,0.2,0.2,0.2,0.9,0.2c0.7,0.1,1.6,0,2.5-0.1c2-0.2,4.1-2.2,3.6-5.3
	c-0.4-3-2-4.1-3.3-4.2c-0.6-0.1-1-0.1-1.5-0.1L52.5,1.2z"/>
</svg>
