<?xml version="1.0" encoding="utf-8"?>
<!-- Generator: Adobe Illustrator 24.0.0, SVG Export Plug-In . SVG Version: 6.00 Build 0)  -->
<svg version="1.1" id="Layer_1" xmlns="http://www.w3.org/2000/svg" xmlns:xlink="http://www.w3.org/1999/xlink" x="0px" y="0px"
	 viewBox="0 0 1920 800" style="enable-background:new 0 0 1920 800;" xml:space="preserve">
<style type="text/css">
	.st0{fill:#FFF7E3;}
</style>
<path class="st0" d="M0,0v800h1920V0H0z M1053.5,208.5c47.2,23.2,72.1-4.6,104.8,37.4s0.8,60.8,12.5,113.2
	c11.7,52.4,48.5,55,36.9,107.4s-45.8,38.6-78.4,80.6c-32.6,42.1-11.7,73.2-58.8,96.6c-47.1,23.4-57.9-12.7-110.3-12.6
	c-52.4,0.1-63,36.3-110.2,13s-26.4-54.4-59.1-96.4c-32.7-42-66.9-28-78.7-80.4c-11.7-52.4,25-55.1,36.5-107.6
	c11.6-52.4-20.7-74,12.6-113.8c34.1-40.8,57.1-13.7,104.2-37.2c47.1-23.4,41.4-60.8,93.8-60.9
	C1011.8,147.9,1006.3,185.3,1053.5,208.5z"/>
</svg>
