
<svg xmlns="http://www.w3.org/2000/svg" xmlns:xlink="http://www.w3.org/1999/xlink" xml:space="preserve" enable-background="new 0 0 841.89 595.28" viewBox="0 0 283.46499 144.96299" height="144.963" width="283.465" y="0px" x="0px" id="레이어_2" version="1.1"><defs id="defs5033"></defs><g transform="translate(-278.90601,-224.314)" id="g4660"><defs id="defs4662"><rect height="144.963" width="283.465" y="224.314" x="278.90601" id="SVGID_1_"></rect></defs><clipPath id="SVGID_2_"><use height="100%" width="100%" y="0" x="0" style="overflow:visible" id="use4666" overflow="visible" xlink:href="#SVGID_1_"></use></clipPath><g id="g4668" clip-path="url(#SVGID_2_)"><defs id="defs4670"><filter height="181.18401" width="377.60901" y="220.672" x="233.3" filterUnits="userSpaceOnUse" id="Adobe_OpacityMaskFilter"><feColorMatrix id="feColorMatrix4673" values="1 0 0 0 0  0 1 0 0 0  0 0 1 0 0  0 0 0 1 0" type="matrix"></feColorMatrix></filter></defs><mask id="SVGID_3_" height="181.184" width="377.609" y="220.672" x="233.3" maskUnits="userSpaceOnUse"><g style="filter:url(#Adobe_OpacityMaskFilter)" id="g4676"><linearGradient y2="311.19629" x2="338.0405" y1="311.19629" x1="278.90579" gradientUnits="userSpaceOnUse" id="SVGID_4_"><stop id="stop4679" style="stop-color:#FFFFFF" offset="0.65"></stop><stop id="stop4681" style="stop-color:#000000" offset="1"></stop></linearGradient><path style="fill:url(#SVGID_4_)" id="path4683" d="m 304.245,310.142 c 0.003,13.978 -11.365,25.347 -25.339,25.347 v 33.789 c 32.605,0 59.135,-26.529 59.135,-59.136 l -0.004,-57.025 -33.792,-10e-4 z"></path></g></mask><g id="g4685" mask="url(#SVGID_3_)"><defs id="defs4687"><filter height="181.18401" width="377.60901" y="220.672" x="233.3" filterUnits="userSpaceOnUse" id="Adobe_OpacityMaskFilter_1_"><feFlood id="feFlood4690" result="back"></feFlood><feBlend id="feBlend4692" mode="normal" in2="back" in="SourceGraphic"></feBlend></filter></defs><mask id="mask4694" height="181.184" width="377.609" y="220.672" x="233.3" maskUnits="userSpaceOnUse"><g style="filter:url(#Adobe_OpacityMaskFilter_1_)" id="g4696"></g></mask><path style="fill:#ffffff" id="path4698" d="M 470.957,398.746 C 370.262,411.695 266.759,383.022 239.78,334.704 212.796,286.39 272.554,236.728 373.253,223.781 c 100.695,-12.947 204.193,15.727 231.179,64.044 26.978,48.314 -32.78,97.979 -133.475,110.921 z"></path><defs id="defs4700"><filter height="181.18401" width="377.60901" y="220.672" x="233.3" filterUnits="userSpaceOnUse" id="Adobe_OpacityMaskFilter_2_"><feFlood id="feFlood4703" result="back"></feFlood><feBlend id="feBlend4705" mode="normal" in2="back" in="SourceGraphic"></feBlend></filter></defs><mask id="SVGID_5_" height="181.184" width="377.609" y="220.672" x="233.3" maskUnits="userSpaceOnUse"><g style="filter:url(#Adobe_OpacityMaskFilter_2_)" id="g4708"></g></mask><linearGradient gradientTransform="matrix(0.2588,0.9659,-0.9659,0.2588,4283.582,-4973.5156)" y2="5097.8066" x2="4205.6885" y1="5097.8066" x1="4005.2373" gradientUnits="userSpaceOnUse" id="SVGID_6_"><stop id="stop4711" style="stop-color:#FFFF00" offset="0"></stop><stop id="stop4713" style="stop-color:#FFFF00;stop-opacity:0" offset="0.75"></stop></linearGradient><path style="fill:url(#SVGID_6_)" id="path4715" d="M 470.957,398.746 C 370.262,411.695 266.759,383.022 239.78,334.704 212.796,286.39 272.554,236.728 373.253,223.781 c 100.695,-12.947 204.193,15.727 231.179,64.044 26.978,48.314 -32.78,97.979 -133.475,110.921 z" mask="url(#SVGID_5_)"></path><linearGradient gradientTransform="matrix(0.7071,-0.7071,0.7071,0.7071,-6887.7051,5222.0532)" y2="1696.377" x2="8789.4531" y1="1696.377" x1="8493.2383" gradientUnits="userSpaceOnUse" id="SVGID_7_"><stop id="stop4718" style="stop-color:#F0047F" offset="0"></stop><stop id="stop4720" style="stop-color:#F0047F;stop-opacity:0" offset="0.75"></stop></linearGradient><path style="fill:url(#SVGID_7_)" id="path4722" d="m 555.594,247.213 c 73.725,35.375 73.725,92.727 0,128.106 -73.723,35.375 -193.262,35.375 -266.987,0 -73.734,-35.38 -73.73,-92.729 -0.002,-128.107 73.727,-35.377 193.262,-35.377 266.989,0.001 z"></path></g><defs id="defs4724"><filter height="181.218" width="377.67599" y="220.65601" x="233.26401" filterUnits="userSpaceOnUse" id="Adobe_OpacityMaskFilter_3_"><feColorMatrix id="feColorMatrix4727" values="1 0 0 0 0  0 1 0 0 0  0 0 1 0 0  0 0 0 1 0" type="matrix"></feColorMatrix></filter></defs><mask id="SVGID_8_" height="181.218" width="377.676" y="220.656" x="233.264" maskUnits="userSpaceOnUse"><g style="filter:url(#Adobe_OpacityMaskFilter_3_)" id="g4730"><linearGradient y2="310.1387" x2="562.37109" y1="310.1387" x1="490.09381" gradientUnits="userSpaceOnUse" id="SVGID_9_"><stop id="stop4733" style="stop-color:#FFFFFF" offset="0.65"></stop><stop id="stop4735" style="stop-color:#000000" offset="1"></stop></linearGradient><path style="fill:url(#SVGID_9_)" id="path4737" d="m 562.371,331.814 c -4.182,2.389 -8.068,3.676 -13.141,3.676 -14.002,0 -25.352,-11.354 -25.352,-25.349 0,-14.002 11.35,-25.352 25.352,-25.352 5.074,0 8.959,1.285 13.141,3.676 V 252.47 c -4.225,-0.957 -8.625,-1.468 -13.141,-1.468 -32.658,0 -59.137,26.478 -59.137,59.14 0,32.658 26.479,59.135 59.137,59.135 4.516,0 8.916,-0.509 13.141,-1.467 z"></path></g></mask><g id="g4739" mask="url(#SVGID_8_)"><g id="g4741"><path style="fill:#ffffff" id="path4743" d="m 239.744,287.819 c 26.984,-48.324 130.503,-77.001 231.223,-64.055 100.715,12.947 160.479,62.622 133.492,110.944 -26.984,48.324 -130.506,77.006 -231.22,64.055 C 272.525,385.814 212.757,336.145 239.744,287.819 Z"></path></g><g id="g4745"><linearGradient gradientTransform="matrix(-0.9659,-0.2588,0.2588,-0.9659,3322.5054,-2163.7832)" y2="-3141.4595" x2="2344.9727" y1="-3141.4595" x1="1977.2012" gradientUnits="userSpaceOnUse" id="SVGID_10_"><stop id="stop4748" style="stop-color:#00A0C6" offset="0"></stop><stop id="stop4750" style="stop-color:#00A0C6;stop-opacity:0" offset="0.75"></stop></linearGradient><path style="fill:url(#SVGID_10_)" id="path4752" d="m 239.744,287.819 c 26.984,-48.324 130.503,-77.001 231.223,-64.055 100.715,12.947 160.479,62.622 133.492,110.944 -26.984,48.324 -130.506,77.006 -231.22,64.055 C 272.525,385.814 212.757,336.145 239.744,287.819 Z"></path></g><defs id="defs4754"><filter height="181.18401" width="377.60901" y="220.672" x="233.3" filterUnits="userSpaceOnUse" id="Adobe_OpacityMaskFilter_4_"><feFlood id="feFlood4757" result="back"></feFlood><feBlend id="feBlend4759" mode="normal" in2="back" in="SourceGraphic"></feBlend></filter></defs><mask id="mask4761" height="181.184" width="377.609" y="220.672" x="233.3" maskUnits="userSpaceOnUse"><g style="filter:url(#Adobe_OpacityMaskFilter_4_)" id="g4763"></g></mask><linearGradient gradientTransform="matrix(0.2588,0.9659,-0.9659,0.2588,4283.582,-4973.5156)" y2="5097.8066" x2="4205.6885" y1="5097.8066" x1="4005.2373" gradientUnits="userSpaceOnUse" id="SVGID_11_"><stop id="stop4766" style="stop-color:#FFFF00" offset="0"></stop><stop id="stop4768" style="stop-color:#FFFF00;stop-opacity:0" offset="0.75"></stop></linearGradient><path style="fill:url(#SVGID_11_)" id="path4770" d="M 470.957,398.746 C 370.262,411.695 266.759,383.022 239.78,334.704 212.796,286.39 272.554,236.728 373.253,223.781 c 100.695,-12.947 204.193,15.727 231.179,64.044 26.978,48.314 -32.78,97.979 -133.475,110.921 z"></path><linearGradient gradientTransform="matrix(0.7071,-0.7071,0.7071,0.7071,-6887.7051,5222.0532)" y2="1696.377" x2="8789.4531" y1="1696.377" x1="8493.2383" gradientUnits="userSpaceOnUse" id="SVGID_12_"><stop id="stop4773" style="stop-color:#F0047F" offset="0"></stop><stop id="stop4775" style="stop-color:#F0047F;stop-opacity:0" offset="0.75"></stop></linearGradient><path style="fill:url(#SVGID_12_)" id="path4777" d="m 555.594,247.213 c 73.725,35.375 73.725,92.727 0,128.106 -73.723,35.375 -193.262,35.375 -266.987,0 -73.734,-35.38 -73.73,-92.729 -0.002,-128.107 73.727,-35.377 193.262,-35.377 266.989,0.001 z"></path></g><defs id="defs4779"><filter height="181.218" width="377.67599" y="220.65601" x="233.26401" filterUnits="userSpaceOnUse" id="Adobe_OpacityMaskFilter_5_"><feColorMatrix id="feColorMatrix4782" values="1 0 0 0 0  0 1 0 0 0  0 0 1 0 0  0 0 0 1 0" type="matrix"></feColorMatrix></filter></defs><mask id="SVGID_13_" height="181.218" width="377.676" y="220.656" x="233.264" maskUnits="userSpaceOnUse"><g style="filter:url(#Adobe_OpacityMaskFilter_5_)" id="g4785"><linearGradient y2="296.7959" x2="502.74219" y1="296.7959" x1="397.17331" gradientUnits="userSpaceOnUse" id="SVGID_14_"><stop id="stop4788" style="stop-color:#FFFFFF" offset="0.65"></stop><stop id="stop4790" style="stop-color:#000000" offset="1"></stop></linearGradient><path style="fill:url(#SVGID_14_)" id="path4792" d="m 490.094,310.142 c 0,-13.789 4.732,-26.468 12.643,-36.525 v -0.024 c -10.83,-13.74 -27.613,-22.586 -46.432,-22.586 -9.064,0 -17.65,2.053 -25.338,5.72 l -0.004,-32.411 -33.79,0.005 0.004,85.822 c 0.003,32.606 26.526,59.136 59.127,59.136 18.818,0 35.602,-8.848 46.438,-22.588 v -0.024 c -7.914,-10.062 -12.648,-22.737 -12.648,-36.525 z m -33.789,25.346 c -13.973,0 -25.338,-11.371 -25.342,-25.347 0.004,-13.975 11.369,-25.344 25.342,-25.344 13.971,0 25.34,11.369 25.34,25.344 0.003,13.978 -11.37,25.347 -25.34,25.347 z"></path></g></mask><g id="g4794" mask="url(#SVGID_13_)"><g id="g4796"><path style="fill:#ffffff" id="path4798" d="m 239.744,287.819 c 26.984,-48.324 130.503,-77.001 231.223,-64.055 100.715,12.947 160.479,62.622 133.492,110.944 -26.984,48.324 -130.506,77.006 -231.22,64.055 C 272.525,385.814 212.757,336.145 239.744,287.819 Z"></path></g><g id="g4800"><linearGradient gradientTransform="matrix(-0.9659,-0.2588,0.2588,-0.9659,3322.5054,-2163.7832)" y2="-3141.4595" x2="2344.9727" y1="-3141.4595" x1="1977.2012" gradientUnits="userSpaceOnUse" id="SVGID_15_"><stop id="stop4803" style="stop-color:#00A0C6" offset="0"></stop><stop id="stop4805" style="stop-color:#00A0C6;stop-opacity:0" offset="0.75"></stop></linearGradient><path style="fill:url(#SVGID_15_)" id="path4807" d="m 239.744,287.819 c 26.984,-48.324 130.503,-77.001 231.223,-64.055 100.715,12.947 160.479,62.622 133.492,110.944 -26.984,48.324 -130.506,77.006 -231.22,64.055 C 272.525,385.814 212.757,336.145 239.744,287.819 Z"></path></g><defs id="defs4809"><filter height="181.18401" width="377.60901" y="220.672" x="233.3" filterUnits="userSpaceOnUse" id="Adobe_OpacityMaskFilter_6_"><feFlood id="feFlood4812" result="back"></feFlood><feBlend id="feBlend4814" mode="normal" in2="back" in="SourceGraphic"></feBlend></filter></defs><mask id="mask4816" height="181.184" width="377.609" y="220.672" x="233.3" maskUnits="userSpaceOnUse"><g style="filter:url(#Adobe_OpacityMaskFilter_6_)" id="g4818"></g></mask><linearGradient gradientTransform="matrix(0.2588,0.9659,-0.9659,0.2588,4283.582,-4973.5156)" y2="5097.8066" x2="4205.6885" y1="5097.8066" x1="4005.2373" gradientUnits="userSpaceOnUse" id="SVGID_16_"><stop id="stop4821" style="stop-color:#FFFF00" offset="0"></stop><stop id="stop4823" style="stop-color:#FFFF00;stop-opacity:0" offset="0.75"></stop></linearGradient><path style="fill:url(#SVGID_16_)" id="path4825" d="M 470.957,398.746 C 370.262,411.695 266.759,383.022 239.78,334.704 212.796,286.39 272.554,236.728 373.253,223.781 c 100.695,-12.947 204.193,15.727 231.179,64.044 26.978,48.314 -32.78,97.979 -133.475,110.921 z"></path><linearGradient gradientTransform="matrix(0.7071,-0.7071,0.7071,0.7071,-6887.7051,5222.0532)" y2="1696.377" x2="8789.4531" y1="1696.377" x1="8493.2383" gradientUnits="userSpaceOnUse" id="SVGID_17_"><stop id="stop4828" style="stop-color:#F0047F" offset="0"></stop><stop id="stop4830" style="stop-color:#F0047F;stop-opacity:0" offset="0.75"></stop></linearGradient><path style="fill:url(#SVGID_17_)" id="path4832" d="m 555.594,247.213 c 73.725,35.375 73.725,92.727 0,128.106 -73.723,35.375 -193.262,35.375 -266.987,0 -73.734,-35.38 -73.73,-92.729 -0.002,-128.107 73.727,-35.377 193.262,-35.377 266.989,0.001 z"></path></g><defs id="defs4834"><filter height="181.218" width="377.67599" y="220.65601" x="233.26401" filterUnits="userSpaceOnUse" id="Adobe_OpacityMaskFilter_7_"><feColorMatrix id="feColorMatrix4837" values="1 0 0 0 0  0 1 0 0 0  0 0 1 0 0  0 0 0 1 0" type="matrix"></feColorMatrix></filter></defs><mask id="SVGID_18_" height="181.218" width="377.676" y="220.656" x="233.264" maskUnits="userSpaceOnUse"><g style="filter:url(#Adobe_OpacityMaskFilter_7_)" id="g4840"><linearGradient y2="296.7988" x2="397.17719" y1="296.7988" x1="338.0405" gradientUnits="userSpaceOnUse" id="SVGID_19_"><stop id="stop4843" style="stop-color:#FFFFFF" offset="0.65"></stop><stop id="stop4845" style="stop-color:#000000" offset="1"></stop></linearGradient><path style="fill:url(#SVGID_19_)" id="path4847" d="m 338.041,310.142 c 0,32.606 26.529,59.136 59.137,59.136 l -0.004,-33.791 c -13.971,0.002 -25.341,-11.367 -25.341,-25.345 v -23.234 l 25.345,0.002 V 253.116 H 371.833 V 224.32 l -33.788,28.795 z"></path></g></mask><g id="g4849" mask="url(#SVGID_18_)"><g id="g4851"><path style="fill:#ffffff" id="path4853" d="m 239.744,287.819 c 26.984,-48.324 130.503,-77.001 231.223,-64.055 100.715,12.947 160.479,62.622 133.492,110.944 -26.984,48.324 -130.506,77.006 -231.22,64.055 C 272.525,385.814 212.757,336.145 239.744,287.819 Z"></path></g><g id="g4855"><linearGradient gradientTransform="matrix(-0.9659,-0.2588,0.2588,-0.9659,3322.5054,-2163.7832)" y2="-3141.4595" x2="2344.9727" y1="-3141.4595" x1="1977.2012" gradientUnits="userSpaceOnUse" id="SVGID_20_"><stop id="stop4858" style="stop-color:#00A0C6" offset="0"></stop><stop id="stop4860" style="stop-color:#00A0C6;stop-opacity:0" offset="0.75"></stop></linearGradient><path style="fill:url(#SVGID_20_)" id="path4862" d="m 239.744,287.819 c 26.984,-48.324 130.503,-77.001 231.223,-64.055 100.715,12.947 160.479,62.622 133.492,110.944 -26.984,48.324 -130.506,77.006 -231.22,64.055 C 272.525,385.814 212.757,336.145 239.744,287.819 Z"></path></g><defs id="defs4864"><filter height="181.18401" width="377.60901" y="220.672" x="233.3" filterUnits="userSpaceOnUse" id="Adobe_OpacityMaskFilter_8_"><feFlood id="feFlood4867" result="back"></feFlood><feBlend id="feBlend4869" mode="normal" in2="back" in="SourceGraphic"></feBlend></filter></defs><mask id="mask4871" height="181.184" width="377.609" y="220.672" x="233.3" maskUnits="userSpaceOnUse"><g style="filter:url(#Adobe_OpacityMaskFilter_8_)" id="g4873"></g></mask><linearGradient gradientTransform="matrix(0.2588,0.9659,-0.9659,0.2588,4283.582,-4973.5156)" y2="5097.8066" x2="4205.6885" y1="5097.8066" x1="4005.2373" gradientUnits="userSpaceOnUse" id="SVGID_21_"><stop id="stop4876" style="stop-color:#FFFF00" offset="0"></stop><stop id="stop4878" style="stop-color:#FFFF00;stop-opacity:0" offset="0.75"></stop></linearGradient><path style="fill:url(#SVGID_21_)" id="path4880" d="M 470.957,398.746 C 370.262,411.695 266.759,383.022 239.78,334.704 212.796,286.39 272.554,236.728 373.253,223.781 c 100.695,-12.947 204.193,15.727 231.179,64.044 26.978,48.314 -32.78,97.979 -133.475,110.921 z"></path><linearGradient gradientTransform="matrix(0.7071,-0.7071,0.7071,0.7071,-6887.7051,5222.0532)" y2="1696.377" x2="8789.4531" y1="1696.377" x1="8493.2383" gradientUnits="userSpaceOnUse" id="SVGID_22_"><stop id="stop4883" style="stop-color:#F0047F" offset="0"></stop><stop id="stop4885" style="stop-color:#F0047F;stop-opacity:0" offset="0.75"></stop></linearGradient><path style="fill:url(#SVGID_22_)" id="path4887" d="m 555.594,247.213 c 73.725,35.375 73.725,92.727 0,128.106 -73.723,35.375 -193.262,35.375 -266.987,0 -73.734,-35.38 -73.73,-92.729 -0.002,-128.107 73.727,-35.377 193.262,-35.377 266.989,0.001 z"></path></g><g id="g4889"><defs id="defs4891"><filter height="144.95799" width="59.137001" y="224.32001" x="338.04099" filterUnits="userSpaceOnUse" id="Adobe_OpacityMaskFilter_9_"><feFlood id="feFlood4894" result="back"></feFlood><feBlend id="feBlend4896" mode="normal" in2="back" in="SourceGraphic"></feBlend></filter></defs><mask id="SVGID_23_" height="144.958" width="59.137" y="224.32" x="338.041" maskUnits="userSpaceOnUse"><g style="filter:url(#Adobe_OpacityMaskFilter_9_)" id="g4899"><defs id="defs4901"><filter height="144.95799" width="59.137001" y="224.32001" x="338.04099" filterUnits="userSpaceOnUse" id="Adobe_OpacityMaskFilter_10_"><feFlood id="feFlood4904" result="back"></feFlood><feBlend id="feBlend4906" mode="normal" in2="back" in="SourceGraphic"></feBlend></filter></defs><mask id="mask4908" height="144.958" width="59.137" y="224.32" x="338.041" maskUnits="userSpaceOnUse"><g style="filter:url(#Adobe_OpacityMaskFilter_10_)" id="g4910"></g></mask><linearGradient y2="296.7988" x2="397.17719" y1="296.7988" x1="338.0405" gradientUnits="userSpaceOnUse" id="SVGID_24_"><stop id="stop4913" style="stop-color:#000000" offset="0.4"></stop><stop id="stop4915" style="stop-color:#000000" offset="0.65"></stop><stop id="stop4917" style="stop-color:#FFFFFF" offset="1"></stop></linearGradient><path style="fill:url(#SVGID_24_)" id="path4919" d="m 338.041,310.142 c 0,32.606 26.529,59.136 59.137,59.136 l -0.004,-33.791 c -13.971,0.002 -25.341,-11.367 -25.341,-25.345 v -23.234 l 25.345,0.002 V 253.116 H 371.833 V 224.32 l -33.788,28.795 z" mask="url(#SVGID_23_)"></path></g></mask><path style="fill:none" id="path4921" d="m 338.041,310.142 c 0,32.606 26.529,59.136 59.137,59.136 l -0.004,-33.791 c -13.971,0.002 -25.341,-11.367 -25.341,-25.345 v -23.234 l 25.345,0.002 V 253.116 H 371.833 V 224.32 l -33.788,28.795 z"></path><defs id="defs4923"><filter height="118.274" width="72.277" y="251.002" x="490.09399" filterUnits="userSpaceOnUse" id="Adobe_OpacityMaskFilter_11_"><feFlood id="feFlood4926" result="back"></feFlood><feBlend id="feBlend4928" mode="normal" in2="back" in="SourceGraphic"></feBlend></filter></defs><mask id="SVGID_25_" height="118.274" width="72.277" y="251.002" x="490.094" maskUnits="userSpaceOnUse"><g style="filter:url(#Adobe_OpacityMaskFilter_11_)" id="g4931"><defs id="defs4933"><filter height="118.274" width="72.277" y="251.002" x="490.09399" filterUnits="userSpaceOnUse" id="Adobe_OpacityMaskFilter_12_"><feFlood id="feFlood4936" result="back"></feFlood><feBlend id="feBlend4938" mode="normal" in2="back" in="SourceGraphic"></feBlend></filter></defs><mask id="mask4940" height="118.274" width="72.277" y="251.002" x="490.094" maskUnits="userSpaceOnUse"><g style="filter:url(#Adobe_OpacityMaskFilter_12_)" id="g4942"></g></mask><linearGradient y2="310.1387" x2="562.37109" y1="310.1387" x1="490.09381" gradientUnits="userSpaceOnUse" id="SVGID_26_"><stop id="stop4945" style="stop-color:#000000" offset="0.4"></stop><stop id="stop4947" style="stop-color:#000000" offset="0.65"></stop><stop id="stop4949" style="stop-color:#FFFFFF" offset="1"></stop></linearGradient><path style="fill:url(#SVGID_26_)" id="path4951" d="m 562.371,331.814 c -4.182,2.389 -8.068,3.676 -13.141,3.676 -14.002,0 -25.352,-11.354 -25.352,-25.349 0,-14.002 11.35,-25.352 25.352,-25.352 5.074,0 8.959,1.285 13.141,3.676 V 252.47 c -4.225,-0.957 -8.625,-1.468 -13.141,-1.468 -32.658,0 -59.137,26.478 -59.137,59.14 0,32.658 26.479,59.135 59.137,59.135 4.516,0 8.916,-0.509 13.141,-1.467 z" mask="url(#SVGID_25_)"></path></g></mask><path style="fill:none" id="path4953" d="m 562.371,331.814 c -4.182,2.389 -8.068,3.676 -13.141,3.676 -14.002,0 -25.352,-11.354 -25.352,-25.349 0,-14.002 11.35,-25.352 25.352,-25.352 5.074,0 8.959,1.285 13.141,3.676 V 252.47 c -4.225,-0.957 -8.625,-1.468 -13.141,-1.468 -32.658,0 -59.137,26.478 -59.137,59.14 0,32.658 26.479,59.135 59.137,59.135 4.516,0 8.916,-0.509 13.141,-1.467 z"></path><defs id="defs4955"><filter height="144.963" width="105.569" y="224.314" x="397.173" filterUnits="userSpaceOnUse" id="Adobe_OpacityMaskFilter_13_"><feFlood id="feFlood4958" result="back"></feFlood><feBlend id="feBlend4960" mode="normal" in2="back" in="SourceGraphic"></feBlend></filter></defs><mask id="SVGID_27_" height="144.963" width="105.569" y="224.314" x="397.173" maskUnits="userSpaceOnUse"><g style="filter:url(#Adobe_OpacityMaskFilter_13_)" id="g4963"><defs id="defs4965"><filter height="144.963" width="105.569" y="224.314" x="397.173" filterUnits="userSpaceOnUse" id="Adobe_OpacityMaskFilter_14_"><feFlood id="feFlood4968" result="back"></feFlood><feBlend id="feBlend4970" mode="normal" in2="back" in="SourceGraphic"></feBlend></filter></defs><mask id="mask4972" height="144.963" width="105.569" y="224.314" x="397.173" maskUnits="userSpaceOnUse"><g style="filter:url(#Adobe_OpacityMaskFilter_14_)" id="g4974"></g></mask><linearGradient y2="296.7959" x2="502.74219" y1="296.7959" x1="397.17331" gradientUnits="userSpaceOnUse" id="SVGID_28_"><stop id="stop4977" style="stop-color:#000000" offset="0.4"></stop><stop id="stop4979" style="stop-color:#000000" offset="0.65"></stop><stop id="stop4981" style="stop-color:#FFFFFF" offset="1"></stop></linearGradient><path style="fill:url(#SVGID_28_)" id="path4983" d="m 490.094,310.142 c 0,-13.789 4.732,-26.468 12.643,-36.525 v -0.024 c -10.83,-13.74 -27.613,-22.586 -46.432,-22.586 -9.064,0 -17.65,2.053 -25.338,5.72 l -0.004,-32.411 -33.79,0.005 0.004,85.822 c 0.003,32.606 26.526,59.136 59.127,59.136 18.818,0 35.602,-8.848 46.438,-22.588 v -0.024 c -7.914,-10.062 -12.648,-22.737 -12.648,-36.525 z m -33.789,25.346 c -13.973,0 -25.338,-11.371 -25.342,-25.347 0.004,-13.975 11.369,-25.344 25.342,-25.344 13.971,0 25.34,11.369 25.34,25.344 0.003,13.978 -11.37,25.347 -25.34,25.347 z" mask="url(#SVGID_27_)"></path></g></mask><path style="fill:none" id="path4985" d="m 490.094,310.142 c 0,-13.789 4.732,-26.468 12.643,-36.525 v -0.024 c -10.83,-13.74 -27.613,-22.586 -46.432,-22.586 -9.064,0 -17.65,2.053 -25.338,5.72 l -0.004,-32.411 -33.79,0.005 0.004,85.822 c 0.003,32.606 26.526,59.136 59.127,59.136 18.818,0 35.602,-8.848 46.438,-22.588 v -0.024 c -7.914,-10.062 -12.648,-22.737 -12.648,-36.525 z m -33.789,25.346 c -13.973,0 -25.338,-11.371 -25.342,-25.347 0.004,-13.975 11.369,-25.344 25.342,-25.344 13.971,0 25.34,11.369 25.34,25.344 0.003,13.978 -11.37,25.347 -25.34,25.347 z"></path><defs id="defs4987"><filter height="116.162" width="59.134998" y="253.11501" x="278.90601" filterUnits="userSpaceOnUse" id="Adobe_OpacityMaskFilter_15_"><feFlood id="feFlood4990" result="back"></feFlood><feBlend id="feBlend4992" mode="normal" in2="back" in="SourceGraphic"></feBlend></filter></defs><mask id="SVGID_29_" height="116.162" width="59.135" y="253.115" x="278.906" maskUnits="userSpaceOnUse"><g style="filter:url(#Adobe_OpacityMaskFilter_15_)" id="g4995"><defs id="defs4997"><filter height="116.162" width="59.134998" y="253.11501" x="278.90601" filterUnits="userSpaceOnUse" id="Adobe_OpacityMaskFilter_16_"><feFlood id="feFlood5000" result="back"></feFlood><feBlend id="feBlend5002" mode="normal" in2="back" in="SourceGraphic"></feBlend></filter></defs><mask id="mask5004" height="116.162" width="59.135" y="253.115" x="278.906" maskUnits="userSpaceOnUse"><g style="filter:url(#Adobe_OpacityMaskFilter_16_)" id="g5006"></g></mask><linearGradient y2="311.19629" x2="338.0405" y1="311.19629" x1="278.90579" gradientUnits="userSpaceOnUse" id="SVGID_30_"><stop id="stop5009" style="stop-color:#000000" offset="0.4"></stop><stop id="stop5011" style="stop-color:#000000" offset="0.65"></stop><stop id="stop5013" style="stop-color:#FFFFFF" offset="1"></stop></linearGradient><path style="fill:url(#SVGID_30_)" id="path5015" d="m 304.245,310.142 c 0.003,13.978 -11.365,25.347 -25.339,25.347 v 33.789 c 32.605,0 59.135,-26.529 59.135,-59.136 l -0.004,-57.025 -33.792,-10e-4 z" mask="url(#SVGID_29_)"></path></g></mask><path style="fill:none" id="path5017" d="m 304.245,310.142 c 0.003,13.978 -11.365,25.347 -25.339,25.347 v 33.789 c 32.605,0 59.135,-26.529 59.135,-59.136 l -0.004,-57.025 -33.792,-10e-4 z"></path></g></g></g><g transform="translate(-278.90601,-224.314)" id="g5019"></g><g transform="translate(-278.90601,-224.314)" id="g5021"></g><g transform="translate(-278.90601,-224.314)" id="g5023"></g><g transform="translate(-278.90601,-224.314)" id="g5025"></g><g transform="translate(-278.90601,-224.314)" id="g5027"></g><g transform="translate(-278.90601,-224.314)" id="g5029"></g></svg>