<?xml version="1.0" encoding="utf-8"?>
<!-- Generator: Adobe Illustrator 24.0.0, SVG Export Plug-In . SVG Version: 6.00 Build 0)  -->
<svg version="1.1" id="Layer_1" xmlns="http://www.w3.org/2000/svg" xmlns:xlink="http://www.w3.org/1999/xlink" x="0px" y="0px"
	 viewBox="0 0 1920 1522.4" style="enable-background:new 0 0 1920 1522.4;" xml:space="preserve">
<path d="M1891.9,55.9c-25.4,6.3-36,38.1-46.6,74.1s-10.6,38.1-38.1,46.6s-12.7,146.1-12.7,146.1c-21.1,0-21.1,50.9-27.5,80.5
	c-6.3,29.7,10.6,19.1-25.4,42.4s-10.6,175.7-21.2,196.9c-10.5,21.2-46.5,21.2-65.6,23.3s-27.8,60.6-59.3,52.9
	c-78.3-19.1-61.4,2.1-120.7,48.7c-37.3,29.3,1.6,118.3-50.8,182.1c-30.8,37.6-25.4,4.2-143.7,66.7c-49.7,26.2-99.8,80.8-201.3,79.7
	c-163.4-1.8-276.9-48.4-343.5-63.9c-91-21.1-137.3-40.1-179.7-95.2c-38.7-50.3-83,4.7-114.8-14.4c-39.2-23.6-35.6-72.4-50.4-129.6
	c-10.3-39.6-38-40.6-53.9-37.4c-5.5,1.1-10.4-3.6-9.7-9.2c4.1-32.2,3.4-77-2.1-97.4c-5-18.3-26.4-14.4-26.4-14.4
	c-12.7-8.5-19.1-103.8-24.5-123.2c-3.5-12.7-23.3-12.7-23.3-12.7c-6.4-48.7,10.6-108,0-175.8c-10.5-67.8-42.3-86.8-52.9-93.2
	c-10.5-6.4-12.6-38.1-16.9-69.9c-4.3-31.8-42.4-23.3-42.4-23.3c19-55.1-55.1-82.6-69.9-103.8C61.3,22.1,30,21.9,0,24.4v1142.2v33.4
	v322.4h1920V1200v-33.4V53.5C1908.7,53.5,1898.6,54.2,1891.9,55.9z"/>
</svg>
