<?xml version="1.0" encoding="utf-8"?>
<!-- Generator: Adobe Illustrator 24.0.0, SVG Export Plug-In . SVG Version: 6.00 Build 0)  -->
<svg version="1.1" id="Layer_1" xmlns="http://www.w3.org/2000/svg" xmlns:xlink="http://www.w3.org/1999/xlink" x="0px" y="0px"
	 viewBox="0 0 693.9 250" style="enable-background:new 0 0 693.9 250;" xml:space="preserve">
<style type="text/css">
	.st0{display:none;}
	.st1{display:inline;fill:#333333;}
	.st2{fill:none;stroke:#333333;stroke-width:10;stroke-linecap:round;stroke-miterlimit:10;}
</style>
<g class="st0">
	<path class="st1" d="M74.5,212.6c0-5.4,2-10.2,5.4-13.9c-20.6-12-35-39.3-35-71v-25.2c0-4.1-3.4-7.5-7.5-7.5s-7.5,3.4-7.5,7.5v25.2
		c0,38.2,18.4,71,44.6,85.1C74.5,212.7,74.5,212.6,74.5,212.6z"/>
	<path class="st1" d="M515.4,220.1c-0.9-2.3-1.4-4.9-1.4-7.5c0-2.6,0.5-5.2,1.4-7.5H114.8c0.9,2.3,1.4,4.9,1.4,7.5
		c0,2.6-0.5,5.2-1.4,7.5H515.4z"/>
	<circle class="st1" cx="95.4" cy="212.6" r="15.3"/>
	<circle class="st1" cx="534.8" cy="212.6" r="15.3"/>
</g>
<path class="st2" d="M574.7,220.1H111.6c-18.4,0-33.3-14.9-33.3-33.3v-71.9c0-11,8.9-19.9,19.9-19.9h78.7"/>
<polyline class="st2" points="561.8,200.9 581,220.1 561.8,239.3 "/>
<line class="st2" x1="13.5" y1="95" x2="66.4" y2="95"/>
</svg>
