<?xml version="1.0" encoding="utf-8"?>
<!-- Generator: Adobe Illustrator 24.0.0, SVG Export Plug-In . SVG Version: 6.00 Build 0)  -->
<svg version="1.1" id="Layer_1" xmlns="http://www.w3.org/2000/svg" xmlns:xlink="http://www.w3.org/1999/xlink" x="0px" y="0px"
	 viewBox="0 0 25.4 50" style="enable-background:new 0 0 25.4 50;" xml:space="preserve">
<style type="text/css">
	.st0{fill:none;stroke:#231F20;stroke-miterlimit:10;}
</style>
<g>
	<path class="st0" d="M12.4,34.7L12.4,34.7c-5.5,0-10-4.5-10-10v-12c0-5.5,4.5-10,10-10l0,0c5.5,0,10,4.5,10,10v12
		C22.4,30.3,17.9,34.7,12.4,34.7z"/>
	<path class="st0" d="M12.4,14.4L12.4,14.4c-0.6,0-1-0.4-1-1v-6c0-0.6,0.4-1,1-1l0,0c0.6,0,1,0.4,1,1v6C13.4,14,13,14.4,12.4,14.4z"
		/>
	<polyline class="st0" points="21.4,35.3 12.4,44.3 3.4,35.3 	"/>
	<polyline class="st0" points="21.4,38.3 12.4,47.3 3.4,38.3 	"/>
</g>
</svg>
