<?xml version="1.0" encoding="utf-8"?>
<!-- Generator: Adobe Illustrator 24.0.0, SVG Export Plug-In . SVG Version: 6.00 Build 0)  -->
<svg version="1.1" id="Layer_1" xmlns="http://www.w3.org/2000/svg" xmlns:xlink="http://www.w3.org/1999/xlink" x="0px" y="0px"
	 viewBox="0 0 153.5 206.9" style="enable-background:new 0 0 153.5 206.9;" xml:space="preserve">
<style type="text/css">
	.st0{fill:#F5DCB2;}
	.st1{fill:#35558A;}
	.st2{fill:#F4B896;}
</style>
<title>identity</title>
<path class="st0" d="M54.2,96.3c-12.8,0-12.8,6-25.6,6s-12.8-6-25.6-6c-1.1,0-2.1,0-3,0.1v41.1l37.3-3.9c4.1-0.4,7.6-2.9,9.4-6.6
	l14.2-30C58.6,96.5,56.4,96.3,54.2,96.3z"/>
<path class="st1" d="M78.6,8.9c12.3,3.4,14.2-2.9,26.5,0.5s10.5,9.7,22.8,13.1c10.7,3,13.5-1.4,22.2-0.4C143.8,8.7,130.4,0,115.5,0
	H64.4C68.4,3.1,70.4,6.7,78.6,8.9z"/>
<path class="st1" d="M20.2,70.8c12.7-1.3,13.3,4.7,26.1,3.5s12.1-7.2,24.9-8.5s13.3,4.7,26.1,3.4s12.1-7.2,24.9-8.5
	s13.3,4.7,26.1,3.4c1.8-0.2,3.6-0.5,5.4-1V38c0-3.4-0.4-6.7-1.3-10c-1.7-0.9-3.5-1.6-5.4-2.1c-12.3-3.4-14.2,2.9-26.5-0.5
	s-10.5-9.7-22.8-13.1s-14.2,2.9-26.4-0.5c-11-3-10.7-8.4-19.3-11.9H38C17,0.1,0.1,17,0,38v40.5C8.2,76.5,9.3,71.9,20.2,70.8z"/>
<path class="st2" d="M145.8,69.8c-12.7,1.1-13.3-4.8-26-3.7s-12.2,7.1-25,8.2s-13.3-4.8-26-3.7s-12.2,7.1-25,8.2s-13.3-4.9-26-3.7
	C8.1,75.9,6.1,79.6,0,81.8v6.6c1.4-0.1,2.8-0.2,4.2-0.1c12.8,0.5,12.5,6.5,25.3,7s13-5.5,25.8-5c2.7,0.1,5.4,0.5,8,1.4l6.1-12.9
	c1.9-4.1,6.8-5.8,10.8-3.9c1.7,0.8,3.1,2.2,3.9,3.9L92,95.5c3.9-1.6,7.1-3.5,14.5-3.2c12.8,0.5,12.6,6.5,25.3,7
	c11.3,0.4,12.8-4.2,21.7-4.9V68.1C151.1,69,148.5,69.6,145.8,69.8z"/>
<path class="st0" d="M130.9,102.3c-12.8,0-12.8-6-25.6-6c-4.1-0.1-8.1,0.8-11.8,2.5l13.4,28.5c1.7,3.5,5,6,8.9,6.6l37.6,5.4V96.4
	C143.6,97.3,142.6,102.3,130.9,102.3z"/>
<path class="st2" d="M72,108.7c-1.2,1.6-3.5,2-5.2,0.7s-2-3.5-0.7-5.2l0,0c1.2-1.6,4.8-3.7,6.4-2.5S73.2,107,72,108.7z"/>
<path class="st0" d="M74.6,93.1c-0.6,1-1.9,1.2-2.9,0.6c-1-0.6-1.2-1.9-0.6-2.9c0-0.1,0.1-0.1,0.2-0.2c0.7-0.9,2.7-2.1,3.7-1.4
	S75.3,92.1,74.6,93.1z"/>
<path class="st2" d="M81.6,108.7c1.2,1.6,3.5,2,5.2,0.7s2-3.5,0.7-5.2l0,0c-1.2-1.6-4.8-3.7-6.4-2.5S80.3,107,81.6,108.7z"/>
<path class="st0" d="M78.9,93.1c0.7,0.9,2.1,1,2.9,0.2c0.8-0.7,1-1.9,0.4-2.7c-0.7-0.9-2.7-2.1-3.7-1.4S78.3,92.1,78.9,93.1z"/>
<path class="st2" d="M34.9,170.2c1.7,2.6,1,6.1-1.6,7.9c-2.3,1.6-5.5,1.2-7.4-0.9c-1.9-2.5-3.6-8.7-1.1-10.6S33,167.8,34.9,170.2z"
	/>
<path class="st2" d="M12.3,161.6c1.3,1.6,1,3.9-0.6,5.2c-1.6,1.3-3.9,1-5.2-0.6c-1.3-1.6-2.3-5.6-0.7-6.9S11.1,160,12.3,161.6z"/>
<path class="st2" d="M38.7,156.2c2.9-1.2,4.3-4.5,3.2-7.4s-4.5-4.3-7.4-3.2c-2.9,1.2-7.5,5.7-6.3,8.6S35.8,157.3,38.7,156.2z"/>
<path class="st2" d="M14.8,152.3c1.9-0.6,3-2.7,2.4-4.6s-2.7-3-4.6-2.4c-0.2,0.1-0.4,0.1-0.6,0.2c-1.9,0.8-4.8,3.7-4.1,5.6
	S12.9,153.1,14.8,152.3z"/>
<path class="st2" d="M118.6,170.2c-2.1,2.3-1.9,5.9,0.5,8c2.3,2.1,5.9,1.9,8-0.5c0.2-0.2,0.3-0.4,0.4-0.5c1.9-2.5,3.6-8.7,1.1-10.6
	C126.2,164.7,120.6,167.8,118.6,170.2z"/>
<path class="st2" d="M141.2,161.6c-1.3,1.6-1,3.9,0.6,5.2s3.9,1,5.2-0.6c1.3-1.6,2.3-5.6,0.7-6.9S142.5,160,141.2,161.6z"/>
<path class="st2" d="M114.8,156.2c-2.9-1.2-4.3-4.5-3.2-7.4c1.2-2.9,4.5-4.3,7.4-3.2c2.9,1.2,7.5,5.7,6.3,8.6
	S117.8,157.3,114.8,156.2z"/>
<path class="st2" d="M138.7,152.3c-1.9-0.8-2.8-2.9-2.1-4.8c0.8-1.9,2.9-2.8,4.8-2.1l0,0c1.9,0.8,4.8,3.7,4.1,5.6
	C144.8,152.9,140.6,153.1,138.7,152.3z"/>
<path class="st0" d="M77.2,174.6C113.8,187.7,101.5,142.4,77.2,174.6z"/>
<path class="st0" d="M77.2,174.6C77.2,212.9,117.4,183.6,77.2,174.6z"/>
<path class="st0" d="M77.2,174.6C36.9,183.6,77.2,212.9,77.2,174.6z"/>
<path class="st0" d="M77.2,174.6C54.5,143.4,40.2,187.1,77.2,174.6z"/>
<path class="st1" d="M93.2,125.9c-1.2-1.5-2.8-2.7-4.5-3.5c0,0,0,0.1,0,0.2c0,1.7-1.3,3-3,3s-3-1.3-3-3l0,0
	c-1.8,2.3-0.4,7.8,1.3,10.2c1.9,2.5,5.4,3,8,1.2S95,128.5,93.2,125.9L93.2,125.9z"/>
<path class="st1" d="M71.2,123.2c-0.5,1.6-2.1,2.5-3.7,2.1c-1.2-0.3-2.1-1.4-2.2-2.7c0-0.1,0-0.3,0-0.4c-1.9,0.8-3.6,2.1-5,3.7
	c-1.9,2.5-1.4,6.1,1.2,8s6.1,1.4,8-1.2C71.1,130.6,72.4,125.8,71.2,123.2z"/>
<path class="st1" d="M18.4,190.4L0,171.4v35.5h21.5l0.8-4.2C23,198.2,21.6,193.6,18.4,190.4z"/>
<path class="st1" d="M135.4,190.4c-3.3,3.3-4.8,8-4,12.6l0.7,3.9h21.5v-34.2L135.4,190.4z"/>
<path class="st0" d="M83.2,144.6c-1.8,3.6-6.2,5-9.7,3.1c-1.3-0.7-2.4-1.7-3.1-3c-5.7,4.1-7.4,14.1,6.8,29.9
	C90.4,158.4,88.7,148.5,83.2,144.6z"/>
<path class="st2" d="M77.1,175.5c0,30.4,32.3,6.9,0.3-0.2c32,7.2,19.6-30.8-0.1-0.4c25.3-33.5-26.9-30.3-0.4,0
	c-20.1-29.7-32.1,7.6-0.1,0.4C44.8,182.4,77.1,205.9,77.1,175.5z"/>
</svg>
