<?xml version="1.0" encoding="utf-8"?>
<!-- Generator: Adobe Illustrator 24.0.0, SVG Export Plug-In . SVG Version: 6.00 Build 0)  -->
<svg version="1.1" id="Layer_1" xmlns="http://www.w3.org/2000/svg" xmlns:xlink="http://www.w3.org/1999/xlink" x="0px" y="0px"
	 viewBox="0 0 164.7 164.7" style="enable-background:new 0 0 164.7 164.7;" xml:space="preserve">
<style type="text/css">
	.st0{fill:#35558A;}
</style>
<g>
	<g>
		<path class="st0" d="M141.2,123.3c-0.3,0.3-0.5,0.8-0.4,1.3l2.4,13.2c9.1-9.9,15.7-22.1,19.1-35.6L141.2,123.3z"/>
		<path class="st0" d="M59.5,125.7c0.1-0.5-0.1-1-0.4-1.3L30.4,97.3c-4.9-4.6-2.3-12.8,4.3-13.9l38.9-6.2c0.5-0.1,0.9-0.4,1.1-0.8
			l17-35.6c2.9-6.1,11.5-6.2,14.5-0.2l17.9,35.1c0.2,0.4,0.7,0.7,1.1,0.8l39.1,5.1c0.1,0,0.2,0,0.3,0.1C164.3,36.5,127.6,0,82.3,0
			C36.9,0,0,36.9,0,82.3c0,35.6,22.5,65.8,54.1,77.4L59.5,125.7z"/>
		<path class="st0" d="M101.2,154.2c-0.4-0.2-1-0.2-1.4,0l-19.2,10.4c0.6,0,1.1,0,1.7,0c10.2,0,20-1.9,29.1-5.3L101.2,154.2z"/>
	</g>
	<g>
		<path class="st0" d="M95.2,54.8c-0.9,1.2-2.5,1.4-3.7,0.5c-1.2-0.9-1.4-2.5-0.5-3.7s3.4-2.6,4.6-1.8C96.7,50.8,96,53.7,95.2,54.8z
			"/>
		<path class="st0" d="M102,54.8c0.9,1.2,2.5,1.4,3.7,0.5c1.2-0.9,1.4-2.5,0.5-3.7s-3.4-2.6-4.6-1.8C100.4,50.8,101.1,53.7,102,54.8
			z"/>
		<path class="st0" d="M93.4,72.3c-1.3,1.8-3.8,2.1-5.6,0.8s-2.1-3.8-0.8-5.6c1.3-1.8,5.3-4,7-2.7C95.7,66.1,94.7,70.5,93.4,72.3z"
			/>
		<path class="st0" d="M103.8,72.3c1.3,1.8,3.8,2.1,5.6,0.8s2.1-3.8,0.8-5.6c-1.3-1.8-5.3-4-7-2.7C101.4,66.1,102.5,70.5,103.8,72.3
			z"/>
	</g>
	<g>
		<path class="st0" d="M48.9,99.3c0.8,1.2,0.6,2.8-0.6,3.7s-2.8,0.6-3.7-0.6c-0.8-1.2-1.4-4.1-0.3-4.9C45.5,96.6,48,98.1,48.9,99.3z
			"/>
		<path class="st0" d="M51,92.9c1.4-0.5,2.1-2,1.6-3.3c-0.5-1.4-2-2.1-3.3-1.6c-1.4,0.5-3.6,2.4-3.1,3.8
			C46.7,93.1,49.6,93.3,51,92.9z"/>
		<path class="st0" d="M64.9,106.4c1.3,1.8,0.9,4.3-1,5.6c-1.8,1.3-4.3,0.9-5.6-1c-1.3-1.8-2.2-6.3-0.4-7.5
			C59.7,102.3,63.6,104.6,64.9,106.4z"/>
		<path class="st0" d="M68.1,96.5c2.1-0.7,3.2-3,2.5-5.1s-3-3.2-5.1-2.5c-2.1,0.7-5.5,3.8-4.8,5.9C61.5,96.9,66,97.2,68.1,96.5z"/>
	</g>
	<g>
		<path class="st0" d="M75.4,153c1.4-0.4,2.8,0.3,3.3,1.7c0.4,1.4-0.3,2.8-1.7,3.3c-1.4,0.4-4.3,0.1-4.8-1.3S74,153.4,75.4,153z"/>
		<path class="st0" d="M69.9,149c0-1.4-1.2-2.6-2.7-2.6c-1.4,0-2.6,1.2-2.6,2.7s1.2,4.1,2.7,4.1C68.8,153.2,69.9,150.5,69.9,149z"/>
		<path class="st0" d="M87.1,140c2.1-0.7,4.4,0.5,5,2.6c0.7,2.1-0.5,4.4-2.6,5c-2.1,0.7-6.6,0.2-7.3-1.9S85,140.6,87.1,140z"/>
		<path class="st0" d="M78.6,133.9c0-2.2-1.8-4-4.1-4s-4,1.8-4,4.1s1.9,6.4,4.1,6.3S78.7,136.1,78.6,133.9z"/>
	</g>
	<g>
		<path class="st0" d="M124.8,131.8c0-2.2,1.8-4,4.1-4s4,1.8,4,4.1s-1.9,6.4-4.1,6.3C126.5,138.2,124.8,134,124.8,131.8z"/>
		<path class="st0" d="M116.4,137.9c-2.1-0.7-4.4,0.5-5,2.6c-0.7,2.1,0.5,4.4,2.6,5c2.1,0.7,6.6,0.2,7.3-1.9
			C121.9,141.6,118.5,138.6,116.4,137.9z"/>
	</g>
	<g>
		<path class="st0" d="M148.6,90.6c-1.4-0.5-2.1-2-1.6-3.3s2-2.1,3.3-1.6c1.4,0.5,3.6,2.4,3.1,3.8C152.9,90.8,150,91,148.6,90.6z"/>
		<path class="st0" d="M150.7,97c-0.8,1.2-0.6,2.8,0.6,3.7c1.2,0.8,2.8,0.6,3.7-0.6c0.8-1.2,1.4-4.1,0.3-4.9
			C154.1,94.3,151.5,95.8,150.7,97z"/>
		<path class="st0" d="M131.5,94.2c-2.1-0.7-3.2-3-2.5-5.1s3-3.2,5.1-2.5s5.5,3.8,4.8,5.9S133.6,94.9,131.5,94.2z"/>
		<path class="st0" d="M134.7,104.1c-1.3,1.8-0.9,4.3,1,5.6c1.8,1.3,4.3,0.9,5.6-1c1.3-1.8,2.2-6.3,0.4-7.5S136,102.3,134.7,104.1z"
			/>
	</g>
</g>
</svg>
