<?xml version="1.0" encoding="utf-8"?>
<!-- Generator: Adobe Illustrator 24.0.0, SVG Export Plug-In . SVG Version: 6.00 Build 0)  -->
<svg version="1.1" id="Layer_1" xmlns="http://www.w3.org/2000/svg" xmlns:xlink="http://www.w3.org/1999/xlink" x="0px" y="0px"
	 viewBox="0 0 500 500" style="enable-background:new 0 0 500 500;" xml:space="preserve">
<style type="text/css">
	.st0{fill:#FF5C5C;}
	.st1{fill:#00CFC8;}
	.st2{fill:#FFEAC5;}
	.st3{fill:#00474A;}
	.st4{fill:#FF846C;}
	.st5{fill:#FFA68A;}
	.st6{fill:#FF5757;}
	.st7{fill:#B20033;}
	.st8{fill:#FFFFFF;}
	.st9{fill:#020044;}
</style>
<g>
	<path class="st0" d="M841.4-359.7l55.6,112.7l124.4,18.1c10.8,1.6,15.1,14.8,7.3,22.4l-90,87.8L960,5.2
		c1.8,10.7-9.4,18.9-19.1,13.8L829.6-39.4L718.4,19.1c-9.6,5.1-20.9-3.1-19.1-13.8l21.3-123.9l-90-87.8c-7.8-7.6-3.5-20.8,7.3-22.4
		l124.4-18.1l55.6-112.7C822.7-369.4,836.6-369.4,841.4-359.7z"/>
	<g>
		<path class="st1" d="M990.1-213.1c-2.4-0.9-3.5-3.5-2.6-5.9s3.5-3.5,5.9-2.6c2.4,0.9,5.9,4.4,5.1,6.7
			C997.4-212.5,992.3-212.3,990.1-213.1z"/>
		<path class="st1" d="M993.3-201.9c-1.5,2-1.1,4.8,0.9,6.3s4.8,1.1,6.3-0.9c1.5-2,2.7-6.8,0.8-8.4
			C999.1-206.4,994.7-203.9,993.3-201.9z"/>
		<path class="st2" d="M960-209.1c-3.6-1.3-5.3-5.3-4-8.8c1.3-3.6,5.3-5.3,8.8-4c3.6,1.3,9.1,6.8,7.8,10.2S963.6-207.8,960-209.1z"
			/>
		<path class="st2" d="M965.7-189.3c-2.3,3-1.7,7.2,1.3,9.6s7.2,1.7,9.6-1.3c2.3-3,4.1-10.6,1.1-12.8
			C974.8-196.2,968.1-192.3,965.7-189.3z"/>
		<path class="st3" d="M921.1-205.6c-5.3-1.9-7.8-7.8-5.9-13.1c1.9-5.3,7.8-7.8,13.1-5.9c5.3,1.9,13.5,10.2,11.5,15.2
			C937.9-204.4,926.4-203.7,921.1-205.6z"/>
		<path class="st3" d="M930.9-171.6c-3.5,4.5-2.5,10.8,2,14.3c4.5,3.5,10.8,2.5,14.3-2c3.5-4.5,6.1-15.8,1.7-19
			C944.4-181.8,934.4-176,930.9-171.6z"/>
	</g>
	<g>
		<path class="st1" d="M939.1-12.8c0-2.6,2.1-4.5,4.6-4.4c2.6,0,4.5,2.1,4.4,4.6s-2.1,7-4.6,7.1C941.1-5.8,939.1-10.5,939.1-12.8z"
			/>
		<path class="st1" d="M929.7-6c-2.5-0.8-4.9,0.6-5.6,3s0.6,4.9,3,5.6s7.3,0.2,8.2-2.1C936-2,932.1-5.4,929.7-6z"/>
		<path class="st2" d="M925.1-39.7c0-3.8,3.2-6.7,7-6.7c3.8,0,6.7,3.2,6.7,7c0,3.8-3.3,10.9-7,10.8
			C928.2-28.8,925.1-35.9,925.1-39.7z"/>
		<path class="st2" d="M908.5-27.6c-3.6-1.2-7.4,0.9-8.6,4.5c-1.2,3.6,0.9,7.4,4.5,8.6c3.6,1.2,11.4,0.2,12.4-3.3
			C918.1-21.4,912.1-26.4,908.5-27.6z"/>
		<path class="st3" d="M908.6-75.1c0-5.7,4.7-10,10.3-10c5.7,0,10,4.7,10,10.3c0,5.7-4.9,16.2-10.4,16
			C913.1-58.9,908.6-69.5,908.6-75.1z"/>
		<path class="st3" d="M879.9-54.3c-5.4-1.8-11,1.4-12.7,6.7s1.4,11,6.7,12.7c5.4,1.8,16.9,0.3,18.5-4.9
			C894.1-45.1,885.3-52.5,879.9-54.3z"/>
	</g>
	<g>
		<path class="st1" d="M715.7-5.5c-2.5-0.1-4.5-4.6-4.6-7.1s1.8-4.6,4.4-4.6c2.6,0,4.6,1.8,4.6,4.4C720.2-10.5,718.2-5.8,715.7-5.5z
			"/>
		<path class="st1" d="M724,0.6c0.9,2.3,5.7,2.9,8.2,2.1c2.5-0.8,3.8-3.2,3-5.6c-0.8-2.5-3.2-3.8-5.6-3C727.2-5.4,723.3-2,724,0.6z"
			/>
		<path class="st2" d="M727.5-28.7c-3.7,0.1-7-7-7-10.8c0-3.8,2.9-7,6.7-7c3.8,0,7,2.9,7,6.7C734.2-35.9,731.1-28.8,727.5-28.7z"/>
		<path class="st2" d="M742.4-17.8c1,3.5,8.8,4.5,12.4,3.3c3.6-1.2,5.7-5,4.5-8.6c-1.2-3.6-5-5.7-8.6-4.5
			C747.2-26.4,741.2-21.4,742.4-17.8z"/>
		<path class="st3" d="M740.7-58.8c-5.5,0.1-10.4-10.4-10.4-16c0-5.7,4.4-10.4,10-10.3c5.7,0,10.4,4.4,10.3,10
			C750.7-69.5,746.2-58.9,740.7-58.8z"/>
		<path class="st3" d="M766.9-39.7c1.6,5.2,13.1,6.7,18.5,4.9c5.4-1.8,8.5-7.4,6.7-12.7s-7.4-8.5-12.7-6.7
			C774-52.5,765.2-45.1,766.9-39.7z"/>
	</g>
	<g>
		<path class="st1" d="M660.8-214.8c-0.7-2.4,2.7-5.8,5.1-6.7s4.9,0.2,5.9,2.6c0.9,2.4-0.2,4.9-2.6,5.9
			C667-212.3,661.9-212.5,660.8-214.8z"/>
		<path class="st1" d="M657.9-204.9c-1.9,1.6-0.8,6.4,0.8,8.4c1.5,2,4.3,2.5,6.3,0.9s2.5-4.3,0.9-6.3
			C664.6-203.9,660.2-206.4,657.9-204.9z"/>
		<path class="st2" d="M686.6-211.7c-1.3-3.4,4.2-9,7.8-10.2c3.6-1.3,7.6,0.4,8.8,4c1.3,3.6-0.4,7.6-4,8.8S687.9-208.2,686.6-211.7z
			"/>
		<path class="st2" d="M681.5-193.9c-2.9,2.2-1.2,9.8,1.1,12.8c2.3,3,6.6,3.7,9.6,1.3c3-2.3,3.7-6.6,1.3-9.6
			S684.5-196.2,681.5-193.9z"/>
		<path class="st3" d="M719.4-209.4c-2-5.1,6.2-13.3,11.5-15.2c5.3-1.9,11.2,0.6,13.1,5.9c1.9,5.3-0.6,11.2-5.9,13.1
			C732.9-203.7,721.4-204.4,719.4-209.4z"/>
		<path class="st3" d="M710.5-178.3c-4.4,3.2-1.8,14.6,1.7,19c3.5,4.5,9.8,5.5,14.3,2c4.5-3.5,5.5-9.8,2-14.3
			C724.9-176,714.9-181.8,710.5-178.3z"/>
	</g>
	<path class="st2" d="M816.5-279.9c-3.3,4.5-9.8,5.6-14.5,2c-4.7-3.6-5.6-9.8-2-14.5l0,0c3.3-4.5,13.4-10.3,17.8-7
		S819.8-284.6,816.5-279.9z"/>
	<path class="st1" d="M823.7-323.4c-1.7,2.8-5.3,3.3-8.1,1.7s-3.3-5.3-1.7-8.1c0-0.3,0.3-0.3,0.6-0.6c2-2.5,7.5-5.9,10.3-3.9
		C827.6-332.3,825.7-326.2,823.7-323.4z"/>
	<path class="st2" d="M843.2-279.9c3.3,4.5,9.8,5.6,14.5,2c4.7-3.6,5.6-9.8,2-14.5l0,0c-3.3-4.5-13.4-10.3-17.8-7
		S839.6-284.6,843.2-279.9z"/>
	<path class="st1" d="M835.7-323.4c2,2.5,5.9,2.8,8.1,0.6c2.2-2,2.8-5.3,1.1-7.5c-2-2.5-7.5-5.9-10.3-3.9
		C831.8-332.3,834-326.2,835.7-323.4z"/>
	<path class="st3" d="M875.6-242.8c-3.3-4.2-7.8-7.5-12.5-9.8c0,0,0,0.3,0,0.6c0,4.7-3.6,8.4-8.4,8.4c-4.7,0-8.4-3.6-8.4-8.4l0,0
		c-5,6.4-1.1,21.7,3.6,28.4c5.3,7,15.1,8.4,22.3,3.3C879.5-225.2,880.6-235.5,875.6-242.8L875.6-242.8z"/>
	<path class="st3" d="M814.2-250.3c-1.4,4.5-5.9,7-10.3,5.9c-3.3-0.8-5.9-3.9-6.1-7.5c0-0.3,0-0.8,0-1.1c-5.3,2.2-10,5.9-13.9,10.3
		c-5.3,7-3.9,17,3.3,22.3s17,3.9,22.3-3.3C814-229.7,817.6-243.1,814.2-250.3z"/>
	<path class="st3" d="M846.7-208.4c-3.9,7.9-13.5,10.9-21.2,6.8c-2.8-1.5-5.2-3.7-6.8-6.6c-12.4,9-16.2,30.8,14.9,65.3
		C862.4-178.3,858.7-199.9,846.7-208.4z"/>
	<path class="st2" d="M833.4-140.9c0,66.4,70.5,15.1,0.7-0.4c69.9,15.7,42.8-67.3-0.2-0.9c55.3-73.2-58.7-66.2-0.9,0
		c-43.9-64.9-70.1,16.6-0.2,0.9C762.9-125.9,833.4-74.6,833.4-140.9z"/>
</g>
<g>
	<path class="st4" d="M255,55.2l55.6,112.7L435,186c10.8,1.6,15.1,14.8,7.3,22.4l-90,87.8l21.3,123.9c1.8,10.7-9.4,18.9-19.1,13.8
		l-111.3-58.5l-111.3,58.5c-9.6,5.1-20.9-3.1-19.1-13.8l21.3-123.9l-90-87.8c-7.8-7.6-3.5-20.8,7.3-22.4l124.4-18.1l55.6-112.7
		C236.2,45.4,250.1,45.4,255,55.2z"/>
	<g>
		<path class="st2" d="M403.6,201.7c-2.4-0.9-3.5-3.5-2.6-5.9c0.9-2.4,3.5-3.5,5.9-2.6c2.4,0.9,5.9,4.4,5.1,6.7
			C410.9,202.3,405.8,202.5,403.6,201.7z"/>
		<path class="st2" d="M406.8,212.9c-1.5,2-1.1,4.8,0.9,6.3c2,1.5,4.8,1.1,6.3-0.9c1.5-2,2.7-6.8,0.8-8.4
			C412.7,208.4,408.2,210.9,406.8,212.9z"/>
		<path class="st5" d="M373.6,205.8c-3.6-1.3-5.3-5.3-4-8.8c1.3-3.6,5.3-5.3,8.8-4s9.1,6.8,7.8,10.2
			C384.9,206.6,377.2,207,373.6,205.8z"/>
		<path class="st5" d="M379.3,225.5c-2.3,3-1.7,7.2,1.3,9.6c3,2.3,7.2,1.7,9.6-1.3c2.3-3,4.1-10.6,1.1-12.8
			C388.3,218.6,381.6,222.5,379.3,225.5z"/>
		<path class="st6" d="M334.6,209.2c-5.3-1.9-7.8-7.8-5.9-13.1c1.9-5.3,7.8-7.8,13.1-5.9c5.3,1.9,13.5,10.2,11.5,15.2
			C351.4,210.5,340,211.1,334.6,209.2z"/>
		<path class="st6" d="M344.4,243.3c-3.5,4.5-2.5,10.8,2,14.3c4.5,3.5,10.8,2.5,14.3-2c3.5-4.5,6.1-15.8,1.7-19
			C357.9,233,347.9,238.8,344.4,243.3z"/>
	</g>
	<g>
		<path class="st2" d="M352.7,402c0-2.6,2.1-4.5,4.6-4.4s4.5,2.1,4.4,4.6s-2.1,7-4.6,7.1C354.6,409.1,352.7,404.4,352.7,402z"/>
		<path class="st2" d="M343.3,408.9c-2.5-0.8-4.9,0.6-5.6,3c-0.8,2.5,0.6,4.9,3,5.6c2.5,0.8,7.3,0.2,8.2-2.1
			C349.5,412.8,345.6,409.5,343.3,408.9z"/>
		<path class="st5" d="M338.7,375.2c0-3.8,3.2-6.7,7-6.7c3.8,0,6.7,3.2,6.7,7c0,3.8-3.3,10.9-7,10.8
			C341.7,386.1,338.7,379,338.7,375.2z"/>
		<path class="st5" d="M322,387.3c-3.6-1.2-7.4,0.9-8.6,4.5c-1.2,3.6,0.9,7.4,4.5,8.6s11.4,0.2,12.4-3.3
			C331.6,393.4,325.6,388.4,322,387.3z"/>
		<path class="st6" d="M322.1,339.7c0-5.7,4.7-10,10.3-10c5.7,0,10,4.7,10,10.3c0,5.7-4.9,16.2-10.4,16
			C326.7,356,322.1,345.4,322.1,339.7z"/>
		<path class="st6" d="M293.4,360.6c-5.4-1.8-11,1.4-12.7,6.7c-1.8,5.4,1.4,11,6.7,12.7s16.9,0.3,18.5-4.9
			C307.7,369.7,298.8,362.3,293.4,360.6z"/>
	</g>
	<g>
		<path class="st2" d="M129.2,409.4c-2.5-0.1-4.5-4.6-4.6-7.1s1.8-4.6,4.4-4.6c2.6,0,4.6,1.8,4.6,4.4
			C133.7,404.4,131.8,409.1,129.2,409.4z"/>
		<path class="st2" d="M137.5,415.4c0.9,2.3,5.7,2.9,8.2,2.1c2.5-0.8,3.8-3.2,3-5.6c-0.8-2.5-3.2-3.8-5.6-3
			C140.8,409.5,136.9,412.8,137.5,415.4z"/>
		<path class="st5" d="M141,386.2c-3.7,0.1-7-7-7-10.8c0-3.8,2.9-7,6.7-7c3.8,0,7,2.9,7,6.7C147.7,379,144.7,386.1,141,386.2z"/>
		<path class="st5" d="M156,397c1,3.5,8.8,4.5,12.4,3.3c3.6-1.2,5.7-5,4.5-8.6c-1.2-3.6-5-5.7-8.6-4.5
			C160.7,388.4,154.8,393.4,156,397z"/>
		<path class="st6" d="M154.3,356.1c-5.5,0.1-10.4-10.4-10.4-16c0-5.7,4.4-10.4,10-10.3c5.7,0,10.4,4.4,10.3,10
			C164.2,345.4,159.7,356,154.3,356.1z"/>
		<path class="st6" d="M180.5,375.1c1.6,5.2,13.1,6.7,18.5,4.9c5.4-1.8,8.5-7.4,6.7-12.7c-1.8-5.4-7.4-8.5-12.7-6.7
			S178.7,369.7,180.5,375.1z"/>
	</g>
	<g>
		<path class="st2" d="M74.3,200c-0.7-2.4,2.7-5.8,5.1-6.7c2.4-0.9,4.9,0.2,5.9,2.6s-0.2,4.9-2.6,5.9
			C80.6,202.5,75.5,202.3,74.3,200z"/>
		<path class="st2" d="M71.5,209.9c-1.9,1.6-0.8,6.4,0.8,8.4c1.5,2,4.3,2.5,6.3,0.9s2.5-4.3,0.9-6.3
			C78.1,210.9,73.7,208.4,71.5,209.9z"/>
		<path class="st5" d="M100.2,203.2c-1.3-3.4,4.2-9,7.8-10.2c3.6-1.3,7.6,0.4,8.8,4c1.3,3.6-0.4,7.6-4,8.8
			C109.2,207,101.5,206.6,100.2,203.2z"/>
		<path class="st5" d="M95,221c-2.9,2.2-1.2,9.8,1.1,12.8c2.3,3,6.6,3.7,9.6,1.3c3-2.3,3.7-6.6,1.3-9.6C104.8,222.5,98,218.6,95,221
			z"/>
		<path class="st6" d="M133,205.4c-2-5.1,6.2-13.3,11.5-15.2c5.3-1.9,11.2,0.6,13.1,5.9c1.9,5.3-0.6,11.2-5.9,13.1
			C146.4,211.1,134.9,210.5,133,205.4z"/>
		<path class="st6" d="M124,236.5c-4.4,3.2-1.8,14.6,1.7,19c3.5,4.5,9.8,5.5,14.3,2c4.5-3.5,5.5-9.8,2-14.3
			C138.4,238.8,128.5,233,124,236.5z"/>
	</g>
	<path class="st7" d="M230.6,135c-3.3,4.5-9.8,5.6-14.5,2c-4.7-3.6-5.6-9.8-2-14.5l0,0c3.3-4.5,13.4-10.3,17.8-7
		C236.5,118.8,234,130.2,230.6,135z"/>
	<path class="st2" d="M237.3,91.5c-1.7,2.8-5.3,3.3-8.1,1.7c-2.8-1.7-3.3-5.3-1.7-8.1c0-0.3,0.3-0.3,0.6-0.6c2-2.5,7.5-5.9,10.3-3.9
		C241.2,82.5,239.2,88.7,237.3,91.5z"/>
	<path class="st7" d="M256.8,135c3.3,4.5,9.8,5.6,14.5,2c4.7-3.6,5.6-9.8,2-14.5l0,0c-3.3-4.5-13.4-10.3-17.8-7
		C250.9,118.8,253.1,130.2,256.8,135z"/>
	<path class="st2" d="M249.2,91.5c2,2.5,5.9,2.8,8.1,0.6c2.2-2,2.8-5.3,1.1-7.5c-2-2.5-7.5-5.9-10.3-3.9S247.6,88.7,249.2,91.5z"/>
	<path class="st7" d="M269.2,224c0-12.7-10.3-23-23-23s-23,10.3-23,23c0,23,24.2,48.1,24.2,48.1S269.2,246,269.2,224z"/>
	<path class="st8" d="M262.7,207.9c-4.2-4.3-10-6.9-16.5-6.9s-12.3,2.7-16.5,6.9c2.5,3.7,8.9,6.3,16.5,6.3S260.2,211.6,262.7,207.9z
		"/>
	<path class="st6" d="M246.9,273.9c0,66.4,70.5,15.1,0.7-0.4c69.9,15.7,42.8-67.3-0.2-0.9c55.3-73.2-58.7-66.2-0.9,0
		c-43.9-64.9-70.1,16.6-0.2,0.9C176.4,289,246.9,340.3,246.9,273.9z"/>
	<g>
		<path class="st9" d="M263.4,191.2c5.1,6.9,15,8.6,22.3,3c7.3-5.6,8.6-15.1,3-22.4l0,0c-5.1-6.9-20.6-16-27.4-10.8
			C254.4,166.2,257.9,183.9,263.4,191.2z"/>
		<circle class="st8" cx="268.1" cy="163.5" r="6.7"/>
	</g>
	<g>
		<path class="st9" d="M225.1,161c-6.9-5.2-22.3,3.9-27.4,10.8l0,0c-5.6,7.3-4.3,16.8,3,22.4c7.3,5.6,17.1,3.9,22.3-3
			C228.5,183.9,231.9,166.2,225.1,161z"/>
		<circle class="st8" cx="218.3" cy="163.5" r="6.7"/>
	</g>
</g>
<g>
	<path class="st1" d="M1357.2-359.7l55.6,112.7l124.4,18.1c10.8,1.6,15.1,14.8,7.3,22.4l-90,87.8l21.3,123.9
		c1.8,10.7-9.4,18.9-19.1,13.8l-111.3-58.5l-111.3,58.5c-9.6,5.1-20.9-3.1-19.1-13.8l21.3-123.9l-90-87.8
		c-7.8-7.6-3.5-20.8,7.3-22.4l124.4-18.1l55.6-112.7C1338.5-369.4,1352.4-369.4,1357.2-359.7z"/>
	<g>
		<path class="st2" d="M1505.8-213.1c-2.4-0.9-3.5-3.5-2.6-5.9c0.9-2.4,3.5-3.5,5.9-2.6s5.9,4.4,5.1,6.7
			C1513.1-212.5,1508-212.3,1505.8-213.1z"/>
		<path class="st2" d="M1509.1-201.9c-1.5,2-1.1,4.8,0.9,6.3s4.8,1.1,6.3-0.9c1.5-2,2.7-6.8,0.8-8.4
			C1514.9-206.4,1510.5-203.9,1509.1-201.9z"/>
		<path class="st0" d="M1475.8-209.1c-3.6-1.3-5.3-5.3-4-8.8c1.3-3.6,5.3-5.3,8.8-4s9.1,6.8,7.8,10.2S1479.4-207.8,1475.8-209.1z"/>
		<path class="st0" d="M1481.5-189.3c-2.3,3-1.7,7.2,1.3,9.6s7.2,1.7,9.6-1.3c2.3-3,4.1-10.6,1.1-12.8
			C1490.6-196.2,1483.8-192.3,1481.5-189.3z"/>
		<path class="st3" d="M1436.9-205.6c-5.3-1.9-7.8-7.8-5.9-13.1s7.8-7.8,13.1-5.9c5.3,1.9,13.5,10.2,11.5,15.2
			C1453.7-204.4,1442.2-203.7,1436.9-205.6z"/>
		<path class="st3" d="M1446.7-171.6c-3.5,4.5-2.5,10.8,2,14.3c4.5,3.5,10.8,2.5,14.3-2c3.5-4.5,6.1-15.8,1.7-19
			C1460.1-181.8,1450.2-176,1446.7-171.6z"/>
	</g>
	<g>
		<path class="st2" d="M1454.9-12.8c0-2.6,2.1-4.5,4.6-4.4s4.5,2.1,4.4,4.6c0,2.6-2.1,7-4.6,7.1C1456.8-5.8,1454.9-10.5,1454.9-12.8
			z"/>
		<path class="st2" d="M1445.5-6c-2.5-0.8-4.9,0.6-5.6,3s0.6,4.9,3,5.6c2.5,0.8,7.3,0.2,8.2-2.1C1451.7-2,1447.8-5.4,1445.5-6z"/>
		<path class="st0" d="M1440.9-39.7c0-3.8,3.2-6.7,7-6.7c3.8,0,6.7,3.2,6.7,7c0,3.8-3.3,10.9-7,10.8
			C1443.9-28.8,1440.9-35.9,1440.9-39.7z"/>
		<path class="st0" d="M1424.3-27.6c-3.6-1.2-7.4,0.9-8.6,4.5c-1.2,3.6,0.9,7.4,4.5,8.6c3.6,1.2,11.4,0.2,12.4-3.3
			C1433.8-21.4,1427.9-26.4,1424.3-27.6z"/>
		<path class="st3" d="M1424.3-75.1c0-5.7,4.7-10,10.3-10c5.7,0,10,4.7,10,10.3c0,5.7-4.9,16.2-10.4,16
			C1428.9-58.9,1424.4-69.5,1424.3-75.1z"/>
		<path class="st3" d="M1395.7-54.3c-5.4-1.8-11,1.4-12.7,6.7c-1.8,5.4,1.4,11,6.7,12.7c5.4,1.8,16.9,0.3,18.5-4.9
			C1409.9-45.1,1401-52.5,1395.7-54.3z"/>
	</g>
	<g>
		<path class="st2" d="M1231.4-5.5c-2.5-0.1-4.5-4.6-4.6-7.1c0-2.6,1.8-4.6,4.4-4.6c2.6,0,4.6,1.8,4.6,4.4
			C1235.9-10.5,1234-5.8,1231.4-5.5z"/>
		<path class="st2" d="M1239.8,0.6c0.9,2.3,5.7,2.9,8.2,2.1s3.8-3.2,3-5.6c-0.8-2.5-3.2-3.8-5.6-3C1243-5.4,1239.1-2,1239.8,0.6z"/>
		<path class="st0" d="M1243.2-28.7c-3.7,0.1-7-7-7-10.8c0-3.8,2.9-7,6.7-7c3.8,0,7,2.9,7,6.7C1249.9-35.9,1246.9-28.8,1243.2-28.7z
			"/>
		<path class="st0" d="M1258.2-17.8c1,3.5,8.8,4.5,12.4,3.3c3.6-1.2,5.7-5,4.5-8.6s-5-5.7-8.6-4.5C1263-26.4,1257-21.4,1258.2-17.8z
			"/>
		<path class="st3" d="M1256.5-58.8c-5.5,0.1-10.4-10.4-10.4-16c0-5.7,4.4-10.4,10-10.3c5.7,0,10.4,4.4,10.3,10
			C1266.5-69.5,1261.9-58.9,1256.5-58.8z"/>
		<path class="st3" d="M1282.7-39.7c1.6,5.2,13.1,6.7,18.5,4.9c5.4-1.8,8.5-7.4,6.7-12.7s-7.4-8.5-12.7-6.7
			C1289.8-52.5,1280.9-45.1,1282.7-39.7z"/>
	</g>
	<g>
		<path class="st2" d="M1176.6-214.8c-0.7-2.4,2.7-5.8,5.1-6.7s4.9,0.2,5.9,2.6c0.9,2.4-0.2,4.9-2.6,5.9
			C1182.8-212.3,1177.7-212.5,1176.6-214.8z"/>
		<path class="st2" d="M1173.7-204.9c-1.9,1.6-0.8,6.4,0.8,8.4c1.5,2,4.3,2.5,6.3,0.9s2.5-4.3,0.9-6.3
			C1180.4-203.9,1175.9-206.4,1173.7-204.9z"/>
		<path class="st0" d="M1202.4-211.7c-1.3-3.4,4.2-9,7.8-10.2c3.6-1.3,7.6,0.4,8.8,4c1.3,3.6-0.4,7.6-4,8.8
			C1211.4-207.8,1203.7-208.2,1202.4-211.7z"/>
		<path class="st0" d="M1197.3-193.9c-2.9,2.2-1.2,9.8,1.1,12.8c2.3,3,6.6,3.7,9.6,1.3s3.7-6.6,1.3-9.6
			C1207-192.3,1200.3-196.2,1197.3-193.9z"/>
		<path class="st3" d="M1235.2-209.4c-2-5.1,6.2-13.3,11.5-15.2c5.3-1.9,11.2,0.6,13.1,5.9s-0.6,11.2-5.9,13.1
			C1248.6-203.7,1237.2-204.4,1235.2-209.4z"/>
		<path class="st3" d="M1226.2-178.3c-4.4,3.2-1.8,14.6,1.7,19c3.5,4.5,9.8,5.5,14.3,2c4.5-3.5,5.5-9.8,2-14.3
			C1240.7-176,1230.7-181.8,1226.2-178.3z"/>
	</g>
	<path class="st0" d="M1332.2-279.9c-3.3,4.5-9.8,5.6-14.5,2c-4.7-3.6-5.6-9.8-2-14.5l0,0c3.3-4.5,13.4-10.3,17.8-7
		C1338.1-296.1,1335.6-284.6,1332.2-279.9z"/>
	<path class="st2" d="M1339.5-323.4c-1.7,2.8-5.3,3.3-8.1,1.7c-2.8-1.7-3.3-5.3-1.7-8.1c0-0.3,0.3-0.3,0.6-0.6
		c2-2.5,7.5-5.9,10.3-3.9C1343.4-332.3,1341.4-326.2,1339.5-323.4z"/>
	<path class="st0" d="M1359-279.9c3.3,4.5,9.8,5.6,14.5,2c4.7-3.6,5.6-9.8,2-14.5l0,0c-3.3-4.5-13.4-10.3-17.8-7
		C1353.1-296.1,1355.4-284.6,1359-279.9z"/>
	<path class="st2" d="M1351.5-323.4c2,2.5,5.9,2.8,8.1,0.6c2.2-2,2.8-5.3,1.1-7.5c-2-2.5-7.5-5.9-10.3-3.9
		C1347.6-332.3,1349.8-326.2,1351.5-323.4z"/>
	<path class="st3" d="M1391.3-242.8c-3.3-4.2-7.8-7.5-12.5-9.8c0,0,0,0.3,0,0.6c0,4.7-3.6,8.4-8.4,8.4c-4.7,0-8.4-3.6-8.4-8.4l0,0
		c-5,6.4-1.1,21.7,3.6,28.4c5.3,7,15.1,8.4,22.3,3.3C1395.2-225.2,1396.4-235.5,1391.3-242.8L1391.3-242.8z"/>
	<path class="st3" d="M1330-250.3c-1.4,4.5-5.9,7-10.3,5.9c-3.3-0.8-5.9-3.9-6.1-7.5c0-0.3,0-0.8,0-1.1c-5.3,2.2-10,5.9-13.9,10.3
		c-5.3,7-3.9,17,3.3,22.3s17,3.9,22.3-3.3C1329.7-229.7,1333.3-243.1,1330-250.3z"/>
	<path class="st0" d="M1362.5-208.4c-3.9,7.9-13.5,10.9-21.2,6.8c-2.8-1.5-5.2-3.7-6.8-6.6c-12.4,9-16.2,30.8,14.9,65.3
		C1378.2-178.3,1374.5-199.9,1362.5-208.4z"/>
	<path class="st2" d="M1349.2-140.9c0,66.4,70.5,15.1,0.7-0.4c69.9,15.7,42.8-67.3-0.2-0.9c55.3-73.2-58.7-66.2-0.9,0
		c-43.9-64.9-70.1,16.6-0.2,0.9C1278.6-125.9,1349.2-74.6,1349.2-140.9z"/>
</g>
<g>
	<path class="st3" d="M1878.1-359.7l55.6,112.7l124.4,18.1c10.8,1.6,15.1,14.8,7.3,22.4l-90,87.8l21.3,123.9
		c1.8,10.7-9.4,18.9-19.1,13.8l-111.3-58.5l-111.3,58.5c-9.6,5.1-20.9-3.1-19.1-13.8l21.3-123.9l-90-87.8
		c-7.8-7.6-3.5-20.8,7.3-22.4l124.4-18.1l55.6-112.7C1859.4-369.4,1873.3-369.4,1878.1-359.7z"/>
	<g>
		<path class="st2" d="M2026.8-213.1c-2.4-0.9-3.5-3.5-2.6-5.9c0.9-2.4,3.5-3.5,5.9-2.6s5.9,4.4,5.1,6.7
			C2034.1-212.5,2029-212.3,2026.8-213.1z"/>
		<path class="st2" d="M2030-201.9c-1.5,2-1.1,4.8,0.9,6.3s4.8,1.1,6.3-0.9c1.5-2,2.7-6.8,0.8-8.4
			C2035.8-206.4,2031.4-203.9,2030-201.9z"/>
		<path class="st0" d="M1996.8-209.1c-3.6-1.3-5.3-5.3-4-8.8c1.3-3.6,5.3-5.3,8.8-4s9.1,6.8,7.8,10.2S2000.3-207.8,1996.8-209.1z"/>
		<path class="st0" d="M2002.4-189.3c-2.3,3-1.7,7.2,1.3,9.6c3,2.3,7.2,1.7,9.6-1.3c2.3-3,4.1-10.6,1.1-12.8
			C2011.5-196.2,2004.8-192.3,2002.4-189.3z"/>
		<path class="st1" d="M1957.8-205.6c-5.3-1.9-7.8-7.8-5.9-13.1c1.9-5.3,7.8-7.8,13.1-5.9c5.3,1.9,13.5,10.2,11.5,15.2
			C1974.6-204.4,1963.1-203.7,1957.8-205.6z"/>
		<path class="st1" d="M1967.6-171.6c-3.5,4.5-2.5,10.8,2,14.3s10.8,2.5,14.3-2c3.5-4.5,6.1-15.8,1.7-19
			C1981.1-181.8,1971.1-176,1967.6-171.6z"/>
	</g>
	<g>
		<path class="st2" d="M1975.8-12.8c0-2.6,2.1-4.5,4.6-4.4c2.6,0,4.5,2.1,4.4,4.6c0,2.6-2.1,7-4.6,7.1
			C1977.8-5.8,1975.8-10.5,1975.8-12.8z"/>
		<path class="st2" d="M1966.4-6c-2.5-0.8-4.9,0.6-5.6,3s0.6,4.9,3,5.6c2.5,0.8,7.3,0.2,8.2-2.1C1972.7-2,1968.8-5.4,1966.4-6z"/>
		<path class="st0" d="M1961.8-39.7c0-3.8,3.2-6.7,7-6.7c3.8,0,6.7,3.2,6.7,7c0,3.8-3.3,10.9-7,10.8
			C1964.9-28.8,1961.8-35.9,1961.8-39.7z"/>
		<path class="st0" d="M1945.2-27.6c-3.6-1.2-7.4,0.9-8.6,4.5c-1.2,3.6,0.9,7.4,4.5,8.6c3.6,1.2,11.4,0.2,12.4-3.3
			C1954.8-21.4,1948.8-26.4,1945.2-27.6z"/>
		<path class="st1" d="M1945.3-75.1c0-5.7,4.7-10,10.3-10c5.7,0,10,4.7,10,10.3c0,5.7-4.9,16.2-10.4,16
			C1949.8-58.9,1945.3-69.5,1945.3-75.1z"/>
		<path class="st1" d="M1916.6-54.3c-5.4-1.8-11,1.4-12.7,6.7c-1.8,5.4,1.4,11,6.7,12.7c5.4,1.8,16.9,0.3,18.5-4.9
			C1930.8-45.1,1922-52.5,1916.6-54.3z"/>
	</g>
	<g>
		<path class="st2" d="M1752.4-5.5c-2.5-0.1-4.5-4.6-4.6-7.1c0-2.6,1.8-4.6,4.4-4.6c2.6,0,4.6,1.8,4.6,4.4
			C1756.9-10.5,1754.9-5.8,1752.4-5.5z"/>
		<path class="st2" d="M1760.7,0.6c0.9,2.3,5.7,2.9,8.2,2.1c2.5-0.8,3.8-3.2,3-5.6c-0.8-2.5-3.2-3.8-5.6-3
			C1763.9-5.4,1760-2,1760.7,0.6z"/>
		<path class="st0" d="M1764.2-28.7c-3.7,0.1-7-7-7-10.8c0-3.8,2.9-7,6.7-7c3.8,0,7,2.9,7,6.7C1770.9-35.9,1767.8-28.8,1764.2-28.7z
			"/>
		<path class="st0" d="M1779.1-17.8c1,3.5,8.8,4.5,12.4,3.3c3.6-1.2,5.7-5,4.5-8.6s-5-5.7-8.6-4.5
			C1783.9-26.4,1777.9-21.4,1779.1-17.8z"/>
		<path class="st1" d="M1777.4-58.8c-5.5,0.1-10.4-10.4-10.4-16c0-5.7,4.4-10.4,10-10.3c5.7,0,10.4,4.4,10.3,10
			C1787.4-69.5,1782.9-58.9,1777.4-58.8z"/>
		<path class="st1" d="M1803.6-39.7c1.6,5.2,13.1,6.7,18.5,4.9c5.4-1.8,8.5-7.4,6.7-12.7c-1.8-5.4-7.4-8.5-12.7-6.7
			C1810.7-52.5,1801.9-45.1,1803.6-39.7z"/>
	</g>
	<g>
		<path class="st2" d="M1697.5-214.8c-0.7-2.4,2.7-5.8,5.1-6.7c2.4-0.9,4.9,0.2,5.9,2.6c0.9,2.4-0.2,4.9-2.6,5.9
			C1703.7-212.3,1698.6-212.5,1697.5-214.8z"/>
		<path class="st2" d="M1694.7-204.9c-1.9,1.6-0.8,6.4,0.8,8.4c1.5,2,4.3,2.5,6.3,0.9s2.5-4.3,0.9-6.3
			C1701.3-203.9,1696.9-206.4,1694.7-204.9z"/>
		<path class="st0" d="M1723.3-211.7c-1.3-3.4,4.2-9,7.8-10.2c3.6-1.3,7.6,0.4,8.8,4c1.3,3.6-0.4,7.6-4,8.8
			C1732.4-207.8,1724.7-208.2,1723.3-211.7z"/>
		<path class="st0" d="M1718.2-193.9c-2.9,2.2-1.2,9.8,1.1,12.8c2.3,3,6.6,3.7,9.6,1.3s3.7-6.6,1.3-9.6
			C1727.9-192.3,1721.2-196.2,1718.2-193.9z"/>
		<path class="st1" d="M1756.1-209.4c-2-5.1,6.2-13.3,11.5-15.2c5.3-1.9,11.2,0.6,13.1,5.9s-0.6,11.2-5.9,13.1
			C1769.6-203.7,1758.1-204.4,1756.1-209.4z"/>
		<path class="st1" d="M1747.2-178.3c-4.4,3.2-1.8,14.6,1.7,19c3.5,4.5,9.8,5.5,14.3,2s5.5-9.8,2-14.3
			C1761.6-176,1751.6-181.8,1747.2-178.3z"/>
	</g>
	<path class="st0" d="M1853.2-279.9c-3.3,4.5-9.8,5.6-14.5,2c-4.7-3.6-5.6-9.8-2-14.5l0,0c3.3-4.5,13.4-10.3,17.8-7
		C1859-296.1,1856.5-284.6,1853.2-279.9z"/>
	<path class="st2" d="M1860.4-323.4c-1.7,2.8-5.3,3.3-8.1,1.7c-2.8-1.7-3.3-5.3-1.7-8.1c0-0.3,0.3-0.3,0.6-0.6
		c2-2.5,7.5-5.9,10.3-3.9C1864.3-332.3,1862.4-326.2,1860.4-323.4z"/>
	<path class="st0" d="M1879.9-279.9c3.3,4.5,9.8,5.6,14.5,2s5.6-9.8,2-14.5l0,0c-3.3-4.5-13.4-10.3-17.8-7
		C1874.1-296.1,1876.3-284.6,1879.9-279.9z"/>
	<path class="st2" d="M1872.4-323.4c2,2.5,5.9,2.8,8.1,0.6c2.2-2,2.8-5.3,1.1-7.5c-2-2.5-7.5-5.9-10.3-3.9
		C1868.5-332.3,1870.7-326.2,1872.4-323.4z"/>
	<path class="st1" d="M1912.3-242.8c-3.3-4.2-7.8-7.5-12.5-9.8c0,0,0,0.3,0,0.6c0,4.7-3.6,8.4-8.4,8.4c-4.7,0-8.4-3.6-8.4-8.4l0,0
		c-5,6.4-1.1,21.7,3.6,28.4c5.3,7,15.1,8.4,22.3,3.3C1916.2-225.2,1917.3-235.5,1912.3-242.8L1912.3-242.8z"/>
	<path class="st1" d="M1850.9-250.3c-1.4,4.5-5.9,7-10.3,5.9c-3.3-0.8-5.9-3.9-6.1-7.5c0-0.3,0-0.8,0-1.1c-5.3,2.2-10,5.9-13.9,10.3
		c-5.3,7-3.9,17,3.3,22.3s17,3.9,22.3-3.3C1850.7-229.7,1854.3-243.1,1850.9-250.3z"/>
	<path class="st2" d="M1883.4-208.4c-3.9,7.9-13.5,10.9-21.2,6.8c-2.8-1.5-5.2-3.7-6.8-6.6c-12.4,9-16.2,30.8,14.9,65.3
		C1899.2-178.3,1895.4-199.9,1883.4-208.4z"/>
	<path class="st0" d="M1870.1-140.9c0,66.4,70.5,15.1,0.7-0.4c69.9,15.7,42.8-67.3-0.2-0.9c55.3-73.2-58.7-66.2-0.9,0
		c-43.9-64.9-70.1,16.6-0.2,0.9C1799.6-125.9,1870.1-74.6,1870.1-140.9z"/>
</g>
</svg>
